<?xml version="1.0" encoding="UTF-8" standalone="no"?>
<!DOCTYPE svg PUBLIC "-//W3C//DTD SVG 1.1//EN" "http://www.w3.org/Graphics/SVG/1.1/DTD/svg11.dtd">
<svg xmlns="http://www.w3.org/2000/svg">
<metadata>
Created by FontPrep 20130207 at Thu Dec 19 21:09:23 2013
 By Marcel Villerius
Copyright (c) 2012 by Aad van Dommelen. All rights reserved.
</metadata>
<defs>
<font id="9d11485b264e11731c16a670d0145374" horiz-adv-x="1024">
  <font-face font-family="Vestula-SemiBold" font-weight="600" font-stretch="normal" units-per-em="2048" panose-1="2 11 6 3 3 3 2 2 2 4" ascent="1485" descent="-563" x-height="1022" cap-height="1380" bbox="-186 -610.004 2478 1948" underline-thickness="104" underline-position="-436" unicode-range="U+0020-FB04"/>
<missing-glyph horiz-adv-x="618" d="M2 -467v2044h614v-2044h-614z"/>
    <glyph glyph-name="f_f" unicode="ff" horiz-adv-x="1286" d="M756 1022v115q0 139 51 211q-59 20 -147 20t-159 -44t-91 -130q-12 -47 -13 -113v-59h359zM975 0h-219v887h-357v-887h-219v887h-149v135h151v55q0 98 19 156q80 272 438 272q143 0 266 -51q89 41 193 41t178 -8v-127h-64q-184 0 -225 -133q-12 -37 -12 -94v-111h285 v-133h-285v-889z"/>
    <glyph glyph-name="f_f_i" unicode="ffi" horiz-adv-x="1675" d="M754 1100q0 176 75 262q-68 23 -139 22q-231 0 -278 -172q-12 -45 -13 -114v-76h355v78zM1548 0h-221v887h-352v-887h-221v887h-355v-887h-219v887h-149v135h151v63q0 433 490 433q154 0 291 -56q111 49 290 49q98 0 174 -14q133 -29 134 -121q0 -112 -124 -112t-124 118 q-37 4 -74 4q-213 0 -254 -161q-12 -45 -12 -111v-92h575v-1022z"/>
    <glyph glyph-name="f_f_l" unicode="ffl" horiz-adv-x="1695" d="M756 1022v100q0 154 55 224q-67 22 -153 22t-157 -45t-91 -127q-12 -45 -13 -111v-63h359zM1559 0h-222v1370h-96q-217 0 -260 -147q-10 -35 -10 -101v-100h241v-135h-237v-887h-219v887h-357v-887h-219v887h-149v135h151v55q0 94 17 156q76 272 438 272q158 0 291 -57 q123 53 291 53t340 -14v-1487z"/>
    <glyph glyph-name="f_i" unicode="fi" horiz-adv-x="1105" d="M975 0h-223v887h-351v-887h-221v887h-151v135h151v88q0 253 180 343q119 58 320 58q98 0 174 -14q133 -29 133 -121q0 -112 -124 -112t-124 118q-37 4 -100 4t-135 -36t-92 -119q-12 -43 -13 -109v-100h576v-1022z"/>
    <glyph glyph-name="f_l" unicode="fl" horiz-adv-x="1118" d="M979 0h-221v1370h-96q-219 0 -254 -145q-10 -39 -11 -101v-102h236v-135h-234v-887h-219v887h-151v135h151v100q0 251 175 327q120 52 286 52t338 -14v-1487z"/>
    <glyph glyph-name="f_j" unicode="fj" horiz-adv-x="1105" d="M754 -467v1354h-351v-887h-223v887h-149v135h149v88q0 86 21 147q47 135 164 195t315 59q100 0 176 -14q131 -29 131 -121q0 -112 -124 -112t-124 118q-37 4 -99 4t-132 -38t-94 -117q-12 -43 -13 -109v-100h574v-911q0 -261 -92 -578h-129z"/>
    <glyph glyph-name="f_f_j" unicode="ffj" horiz-adv-x="1675" d="M754 1100q0 178 80 262q-61 23 -144 22q-238 0 -278 -172q-12 -45 -13 -114v-76h355v78zM1327 -467v1354h-352v-887h-221v887h-355v-887h-219v887h-149v135h151v63q0 86 23 158q87 275 447 275q174 0 311 -56q111 49 290 49q98 0 174 -14q133 -29 134 -121 q0 -112 -124 -112t-124 118q-37 4 -74 4q-209 0 -254 -161q-12 -45 -12 -111v-92h575v-911q0 -261 -92 -578h-129z"/>
    <glyph glyph-name=".notdef" horiz-adv-x="618" d="M2 -467v2044h614v-2044h-614z"/>
    <glyph glyph-name=".null" horiz-adv-x="0"/>
    <glyph glyph-name="nonmarkingreturn" horiz-adv-x="681"/>
    <glyph glyph-name="space" unicode=" " horiz-adv-x="512"/>
    <glyph glyph-name="exclam" unicode="!" horiz-adv-x="589" d="M432 105q0 -71 -28 -98t-106 -27q-77 0 -107 28q-29 28 -29 98t29 97q30 27 107 27q78 0 106 -28q28 -26 28 -97zM389 446h-180l-45 1039h268z"/>
    <glyph glyph-name="quotedbl" unicode="&quot;" horiz-adv-x="870" d="M694 854h-137l-41 631h219zM311 854h-137l-41 631h219z"/>
    <glyph glyph-name="numbersign" unicode="#" horiz-adv-x="1292" d="M758 567l55 283h-276l-56 -283h277zM1225 850h-256l-56 -283h228v-143h-254l-82 -424h-158l82 424h-276l-82 -424h-156l82 424h-231v143h258l55 283h-229v143h258l75 387h156l-74 -387h277l73 387h158l-76 -387h228v-143z"/>
    <glyph glyph-name="dollar" unicode="$" horiz-adv-x="1103" d="M586 569l-76 -434q279 10 278 197q1 139 -202 237zM315 1063q1 -83 53 -135t150 -99l74 412q-127 -4 -202 -49t-75 -129zM141 135h256l82 475q-59 29 -89 43t-83 44t-82 59q-29 30 -61 68q-58 71 -60 194q0 190 144 277t368 94l27 149h115l-27 -152q98 0 193 -12v-133 h-219l-80 -450q190 -89 283 -181t93 -237q0 -195 -140 -287t-376 -98l-28 -154h-115l29 154q-137 0 -230 14v133z"/>
    <glyph glyph-name="percent" unicode="%" horiz-adv-x="1783" d="M410 606q-148 0 -248 100t-100 292t100 291t248 99t247 -98q101 -100 101 -293t-100 -292t-248 -99zM411 713q81 1 132 71t51 212t-52 213t-132 71t-132 -71t-52 -212t52 -213t133 -71zM1372 -8q-148 0 -250 99q-100 99 -100 292t100 292t249 99t249 -99t100 -292 t-100 -292t-248 -99zM1370 100q80 0 132 71t52 212t-52 212t-132 71t-132 -71t-52 -212t52 -212t132 -71zM459 0h-166l1028 1380h168z"/>
    <glyph glyph-name="ampersand" unicode="&amp;" horiz-adv-x="1296" d="M834 309v344h-172q-132 0 -226 -59q-94 -60 -94 -196t85 -199t216 -63t211 28q-20 61 -20 145zM1276 139v-125q-72 -22 -184 -22t-181 55q-133 -61 -329 -61t-332 96q-137 96 -137 293q0 131 75 222q76 91 199 124q-92 33 -155 110q-62 78 -62 208t82 214t184 110t214 26 q110 0 167 -11v-133h-131q-123 0 -209 -51t-86 -171t82 -179t201 -60h160v170q44 22 206 76v-246h224v-131h-224v-327q0 -111 41 -149t138 -38h57z"/>
    <glyph glyph-name="quotesingle" unicode="'" horiz-adv-x="485" d="M311 854h-137l-41 631h219z"/>
    <glyph glyph-name="parenleft" unicode="(" horiz-adv-x="819" d="M133 512q0 246 55 436q54 190 148 304q182 222 440 237v-125q-196 -25 -312 -236q-116 -212 -116 -618t116 -616t312 -234v-125q-252 8 -439 236q-93 113 -149 304q-55 191 -55 437z"/>
    <glyph glyph-name="parenright" unicode=")" horiz-adv-x="819" d="M471 512q0 408 -116 618t-314 234v125q256 -12 439 -237q92 -114 148 -304t56 -436t-55 -437q-98 -341 -354 -476q-111 -60 -234 -64v125q199 23 315 234q116 210 115 618z"/>
    <glyph glyph-name="asterisk" unicode="*" horiz-adv-x="1032" d="M848 813l-281 264l-18 -6l-72 -379l-188 62l166 348l-11 16l-383 -49v197l383 -49l11 16l-166 348l188 61l72 -378l18 -7l281 265l117 -160l-340 -184v-19l340 -186z"/>
    <glyph glyph-name="plus" unicode="+" horiz-adv-x="1187" d="M666 25h-148v415h-412v144h412v411h148v-411h413v-144h-413v-415z"/>
    <glyph glyph-name="comma" unicode="," horiz-adv-x="520" d="M262 254q143 0 144 -164q0 -116 -64 -258t-143 -244h-90l124 402q-61 4 -89 33t-28 99t36 102q35 30 110 30z"/>
    <glyph glyph-name="hyphen" unicode="-" horiz-adv-x="737" d="M645 442h-553v158h553v-158z"/>
    <glyph glyph-name="period" unicode="." horiz-adv-x="520" d="M261 -12q-77 0 -107 28t-31 105q0 75 31 103q32 28 108 28t105 -28t29 -104t-29 -104t-106 -28z"/>
    <glyph glyph-name="slash" unicode="/" horiz-adv-x="663" d="M174 -344h-164l496 1841h164z"/>
    <glyph glyph-name="zero" unicode="0" d="M572 1399q212 0 346 -174q134 -175 133 -537t-135 -536t-345 -175q-211 1 -344 173t-133 538t133 539q133 172 345 172zM315 688q1 -293 73 -431t184 -138t185 138t72 431q0 293 -72 432q-73 140 -185 140t-184 -140t-73 -432z"/>
    <glyph glyph-name="one" unicode="1" d="M1063 0h-922v137h365v1086l-365 -131v143l404 145h182v-1243h336v-137z"/>
    <glyph glyph-name="two" unicode="2" d="M1024 0h-870v133q49 51 227 256t211 248q166 203 166 356q0 250 -316 250h-272v121q176 31 358 31q471 0 471 -369q0 -125 -54 -226t-132 -192t-241 -268q-162 -176 -191 -203h643v-137z"/>
    <glyph glyph-name="three" unicode="3" d="M160 137h200q168 1 281 63t113 203q0 236 -400 248v133q147 18 256 94t109 179q0 78 -48 122q-47 44 -105 54t-142 10h-250v127q186 27 326 27q457 0 456 -301q0 -121 -85 -203t-203 -129q328 -84 327 -352q0 -111 -49 -195t-133 -132q-173 -99 -393 -97q-166 -1 -260 22 v127z"/>
    <glyph glyph-name="four" unicode="4" d="M913 0h-215v289h-610v184l508 907h317v-954h150v-137h-150v-289zM698 426v590l11 227h-27l-88 -207l-346 -610h450z"/>
    <glyph glyph-name="five" unicode="5" d="M162 137h182q178 0 292 70t114 221q0 178 -140 240t-409 53l63 659h674v-137h-504l-37 -371q588 -4 588 -423q0 -225 -165 -345t-410 -120q-144 -1 -248 22v131z"/>
    <glyph glyph-name="six" unicode="6" d="M973 1243h-152q-193 0 -329 -105t-158 -321q117 82 295 82t292 -104q113 -104 113 -340t-127 -354q-127 -117 -331 -117t-336 141q-131 141 -131 467q0 219 62 381q63 162 167 249t219 127t240 40t176 -13v-133zM324 553q0 -199 66 -313t187 -115q250 0 248 313 q0 166 -70 240q-71 74 -182 74q-70 0 -139 -22t-106 -56q-4 -57 -4 -121z"/>
    <glyph glyph-name="seven" unicode="7" d="M119 1243v137h907v-125l-514 -1255h-236l519 1243h-676z"/>
    <glyph glyph-name="eight" unicode="8" d="M572 109q105 0 178 52q72 52 71 169q0 184 -276 299q-225 -123 -226 -291q0 -117 74 -173t179 -56zM102 336q0 244 291 377q-256 133 -256 344q0 172 124 259t310 87q187 0 311 -85t124 -255q0 -215 -256 -330q291 -156 290 -383q0 -188 -133 -281t-340 -93t-336 85 q-129 86 -129 275zM797 1075q0 105 -66 155t-161 50q-96 0 -160 -46t-64 -142t74 -164q74 -70 176 -113q201 111 201 260z"/>
    <glyph glyph-name="nine" unicode="9" d="M180 137h176q201 0 316 97t137 329q-109 -80 -288 -80q-179 1 -295 105t-116 340t131 352q130 116 324 115q469 0 469 -609q0 -799 -645 -798q-127 0 -209 14v135zM821 829q0 197 -64 313q-65 116 -196 115q-106 -1 -173 -77q-66 -76 -66 -240t70 -237t181 -72 q164 0 242 74q6 43 6 124z"/>
    <glyph glyph-name="colon" unicode=":" horiz-adv-x="520" d="M261 766q-77 0 -107 29t-31 105q0 76 30 104q29 28 107 28t107 -28t29 -105t-30 -105q-28 -28 -105 -28zM261 -12q-77 0 -107 28t-31 105q0 75 31 103q32 28 108 28t105 -28t29 -104t-29 -104t-106 -28z"/>
    <glyph glyph-name="semicolon" unicode=";" horiz-adv-x="520" d="M262 254q143 0 144 -164q0 -116 -64 -258t-143 -244h-90l124 402q-61 4 -89 33t-28 99t36 102q35 30 110 30zM261 766q-77 0 -107 29t-31 105q0 76 30 104q29 28 107 28t107 -28t29 -105t-30 -105q-28 -28 -105 -28z"/>
    <glyph glyph-name="less" unicode="&lt;" horiz-adv-x="946" d="M836 0h-209l-514 512l512 510h209l-512 -510z"/>
    <glyph glyph-name="equal" unicode="=" horiz-adv-x="1187" d="M1069 248h-952v141h952v-141zM1069 633h-952v143h952v-143z"/>
    <glyph glyph-name="greater" unicode="&gt;" horiz-adv-x="946" d="M319 0h-208l514 512l-514 510h208l515 -510z"/>
    <glyph glyph-name="question" unicode="?" horiz-adv-x="780" d="M299 -20q-79 0 -107 28t-28 98t30 97t106 27t106 -28q28 -26 28 -97t-28 -98t-107 -27zM393 446h-194q-16 102 -17 193q0 145 94 262q20 29 71 87q50 58 61 73q72 77 72 149t-59 102q-58 30 -138 29h-197v129q106 27 272 27t272 -61t105 -201q0 -109 -114 -254 q-15 -18 -69 -83q-103 -123 -119 -147q-38 -56 -40 -139v-166z"/>
    <glyph glyph-name="at" unicode="@" horiz-adv-x="2269" d="M860 367q0 -231 210 -233q104 0 175 73l133 680q-14 2 -65 2q-205 -2 -329 -155t-124 -367zM1587 -301v-129q-183 -29 -405 -29t-376 23q-340 51 -521 235q-181 185 -183 561q0 520 335 830t857 309q389 1 630 -195t241 -567q0 -337 -194 -543t-523 -208h-37 q-69 0 -107 19t-49 81q-121 -102 -277 -102t-245 96q-88 96 -88 260q1 225 103 399t303 252q109 41 235 41t176 -10h150l-168 -887h41q159 2 275 92q218 169 218 506q0 295 -181 449t-505 153q-451 0 -720 -262t-269 -709t340 -583q206 -82 533 -82h411z"/>
    <glyph glyph-name="A" unicode="A" horiz-adv-x="1257" d="M1231 0h-242l-104 356h-533l-104 -356h-221l422 1380h358zM850 496l-219 745h-25l-219 -745h463z"/>
    <glyph glyph-name="B" unicode="B" horiz-adv-x="1255" d="M410 137h182q317 0 317 269q0 104 -53 162q-54 58 -126 70t-157 13h-163v-514zM567 0h-377v1380h363q207 0 295 -24q248 -72 248 -302t-224 -311q123 -33 196 -119t73 -221q0 -303 -289 -376q-107 -27 -285 -27zM410 788h180q285 0 284 240q0 90 -48 141t-110 63t-147 11 h-159v-455z"/>
    <glyph glyph-name="C" unicode="C" horiz-adv-x="1153" d="M96 692q0 182 64 323q113 255 420 338q133 36 276 36t199 -11v-137h-152q-223 0 -380 -107q-85 -58 -133 -173t-48 -279q0 -549 537 -549q135 0 184 6v-133q-237 -45 -463 -6q-92 16 -188 62t-163 121t-110 201t-43 308z"/>
    <glyph glyph-name="D" unicode="D" horiz-adv-x="1398" d="M532 0h-342v1380h328q166 0 258 -14q522 -76 522 -653q0 -713 -766 -713zM416 137h131q217 0 359 105q159 118 159 454q0 150 -37 258t-86 161q-49 54 -129 84t-135 36t-135 6h-127v-1104z"/>
    <glyph glyph-name="E" unicode="E" horiz-adv-x="1163" d="M1020 0h-830v1380h826v-139h-600v-453h563v-139h-563v-512h604v-137z"/>
    <glyph glyph-name="F" unicode="F" horiz-adv-x="1077" d="M416 0h-226v1380h795v-139h-569v-453h534v-137h-534v-651z"/>
    <glyph glyph-name="G" unicode="G" horiz-adv-x="1376" d="M1006 588h-273v137h484v-715q-154 -29 -355 -28q-764 0 -764 686q0 313 167 486q280 290 929 224v-137h-193q-666 0 -665 -559q0 -140 35 -244t86 -162t127 -91q76 -34 140 -43t140 -9t142 4v451z"/>
    <glyph glyph-name="H" unicode="H" horiz-adv-x="1441" d="M1249 0h-219v649h-616v-649h-224v1380h224v-592h616v592h219v-1380z"/>
    <glyph glyph-name="I" unicode="I" horiz-adv-x="606" d="M416 0h-226v1380h226v-1380z"/>
    <glyph glyph-name="J" unicode="J" horiz-adv-x="606" d="M190 -467v1847h224v-1259q0 -262 -92 -588h-132z"/>
    <glyph glyph-name="K" unicode="K" horiz-adv-x="1296" d="M414 651v-651h-224v1380h224v-592h141l477 592h240l-529 -643l551 -737h-266l-473 651h-141z"/>
    <glyph glyph-name="L" unicode="L" horiz-adv-x="960" d="M963 0h-783v1380h223v-1243h560v-137z"/>
    <glyph glyph-name="M" unicode="M" horiz-adv-x="1867" d="M1722 0h-221l-74 879l-14 362h-27l-73 -362l-217 -879h-342l-236 879l-74 362h-26l-12 -362l-68 -879h-195l109 1380h379l307 -1243h12l281 1243h373z"/>
    <glyph glyph-name="N" unicode="N" horiz-adv-x="1468" d="M1276 0h-356l-377 819l-158 422h-20l16 -455v-786h-188v1380h360l379 -827l153 -418h23l-18 451v794h186v-1380z"/>
    <glyph glyph-name="O" unicode="O" horiz-adv-x="1413" d="M704 -27q-275 0 -440 169q-164 169 -164 539t169 546t436 176t438 -163q170 -163 170 -539t-167 -552t-442 -176zM709 121q358 0 358 569q0 281 -94 424t-266 143q-173 0 -267 -141t-94 -427t94 -427t269 -141z"/>
    <glyph glyph-name="P" unicode="P" horiz-adv-x="1200" d="M416 0h-226v1380h379q193 0 291 -28q262 -78 262 -376t-280 -398q-90 -33 -271 -33l-155 2v-547zM416 686h168q307 0 307 293q0 111 -53 172t-138 80q-39 10 -125 10h-159v-555z"/>
    <glyph glyph-name="Q" unicode="Q" horiz-adv-x="1429" d="M1395 0h-627q-160 0 -240 18q-198 45 -314 209t-116 461q0 367 170 541t442 174t440 -168q167 -168 167 -516q0 -213 -77 -365t-187 -217h342v-137zM719 129q356 0 356 565q0 281 -97 422t-268 141q-172 0 -268 -141t-96 -424t100 -423t273 -140z"/>
    <glyph glyph-name="R" unicode="R" horiz-adv-x="1284" d="M414 575v-575h-224v1380h383q195 0 301 -32t180 -119t74 -233t-76 -240t-202 -138l401 -618h-247l-361 575h-229zM414 700h172q307 0 307 287q0 105 -54 165t-119 74t-142 15h-164v-541z"/>
    <glyph glyph-name="S" unicode="S" horiz-adv-x="1093" d="M932 1241h-293q-315 0 -315 -178q0 -78 51 -126t153 -101l217 -109q129 -68 191 -152t61 -208q0 -381 -567 -381q-184 0 -299 16v133h305q332 0 332 197q0 134 -152 214q-62 32 -137 68q-74 35 -106 52q-152 74 -215 156t-64 206q0 358 551 363q176 0 287 -17v-133z"/>
    <glyph glyph-name="T" unicode="T" horiz-adv-x="1017" d="M623 0h-224v1241h-395v139h1008v-139h-389v-1241z"/>
    <glyph glyph-name="U" unicode="U" horiz-adv-x="1357" d="M985 453v927h209v-882q0 -144 -43 -248t-118 -162q-145 -111 -367 -111q-221 0 -362 118q-140 118 -140 382v903h225v-931q0 -326 295 -326q137 0 219 78t82 252z"/>
    <glyph glyph-name="V" unicode="V" horiz-adv-x="1208" d="M793 0h-361l-418 1380h242l354 -1245h21l340 1245h223z"/>
    <glyph glyph-name="W" unicode="W" horiz-adv-x="1949" d="M1579 0h-319l-228 1010l-47 231h-16l-43 -231l-221 -1010h-328l-330 1380h244l221 -1007l43 -238h20l39 238l217 1007h316l221 -1007l43 -238h19l38 238l218 1007h221z"/>
    <glyph glyph-name="X" unicode="X" horiz-adv-x="1187" d="M1174 0h-250l-330 553l-328 -553h-252l449 702l-440 678h253l322 -530l313 530h248l-434 -673z"/>
    <glyph glyph-name="Y" unicode="Y" horiz-adv-x="1042" d="M649 0h-237v547l-426 833h256l252 -536l45 -113h12l41 113l248 536h221l-412 -833v-547z"/>
    <glyph glyph-name="Z" unicode="Z" horiz-adv-x="1052" d="M999 0h-946v109l682 1132h-647v139h901v-110l-682 -1133h692v-137z"/>
    <glyph glyph-name="bracketleft" unicode="[" horiz-adv-x="755" d="M688 -467h-493v1952h493v-137h-287v-1676h287v-139z"/>
    <glyph glyph-name="backslash" unicode="\" horiz-adv-x="663" d="M666 -344h-164l-496 1841h164z"/>
    <glyph glyph-name="bracketright" unicode="]" horiz-adv-x="755" d="M561 -467h-495v139h286v1676h-286v137h495v-1952z"/>
    <glyph glyph-name="asciicircum" unicode="^" horiz-adv-x="1191" d="M1096 1038h-174l-324 324l-326 -324h-176l408 480h186z"/>
    <glyph glyph-name="underscore" unicode="_" horiz-adv-x="1249" d="M1247 -467h-1247v139h1247v-139z"/>
    <glyph glyph-name="grave" unicode="`" horiz-adv-x="647" d="M565 1180h-180l-303 370h229z"/>
    <glyph glyph-name="a" unicode="a" horiz-adv-x="1044" d="M911 0h-200l-9 41q-158 -55 -303 -55t-227 74t-82 222q0 146 70 242q203 59 526 109v65q0 117 -60 154t-175 37h-289v119q168 32 298 32t191 -11q169 -30 226 -140q35 -68 34 -170v-719zM313 294q-1 -81 53 -124t138 -43t182 20v359q-252 -49 -344 -78q-29 -53 -29 -134z "/>
    <glyph glyph-name="b" unicode="b" horiz-adv-x="1128" d="M1036 551q0 -553 -620 -553q-228 0 -277 4v1483h221v-481q96 31 226 30q451 0 450 -483zM362 133h80q356 0 357 399q0 362 -295 363q-84 0 -142 -14v-748z"/>
    <glyph glyph-name="c" unicode="c" horiz-adv-x="933" d="M854 137v-125q-86 -24 -202 -24t-186 13t-140 48t-119 90t-81 147t-32 212q0 322 223 454q137 80 361 80q86 0 158 -10v-133h-129q-377 0 -377 -385q0 -367 397 -367h127z"/>
    <glyph glyph-name="d" unicode="d" horiz-adv-x="1132" d="M993 0h-190l-10 43q-129 -57 -261 -57q-196 0 -318 129t-122 374q0 342 248 474q125 70 315 69q70 0 119 -4v457h219v-1485zM774 893h-82q-358 0 -358 -387q0 -205 83 -292t208 -87q71 0 149 18v748z"/>
    <glyph glyph-name="e" unicode="e" horiz-adv-x="1064" d="M940 137v-119q-166 -39 -334 -38q-254 0 -385 120t-131 414q0 293 137 412q137 120 332 118q416 0 416 -428q0 -78 -8 -147h-645v-37q0 -172 90 -233t247 -62h281zM754 604v66q0 238 -199 237q-229 0 -236 -303h435z"/>
    <glyph glyph-name="f" unicode="f" horiz-adv-x="712" d="M403 0h-223v889h-149v133h149v111q0 84 13 135q51 227 370 227q70 0 139 -8v-127h-63q-186 0 -223 -131q-12 -37 -13 -99v-108h285v-133h-285v-889z"/>
    <glyph glyph-name="g" unicode="g" horiz-adv-x="1110" d="M543 -487q-467 0 -467 294q0 78 42 144t107 104q-92 51 -92 153t109 179q-129 97 -129 283t121 281q122 95 319 96q100 0 178 -25h373v-133h-195q80 -90 80 -219q0 -186 -120 -278t-318 -91q-98 0 -172 29q-41 -40 -41 -102t68 -81h385q113 -14 187 -85t73 -197 q-1 -174 -143 -263t-365 -89zM553 -350q125 0 209 45t84 141q0 70 -40 112t-101 52h-332q-90 -70 -90 -174q0 -176 270 -176zM551 428q102 0 163 60q60 60 60 186t-60 183q-60 58 -160 58t-164 -60t-64 -184t61 -184q62 -59 164 -59z"/>
    <glyph glyph-name="h" unicode="h" horiz-adv-x="1107" d="M977 0h-225v702q0 63 -7 86q-29 104 -204 105q-111 0 -181 -12v-881h-223v1485h223v-484q131 35 283 35q256 0 315 -174q18 -53 19 -141v-721z"/>
    <glyph glyph-name="i" unicode="i" horiz-adv-x="499" d="M250 1268q-72 0 -100 26t-29 90q0 66 27 92q28 26 102 26t102 -26t27 -92t-29 -90q-28 -26 -100 -26zM360 0h-223v1022h223v-1022z"/>
    <glyph glyph-name="j" unicode="j" horiz-adv-x="499" d="M250 1268q-72 0 -100 26t-29 90q0 66 29 92q30 26 102 26t100 -26t27 -92t-29 -90q-28 -26 -100 -26zM139 -467v1489h223v-911q0 -240 -92 -578h-131z"/>
    <glyph glyph-name="k" unicode="k" horiz-adv-x="1054" d="M362 469v-469h-225v1485h225v-879h91l344 416h243l-397 -467l434 -555h-266l-358 469h-91z"/>
    <glyph glyph-name="l" unicode="l" horiz-adv-x="497" d="M360 0h-223v1485h223v-1485z"/>
    <glyph glyph-name="m" unicode="m" horiz-adv-x="1630" d="M1497 0h-219v694q0 70 -8 94q-33 104 -180 105q-92 0 -179 -35q18 -53 19 -151v-707h-217v700q0 57 -8 91q-27 104 -173 104q-100 0 -174 -23v-872h-221v1022h195l8 -43q133 59 286 59t234 -71q143 70 305 69q258 0 316 -182q16 -49 16 -147v-707z"/>
    <glyph glyph-name="n" unicode="n" horiz-adv-x="1110" d="M977 0h-223v702q0 59 -9 86q-29 104 -194 105q-109 0 -189 -23v-870h-225v1022h197l10 -39q131 53 303 53q258 0 314 -174q16 -55 16 -141v-721z"/>
    <glyph glyph-name="o" unicode="o" horiz-adv-x="1142" d="M571 -25q-225 0 -352 120t-127 411q0 541 483 541q221 0 349 -119t127 -410q-1 -543 -480 -543zM574 119q116 0 178 87q61 87 61 304t-62 306q-61 89 -179 89t-179 -88t-61 -304t63 -305t179 -89z"/>
    <glyph glyph-name="p" unicode="p" horiz-adv-x="1130" d="M360 -467h-223v1489h195l12 -39q115 51 291 51t290 -124t113 -367q0 -344 -239 -480q-121 -68 -303 -67q-90 0 -136 6v-469zM360 133h84q352 0 353 399q0 362 -291 363q-72 0 -146 -16v-746z"/>
    <glyph glyph-name="q" unicode="q" horiz-adv-x="1130" d="M92 479q0 547 643 547q207 0 256 -4v-1489h-219v475q-88 -27 -219 -26q-201 0 -331 127t-130 370zM772 893h-82q-354 0 -354 -395q0 -203 84 -287t207 -84q86 0 145 14v752z"/>
    <glyph glyph-name="r" unicode="r" horiz-adv-x="718" d="M362 0h-225v1022h176l13 -102q162 127 317 127q61 0 70 -3v-155h-37q-90 0 -157 -25t-157 -86v-778z"/>
    <glyph glyph-name="s" unicode="s" horiz-adv-x="907" d="M102 137h281q223 0 223 113q0 43 -34 75t-113 74q-88 39 -160 78q-119 59 -169 119t-50 156q0 285 442 284q129 0 250 -16v-131h-264q-209 0 -209 -105q0 -42 33 -72t108 -69q139 -66 162 -78q119 -59 171 -125t52 -164q0 -293 -454 -292q-191 -1 -269 22v131z"/>
    <glyph glyph-name="t" unicode="t" horiz-adv-x="755" d="M735 133v-121q-98 -28 -255 -28q-158 0 -232 70t-74 259v576h-143v133h143v158l223 73v-231h328v-133h-328v-555q0 -123 43 -162t135 -39h160z"/>
    <glyph glyph-name="u" unicode="u" horiz-adv-x="1110" d="M971 0h-191l-12 47q-139 -66 -289 -65q-268 0 -329 188q-18 61 -19 166v686h223v-684q0 -74 13 -105q31 -102 198 -102q102 0 183 27v864h223v-1022z"/>
    <glyph glyph-name="v" unicode="v" horiz-adv-x="1001" d="M684 0h-354l-307 1022h237l250 -885h16l238 885h215z"/>
    <glyph glyph-name="w" unicode="w" horiz-adv-x="1658" d="M1364 0h-322l-208 889h-13l-200 -889h-330l-250 1022h227l193 -885h16l205 885h309l209 -885h17l190 885h211z"/>
    <glyph glyph-name="x" unicode="x" horiz-adv-x="985" d="M975 0h-242l-252 408l-248 -408h-223l340 528l-321 494h243l230 -385l227 385h221l-315 -494z"/>
    <glyph glyph-name="y" unicode="y" horiz-adv-x="997" d="M528 -467h-204l151 467h-133l-322 1022h226l260 -885h18l234 885h225z"/>
    <glyph glyph-name="z" unicode="z" horiz-adv-x="933" d="M868 0h-800v127l518 762h-494v133h762v-125l-520 -760h534v-137z"/>
    <glyph glyph-name="braceleft" unicode="{" horiz-adv-x="802" d="M66 426v172q209 0 208 250v237q0 115 9 156q29 133 126 189t279 57q47 0 57 -2v-137q-129 0 -197 -48t-67 -184v-246q0 -287 -221 -350v-12q221 -47 221 -324v-282q0 -136 68 -184t196 -48v-137q-10 -2 -57 -2q-182 0 -279 56t-126 190q-8 41 -9 155v273q0 115 -50 168 t-158 53z"/>
    <glyph glyph-name="bar" unicode="|" horiz-adv-x="585" d="M371 -467h-156v1952h156v-1952z"/>
    <glyph glyph-name="braceright" unicode="}" horiz-adv-x="802" d="M737 426q-209 0 -209 -250v-244q0 -115 -8 -155q-29 -133 -127 -189t-280 -57q-47 0 -56 2v137q129 0 196 48t66 184v252q0 287 222 350v12q-221 47 -222 324v276q0 135 -66 183q-67 48 -196 49v137q8 2 56 2q182 0 280 -57t127 -189q8 -41 8 -156v-266q0 -115 50 -168 t159 -53v-172z"/>
    <glyph glyph-name="asciitilde" unicode="~" horiz-adv-x="1296" d="M422 479q-141 0 -277 -88v168q41 43 122 76t183 33t242 -68q108 -49 220 -49t237 74v-166q-100 -96 -289 -97q-96 0 -220 58t-218 59z"/>
    <glyph glyph-name="uni00A0" unicode=" " horiz-adv-x="512"/>
    <glyph glyph-name="exclamdown" unicode="¡" horiz-adv-x="497" d="M383 912q0 -72 -30 -98q-29 -26 -105 -26t-106 27t-30 97t29 99q29 27 107 27t106 -28t29 -98zM381 -467h-268l45 1038h180z"/>
    <glyph glyph-name="cent" unicode="¢" horiz-adv-x="933" d="M303 512q0 -302 246 -362v727q-246 -63 -246 -365zM662 -170h-113v162q-186 16 -311 119q-146 118 -146 385q0 311 223 454q96 59 234 78v166h113v-160q102 0 172 -10v-137h-172v-750h194v-125q-84 -18 -194 -20v-162z"/>
    <glyph glyph-name="sterling" unicode="£" d="M1053 0h-934v137q162 33 162 264v215h-166v140h166v180q0 66 12 139q66 322 475 322q125 0 236 -15v-129h-211q-291 0 -291 -286v-211h401v-140h-401v-188q0 -215 -125 -291h676v-137z"/>
    <glyph glyph-name="currency" unicode="¤" horiz-adv-x="1138" d="M842 512q0 114 -80 192t-194 78t-194 -79t-79 -193q-1 -114 79 -192q80 -80 194 -80t194 80t80 194zM989 511q0 -130 -76 -239l160 -159l-104 -105l-160 160q-111 -78 -241 -78t-238 76l-162 -160l-105 105l162 159q-78 111 -78 241t78 241l-162 159l105 105l162 -162 q104 76 238 76t241 -76l160 160l104 -105l-160 -159q76 -109 76 -239z"/>
    <glyph glyph-name="yen" unicode="¥" d="M696 0h-225v299h-358v115h358v96l-33 80h-325v115h272l-336 675h236l256 -561l43 -114h14l41 114l250 561h209l-322 -675h266v-115h-317l-31 -80v-96h348v-115h-346v-299z"/>
    <glyph glyph-name="brokenbar" unicode="¦" horiz-adv-x="585" d="M371 836h-156v649h156v-649zM371 -467h-156v651h156v-651z"/>
    <glyph glyph-name="section" unicode="§" horiz-adv-x="1148" d="M328 574q0 -74 52 -124t146 -100l146 -71q150 43 149 184q0 126 -152 208t-175 89q-78 -16 -122 -64t-44 -122zM170 -336h283q336 0 335 189q0 75 -46 123t-110 82t-134 66q-68 32 -97 46q-152 78 -215 159t-63 197q0 211 219 308q-109 63 -159 136q-50 74 -50 190 t78 200q77 84 191 115t280 31t258 -15v-129h-270q-315 0 -316 -172q0 -78 54 -127t126 -82q70 -33 216 -107t212 -156q65 -82 64 -200q0 -211 -207 -313q101 -63 151 -135t50 -190t-78 -204q-78 -88 -199 -122t-287 -35q-166 0 -286 14v131z"/>
    <glyph glyph-name="dieresis" unicode="¨" horiz-adv-x="933" d="M647 1264q-67 0 -91 24t-24 85q0 62 25 86t91 24t90 -24t24 -86q0 -61 -24 -85t-91 -24zM285 1264q-67 0 -91 24t-24 85q0 62 25 86t91 24t90 -24t24 -86q0 -61 -25 -85q-24 -24 -90 -24z"/>
    <glyph glyph-name="copyright" unicode="©" horiz-adv-x="1740" d="M1073 424v-105q-66 -18 -159 -18q-94 -1 -160 19q-261 77 -258 366q0 193 116 297q117 104 322 104q74 0 123 -6v-116h-94q-276 0 -277 -273q0 -161 102 -221q82 -47 189 -47h96zM870 53q276 0 455 176q178 176 178 461t-178 461q-179 176 -455 176t-455 -176t-179 -461 t179 -461t455 -176zM870 -84q-340 0 -562 213t-222 560t222 560t561 213t561 -213t223 -560t-221 -560t-562 -213z"/>
    <glyph glyph-name="ordfeminine" unicode="ª" horiz-adv-x="864" d="M731 616h-153l-7 33q-113 -43 -221 -43t-170 58t-61 166q0 108 51 182q139 45 387 80v45q0 87 -43 113t-125 26h-213v90q115 27 216 27q100 -1 146 -9t94 -30q101 -47 99 -201v-537zM293 844q-1 -129 145 -129q44 0 119 18v260q-168 -27 -244 -53q-20 -39 -20 -96z"/>
    <glyph glyph-name="guillemotleft" unicode="«" horiz-adv-x="1110" d="M1008 0h-146l-340 510l340 512h146l-277 -512zM598 0h-145l-340 510l340 512h145l-276 -512z"/>
    <glyph glyph-name="logicalnot" unicode="¬" horiz-adv-x="1247" d="M82 590h1053v-484h-172v345h-881v139z"/>
    <glyph glyph-name="uni00AD" unicode="­" horiz-adv-x="737" d="M645 442h-553v158h553v-158z"/>
    <glyph glyph-name="registered" unicode="®" horiz-adv-x="897" d="M393 1102v-146h-84v365h123q162 0 162 -107q0 -76 -72 -100l96 -158h-94l-80 146h-51zM393 1145h35q76 0 76 67q0 61 -84 62h-27v-129zM166 1139q0 -131 78 -211t203 -80q126 0 204 80t78 211t-78 209t-204 78q-125 0 -203 -78t-78 -209zM447 770q-161 0 -267 102 t-106 266t106 265q106 100 267 100t267 -100t105 -265q0 -165 -105 -267q-106 -101 -267 -101z"/>
    <glyph glyph-name="macron" unicode="¯" horiz-adv-x="978" d="M889 1280h-801v139h801v-139z"/>
    <glyph glyph-name="degree" unicode="°" horiz-adv-x="811" d="M407 1061q75 0 123 48t50 123q0 75 -50 124t-124 49t-124 -49t-50 -124t50 -123t125 -48zM698 1231q0 -127 -84 -207t-208 -80q-125 0 -210 80t-85 208t85 207t211 79q127 0 209 -80t82 -207z"/>
    <glyph glyph-name="plusminus" unicode="±" horiz-adv-x="1187" d="M670 270h-156v402h-391v147h391v395h156v-395h395v-147h-395v-402zM1061 0h-936v137h936v-137z"/>
    <glyph glyph-name="twosuperior" unicode="²" horiz-adv-x="786" d="M664 616h-537v91q88 80 256 270q96 104 96 184q0 115 -157 115h-189v92q123 25 243 25q120 1 200 -53t79 -162q1 -46 -21 -96t-41 -76t-54 -65q-35 -40 -112 -119t-99 -95h336v-111z"/>
    <glyph glyph-name="threesuperior" unicode="³" horiz-adv-x="786" d="M137 721h131q201 0 201 125q0 111 -225 115v102q86 8 145 43t60 86q0 84 -148 84h-158v92q98 23 207 23q279 0 279 -174q0 -111 -148 -179q168 -49 168 -188q0 -121 -100 -181t-223 -60t-189 16v96z"/>
    <glyph glyph-name="acute" unicode="´" horiz-adv-x="647" d="M262 1180h-180l254 370h229z"/>
    <glyph glyph-name="mu" unicode="µ" horiz-adv-x="1116" d="M344 -467h-211v1489h219v-680q0 -78 10 -106q31 -100 207 -101q111 0 185 25v862h223v-1022h-178l-11 45q-115 -61 -254 -61t-190 51v-502z"/>
    <glyph glyph-name="paragraph" unicode="¶" horiz-adv-x="1200" d="M1026 -467h-131v1837h-199v-1837h-131v1096q-145 4 -229 28q-285 86 -285 402t303 422q92 33 291 32h381v-1980z"/>
    <glyph glyph-name="periodcentered" unicode="·" horiz-adv-x="573" d="M426 518q0 -78 -30 -108t-109 -29q-80 0 -111 30q-31 29 -31 107t31 107t111 29q79 0 109 -30q30 -28 30 -106z"/>
    <glyph glyph-name="cedilla" unicode="¸" horiz-adv-x="552" d="M88 -393h74q154 0 153 88q1 41 -31 63t-70 25q-38 4 -108 4l54 256h125l-33 -168q221 -8 221 -170q0 -96 -75 -143t-166 -47t-144 12v80z"/>
    <glyph glyph-name="onesuperior" unicode="¹" horiz-adv-x="786" d="M684 616h-551v111h201v530l-199 -69v110l242 82h129v-653h178v-111z"/>
    <glyph glyph-name="ordmasculine" unicode="º" horiz-adv-x="919" d="M807 1006q0 -208 -95 -306t-253 -98t-252 93t-94 300t96 304t253 97t251 -91q94 -92 94 -299zM461 715q166 1 166 287t-166 286t-166 -286t166 -287z"/>
    <glyph glyph-name="guillemotright" unicode="»" horiz-adv-x="1110" d="M252 0h-146l277 510l-277 512h146l340 -512zM662 0h-146l277 510l-277 512h146l339 -512z"/>
    <glyph glyph-name="onequarter" unicode="¼" horiz-adv-x="1792" d="M1583 0h-166v152h-377v122l303 490h240v-506h129v-106h-129v-152zM1417 256v293l8 115h-18l-47 -109l-191 -299h248zM694 616h-553v111h203v530l-201 -69v110l242 82h131v-653h178v-111zM508 0h-170l1026 1380h172z"/>
    <glyph glyph-name="onehalf" unicode="½" horiz-adv-x="1792" d="M694 616h-553v111h203v530l-201 -69v110l242 82h131v-653h178v-111zM1708 0h-547v90q88 80 256 270q94 102 94 185q0 115 -155 114h-168v93q122 24 232 24t191 -53t81 -162q0 -47 -20 -95t-43 -76q-22 -28 -117 -133t-148 -146h344v-111zM502 0h-168l1026 1380h172z"/>
    <glyph glyph-name="threequarters" unicode="¾" horiz-adv-x="1792" d="M236 721h129q203 0 202 125q0 109 -225 117v100q86 8 145 43t60 86q0 84 -148 84h-159v94q129 23 209 23q276 0 276 -176q0 -111 -145 -177q168 -49 168 -190q0 -121 -100 -180t-222 -59t-190 14v96zM1591 0h-166v152h-376v122l303 490h239v-506h127v-106h-127v-152z M1425 256v293l9 115h-19l-47 -109l-190 -299h247zM516 0h-170l1026 1380h172z"/>
    <glyph glyph-name="questiondown" unicode="¿" horiz-adv-x="757" d="M480 788q-76 0 -106 27t-30 97t29 99q29 27 107 27t107 -28t29 -98q0 -72 -30 -98t-106 -26zM692 -324v-129q-106 -27 -271 -27t-271 62q-106 61 -107 201q0 109 115 254q14 19 66 79q72 83 117 144q46 61 46 146v165h195q16 -102 16 -192q0 -141 -94 -262 q-23 -29 -133 -160q-70 -82 -70 -152q0 -69 58 -99t137 -30h196z"/>
    <glyph glyph-name="Agrave" unicode="À" horiz-adv-x="1257" d="M750 1548h-181l-303 371h230zM1231 0h-242l-104 356h-533l-104 -356h-221l422 1380h358zM850 496l-219 745h-25l-219 -745h463z"/>
    <glyph glyph-name="Aacute" unicode="Á" horiz-adv-x="1257" d="M676 1548h-180l254 371h229zM1231 0h-242l-104 356h-533l-104 -356h-221l422 1380h358zM850 496l-219 745h-25l-219 -745h463z"/>
    <glyph glyph-name="Acircumflex" unicode="Â" horiz-adv-x="1257" d="M1016 1548h-166l-227 209l-230 -209h-166l308 350h172zM1231 0h-242l-104 356h-533l-104 -356h-221l422 1380h358zM850 496l-219 745h-25l-219 -745h463z"/>
    <glyph glyph-name="Atilde" unicode="Ã" horiz-adv-x="1257" d="M428 1681q-92 0 -209 -77v135q96 100 256 100q90 0 178 -42q89 -42 175 -42t192 66v-133q-86 -90 -240 -91q-92 0 -176 42t-176 42zM1231 0h-242l-104 356h-533l-104 -356h-221l422 1380h358zM850 496l-219 745h-25l-219 -745h463z"/>
    <glyph glyph-name="Adieresis" unicode="Ä" horiz-adv-x="1257" d="M801 1632q-67 0 -91 24t-24 86t25 86t91 24t90 -24t24 -86t-25 -86q-24 -24 -90 -24zM438 1632q-66 0 -90 24t-24 86t24 86t90 24t90 -24t25 -86q-1 -62 -25 -86t-90 -24zM1231 0h-242l-104 356h-533l-104 -356h-221l422 1380h358zM850 496l-219 745h-25l-219 -745h463z "/>
    <glyph glyph-name="Aring" unicode="Å" horiz-adv-x="1257" d="M854 1726q0 -98 -66 -160t-162 -62t-162 62q-67 62 -67 160t67 160t163 62q95 0 161 -62t66 -160zM745 1726q0 51 -33 86q-34 35 -85 35t-86 -35t-35 -86t35 -86q35 -34 86 -34t85 34q33 35 33 86zM1231 0h-242l-104 356h-533l-104 -356h-221l422 1380h358zM850 496 l-219 745h-25l-219 -745h463z"/>
    <glyph glyph-name="AE" unicode="Æ" horiz-adv-x="1822" d="M862 494l-53 747h-21l-380 -747h454zM1696 0h-801l-25 356h-522l-180 -356h-229l710 1380h1020v-139h-641l37 -455h580v-139h-570l41 -510h580v-137z"/>
    <glyph glyph-name="Ccedilla" unicode="Ç" horiz-adv-x="1161" d="M461 -393h74q154 0 153 88q0 41 -32 63t-70 25q-38 4 -107 4l47 225q-446 119 -446 664q0 197 63 339t175 222q213 152 536 152q129 0 184 -11v-137h-151q-223 0 -380 -107q-85 -58 -133 -173t-48 -279q0 -549 536 -549q135 0 185 6v-133q-210 -40 -400 -14l-22 -117 q221 -8 221 -170q0 -96 -75 -143t-166 -47t-144 12v80z"/>
    <glyph glyph-name="Egrave" unicode="È" horiz-adv-x="1163" d="M739 1548h-180l-303 371h229zM1020 0h-830v1380h826v-139h-600v-453h563v-139h-563v-512h604v-137z"/>
    <glyph glyph-name="Eacute" unicode="É" horiz-adv-x="1163" d="M664 1548h-181l254 371h230zM1020 0h-830v1380h826v-139h-600v-453h563v-139h-563v-512h604v-137z"/>
    <glyph glyph-name="Ecircumflex" unicode="Ê" horiz-adv-x="1163" d="M993 1548h-166l-227 209l-229 -209h-166l307 350h172zM1020 0h-830v1380h826v-139h-600v-453h563v-139h-563v-512h604v-137z"/>
    <glyph glyph-name="Edieresis" unicode="Ë" horiz-adv-x="1163" d="M786 1632q-66 0 -90 24t-24 86t24 86t90 24t91 -24t25 -86t-26 -86q-24 -24 -90 -24zM424 1632q-66 0 -90 24t-25 86q0 62 25 86q24 24 90 24t90 -24t25 -86q-1 -62 -25 -86t-90 -24zM1020 0h-830v1380h826v-139h-600v-453h563v-139h-563v-512h604v-137z"/>
    <glyph glyph-name="Igrave" unicode="Ì" horiz-adv-x="606" d="M418 1548h-180l-304 371h230zM416 0h-226v1380h226v-1380z"/>
    <glyph glyph-name="Iacute" unicode="Í" horiz-adv-x="606" d="M369 1548h-181l254 371h230zM416 0h-226v1380h226v-1380z"/>
    <glyph glyph-name="Icircumflex" unicode="Î" horiz-adv-x="606" d="M700 1548h-165l-228 209l-229 -209h-166l307 350h172zM416 0h-226v1380h226v-1380z"/>
    <glyph glyph-name="Idieresis" unicode="Ï" horiz-adv-x="606" d="M485 1632q-67 0 -91 24t-24 86t25 86t91 24t90 -24t24 -86t-24 -86t-91 -24zM123 1632q-67 0 -91 24t-24 86t25 86t91 24t90 -24t24 -86t-24 -86t-91 -24zM416 0h-226v1380h226v-1380z"/>
    <glyph glyph-name="Eth" unicode="Ð" horiz-adv-x="1449" d="M465 137h133q217 0 357 105q159 118 159 440q0 323 -140 448q-112 100 -286 109q-39 2 -94 2h-129v-453h217v-137h-217v-514zM582 0h-342v651h-205v137h205v592h329q162 0 258 -14q522 -72 523 -653q0 -713 -768 -713z"/>
    <glyph glyph-name="Ntilde" unicode="Ñ" horiz-adv-x="1447" d="M531 1681q-91 0 -209 -77v135q96 100 256 100q90 0 178 -42t153 -42q107 0 213 66v-133q-86 -90 -239 -91q-93 0 -177 42t-175 42zM1276 0h-356l-377 819l-158 422h-20l16 -455v-786h-188v1380h360l379 -827l153 -418h23l-18 451v794h186v-1380z"/>
    <glyph glyph-name="Ograve" unicode="Ò" horiz-adv-x="1394" d="M811 1548h-180l-303 371h229zM693 -27q-275 0 -439 169t-164 539t169 546t437 176t436 -163q169 -163 170 -539q2 -376 -166 -552t-443 -176zM698 121q358 0 359 569q0 281 -94 424q-95 143 -267 143t-266 -141t-94 -427t94 -427t268 -141z"/>
    <glyph glyph-name="Oacute" unicode="Ó" horiz-adv-x="1394" d="M739 1548h-180l254 371h229zM693 -27q-275 0 -439 169t-164 539t169 546t437 176t436 -163q169 -163 170 -539q2 -376 -166 -552t-443 -176zM698 121q358 0 359 569q0 281 -94 424q-95 143 -267 143t-266 -141t-94 -427t94 -427t268 -141z"/>
    <glyph glyph-name="Ocircumflex" unicode="Ô" horiz-adv-x="1394" d="M1092 1548h-166l-228 209l-229 -209h-166l307 350h172zM693 -27q-275 0 -439 169t-164 539t169 546t437 176t436 -163q169 -163 170 -539q2 -376 -166 -552t-443 -176zM698 121q358 0 359 569q0 281 -94 424q-95 143 -267 143t-266 -141t-94 -427t94 -427t268 -141z"/>
    <glyph glyph-name="Otilde" unicode="Õ" horiz-adv-x="1394" d="M504 1681q-92 0 -209 -77v135q96 100 256 100q90 0 178 -42q89 -42 175 -42t192 66v-133q-86 -90 -240 -91q-92 0 -176 42t-176 42zM693 -27q-275 0 -439 169t-164 539t169 546t437 176t436 -163q169 -163 170 -539q2 -376 -166 -552t-443 -176zM698 121q358 0 359 569 q0 281 -94 424q-95 143 -267 143t-266 -141t-94 -427t94 -427t268 -141z"/>
    <glyph glyph-name="Odieresis" unicode="Ö" horiz-adv-x="1394" d="M877 1632q-66 0 -91 24q-24 24 -24 86t24 86q25 24 91 24q67 0 91 -24t24 -86t-25 -86q-24 -24 -90 -24zM514 1632q-66 0 -90 24t-25 86q0 62 25 86q24 24 90 24t90 -24t25 -86q-1 -62 -25 -86t-90 -24zM693 -27q-275 0 -439 169t-164 539t169 546t437 176t436 -163 q169 -163 170 -539q2 -376 -166 -552t-443 -176zM698 121q358 0 359 569q0 281 -94 424q-95 143 -267 143t-266 -141t-94 -427t94 -427t268 -141z"/>
    <glyph glyph-name="multiply" unicode="×" horiz-adv-x="1187" d="M907 92l-315 318l-313 -318l-103 105l316 313l-316 313l103 103l313 -316l315 316l103 -103l-318 -313l318 -313z"/>
    <glyph glyph-name="Oslash" unicode="Ø" horiz-adv-x="1413" d="M709 121q362 0 362 569q0 275 -102 412l-455 -922q82 -59 195 -59zM709 1257q-177 0 -271 -141q-94 -140 -94 -420t100 -415l455 919q-74 57 -190 57zM100 684q0 367 169 543t442 176q145 0 258 -47l96 192h117l-119 -241q250 -168 250 -611q0 -370 -167 -546t-441 -177 q-143 0 -265 50l-92 -191h-119l117 240q-246 168 -246 612z"/>
    <glyph glyph-name="Ugrave" unicode="Ù" horiz-adv-x="1357" d="M827 1548h-180l-303 371h229zM985 453v927h209v-882q0 -144 -43 -248t-118 -162q-145 -111 -367 -111q-221 0 -362 118q-140 118 -140 382v903h225v-931q0 -326 295 -326q137 0 219 78t82 252z"/>
    <glyph glyph-name="Uacute" unicode="Ú" horiz-adv-x="1357" d="M709 1548h-181l254 371h230zM985 453v927h209v-882q0 -144 -43 -248t-118 -162q-145 -111 -367 -111q-221 0 -362 118q-140 118 -140 382v903h225v-931q0 -326 295 -326q137 0 219 78t82 252z"/>
    <glyph glyph-name="Ucircumflex" unicode="Û" horiz-adv-x="1357" d="M1075 1548h-166l-227 209l-229 -209h-166l307 350h172zM985 453v927h209v-882q0 -144 -43 -248t-118 -162q-145 -111 -367 -111q-221 0 -362 118q-140 118 -140 382v903h225v-931q0 -326 295 -326q137 0 219 78t82 252z"/>
    <glyph glyph-name="Udieresis" unicode="Ü" horiz-adv-x="1359" d="M864 1632q-66 0 -90 24t-24 86t24 86t90 24t90 -24t25 -86q-1 -62 -25 -86t-90 -24zM502 1632q-66 0 -90 24t-25 86q0 62 25 86q24 24 90 24t90 -24t24 -86t-24 -86t-90 -24zM983 453v927h209v-882q0 -144 -43 -248t-118 -162q-145 -111 -367 -111q-221 0 -362 118 q-140 118 -140 382v903h225v-931q0 -326 295 -326q137 0 219 78t82 252z"/>
    <glyph glyph-name="Yacute" unicode="Ý" horiz-adv-x="1136" d="M592 1548h-180l254 371h229zM692 0h-237v547l-426 833h256l252 -536l45 -113h12l41 113l248 536h221l-412 -833v-547z"/>
    <glyph glyph-name="Thorn" unicode="Þ" horiz-adv-x="1200" d="M416 467h168q307 0 307 293q0 111 -53 172t-138 80q-39 10 -125 10h-159v-555zM416 0h-226v1380h226v-219h153q193 0 291 -28q262 -78 262 -376t-280 -399q-90 -33 -271 -32l-155 2v-328z"/>
    <glyph glyph-name="germandbls" unicode="ß" horiz-adv-x="1226" d="M553 137h231q63 0 105 32q41 31 41 95t-84 129q-10 8 -150 111q-150 117 -149 237q0 76 42 131t212 175q53 40 65 72t13 61q0 88 -76 135t-168 47t-167 -39t-99 -129q-8 -33 -9 -96v-1098h-223v1059q0 92 15 155q39 148 173 218t304 70t303 -64q70 -32 110 -96t41 -140 q0 -76 -20 -113t-37 -62q-22 -33 -176 -141q-90 -64 -90 -118q0 -32 22 -56t74 -65l148 -108q141 -111 141 -255t-95 -219t-255 -75t-242 12v135z"/>
    <glyph glyph-name="agrave" unicode="à" horiz-adv-x="1044" d="M707 1180h-181l-303 370h230zM911 0h-200l-9 41q-158 -55 -303 -55t-227 74t-82 222q0 146 70 242q203 59 526 109v65q0 117 -60 154t-175 37h-289v119q168 32 298 32t191 -11q169 -30 226 -140q35 -68 34 -170v-719zM313 294q-1 -81 53 -124t138 -43t182 20v359 q-252 -49 -344 -78q-29 -53 -29 -134z"/>
    <glyph glyph-name="aacute" unicode="á" horiz-adv-x="1044" d="M557 1180h-180l254 370h229zM911 0h-200l-9 41q-158 -55 -303 -55t-227 74t-82 222q0 146 70 242q203 59 526 109v65q0 117 -60 154t-175 37h-289v119q168 32 298 32t191 -11q169 -30 226 -140q35 -68 34 -170v-719zM313 294q-1 -81 53 -124t138 -43t182 20v359 q-252 -49 -344 -78q-29 -53 -29 -134z"/>
    <glyph glyph-name="acircumflex" unicode="â" horiz-adv-x="1044" d="M924 1180h-166l-228 209l-229 -209h-166l307 350h172zM911 0h-200l-9 41q-158 -55 -303 -55t-227 74t-82 222q0 146 70 242q203 59 526 109v65q0 117 -60 154t-175 37h-289v119q168 32 298 32t191 -11q169 -30 226 -140q35 -68 34 -170v-719zM313 294q-1 -81 53 -124 t138 -43t182 20v359q-252 -49 -344 -78q-29 -53 -29 -134z"/>
    <glyph glyph-name="atilde" unicode="ã" horiz-adv-x="1044" d="M690 1229q-92 0 -176 42t-176 42t-209 -78v135q96 100 256 100q90 0 178 -42q89 -42 175 -42t192 66v-133q-86 -90 -240 -90zM911 0h-200l-9 41q-158 -55 -303 -55t-227 74t-82 222q0 146 70 242q203 59 526 109v65q0 117 -60 154t-175 37h-289v119q168 32 298 32 t191 -11q169 -30 226 -140q35 -68 34 -170v-719zM313 294q-1 -81 53 -124t138 -43t182 20v359q-252 -49 -344 -78q-29 -53 -29 -134z"/>
    <glyph glyph-name="adieresis" unicode="ä" horiz-adv-x="1044" d="M707 1264q-66 0 -91 24q-24 24 -24 85q0 62 24 86q25 24 91 24q67 0 91 -24t24 -86q0 -61 -25 -85q-24 -24 -90 -24zM344 1264q-66 0 -90 24t-25 85q0 62 25 86q24 24 90 24t90 -24t25 -86q-1 -61 -25 -85t-90 -24zM911 0h-200l-9 41q-158 -55 -303 -55t-227 74t-82 222 q0 146 70 242q203 59 526 109v65q0 117 -60 154t-175 37h-289v119q168 32 298 32t191 -11q169 -30 226 -140q35 -68 34 -170v-719zM313 294q-1 -81 53 -124t138 -43t182 20v359q-252 -49 -344 -78q-29 -53 -29 -134z"/>
    <glyph glyph-name="aring" unicode="å" horiz-adv-x="1044" d="M760 1378q0 -98 -66 -160t-162 -62t-162 62t-67 160q0 98 67 160q66 62 162 61q96 1 162 -61t66 -160zM651 1378q0 51 -34 86t-85 35t-86 -35q-34 -35 -34 -86t34 -86t86 -35q51 0 85 35t34 86zM911 0h-200l-9 41q-158 -55 -303 -55t-227 74t-82 222q0 146 70 242 q203 59 526 109v65q0 117 -60 154t-175 37h-289v119q168 32 298 32t191 -11q169 -30 226 -140q35 -68 34 -170v-719zM313 294q-1 -81 53 -124t138 -43t182 20v359q-252 -49 -344 -78q-29 -53 -29 -134z"/>
    <glyph glyph-name="ae" unicode="æ" horiz-adv-x="1648" d="M307 300q-1 -79 59 -126t166 -47t207 41q-43 84 -47 309q-258 -18 -362 -53q-23 -45 -23 -124zM1518 137v-119q-162 -38 -378 -38t-323 92q-162 -88 -345 -88t-283 79q-99 80 -99 234t62 231q182 61 538 80v90q0 115 -64 151q-65 36 -182 36h-284v121q221 37 342 36 q254 0 334 -129q109 131 309 131q410 0 409 -426q0 -61 -8 -143h-637v-55q0 -176 76 -230t240 -53h293zM1335 676q0 223 -194 223q-228 0 -234 -289h426q2 10 2 66z"/>
    <glyph glyph-name="ccedilla" unicode="ç" horiz-adv-x="925" d="M342 -393h74q154 0 153 88q1 41 -31 63t-70 25q-38 4 -108 4l48 225q-322 94 -322 486q0 322 223 454q137 80 361 80q86 0 157 -10v-133h-129q-377 0 -376 -385q0 -367 397 -367h127v-125q-86 -25 -238 -24q-27 0 -80 4l-22 -117q221 -8 221 -170q0 -96 -75 -143 t-166 -47t-144 12v80z"/>
    <glyph glyph-name="egrave" unicode="è" horiz-adv-x="1064" d="M719 1180h-180l-303 370h229zM940 137v-119q-166 -39 -334 -38q-254 0 -385 120t-131 414q0 293 137 412q137 120 332 118q416 0 416 -428q0 -78 -8 -147h-645v-37q0 -172 90 -233t247 -62h281zM754 604v66q0 238 -199 237q-229 0 -236 -303h435z"/>
    <glyph glyph-name="eacute" unicode="é" horiz-adv-x="1064" d="M596 1180h-180l254 370h229zM940 137v-119q-166 -39 -334 -38q-254 0 -385 120t-131 414q0 293 137 412q137 120 332 118q416 0 416 -428q0 -78 -8 -147h-645v-37q0 -172 90 -233t247 -62h281zM754 604v66q0 238 -199 237q-229 0 -236 -303h435z"/>
    <glyph glyph-name="ecircumflex" unicode="ê" horiz-adv-x="1064" d="M946 1180h-166l-227 209l-229 -209h-166l307 350h172zM940 137v-119q-166 -39 -334 -38q-254 0 -385 120t-131 414q0 293 137 412q137 120 332 118q416 0 416 -428q0 -78 -8 -147h-645v-37q0 -172 90 -233t247 -62h281zM754 604v66q0 238 -199 237q-229 0 -236 -303h435z "/>
    <glyph glyph-name="edieresis" unicode="ë" horiz-adv-x="1064" d="M737 1264q-67 0 -91 24t-24 85q0 62 25 86t91 24t90 -24t24 -86q0 -61 -24 -85t-91 -24zM375 1264q-67 0 -91 24t-24 85q0 62 25 86t91 24t90 -24t24 -86q0 -61 -25 -85q-24 -24 -90 -24zM940 137v-119q-166 -39 -334 -38q-254 0 -385 120t-131 414q0 293 137 412 q137 120 332 118q416 0 416 -428q0 -78 -8 -147h-645v-37q0 -172 90 -233t247 -62h281zM754 604v66q0 238 -199 237q-229 0 -236 -303h435z"/>
    <glyph glyph-name="igrave" unicode="ì" horiz-adv-x="499" d="M360 0h-223v1022h223v-1022zM354 1180h-182l-303 370h231z"/>
    <glyph glyph-name="iacute" unicode="í" horiz-adv-x="499" d="M360 0h-223v1022h223v-1022zM326 1180h-183l254 370h232z"/>
    <glyph glyph-name="icircumflex" unicode="î" horiz-adv-x="499" d="M360 0h-223v1022h223v-1022zM645 1180h-166l-227 209l-229 -209h-166l307 350h172z"/>
    <glyph glyph-name="idieresis" unicode="ï" horiz-adv-x="499" d="M360 0h-223v1022h223v-1022zM432 1483q66 0 90 -24t23 -86q0 -61 -25 -85q-26 -24 -90 -24t-90 24t-25 85q0 62 25 86q26 24 92 24zM68 1264q-64 0 -90 24t-26 85q0 62 25 86t92 24t91 -24t22 -86q0 -62 -24 -86q-26 -23 -90 -23z"/>
    <glyph glyph-name="eth" unicode="ð" horiz-adv-x="1142" d="M571 117q242 0 242 394t-240 394q-117 0 -180 -90t-63 -305q-1 -393 241 -393zM1053 565q0 -301 -131 -446q-130 -145 -348 -145t-351 126q-133 128 -133 400t130 407t343 135q139 0 207 -86q-55 160 -168 283l-254 -131l-69 94l233 121q-82 66 -178 113l139 84 q111 -57 191 -119l247 129l70 -94l-223 -117q295 -285 295 -754z"/>
    <glyph glyph-name="ntilde" unicode="ñ" horiz-adv-x="1134" d="M725 1229q-92 0 -176 42q-83 42 -175 42t-210 -78v135q96 100 256 100q90 0 178 -42t174 -42t193 66v-133q-86 -90 -240 -90zM983 0h-223v702q0 59 -8 86q-29 104 -195 105q-109 0 -188 -23v-870h-226v1022h197l10 -39q131 53 303 53q258 0 314 -174q16 -55 16 -141v-721 z"/>
    <glyph glyph-name="ograve" unicode="ò" horiz-adv-x="1142" d="M719 1180h-180l-303 370h229zM571 -25q-225 0 -352 120t-127 411q0 541 483 541q221 0 349 -119t127 -410q-1 -543 -480 -543zM574 119q116 0 178 87q61 87 61 304t-62 306q-61 89 -179 89t-179 -88t-61 -304t63 -305t179 -89z"/>
    <glyph glyph-name="oacute" unicode="ó" horiz-adv-x="1142" d="M614 1180h-180l254 370h230zM571 -25q-225 0 -352 120t-127 411q0 541 483 541q221 0 349 -119t127 -410q-1 -543 -480 -543zM574 119q116 0 178 87q61 87 61 304t-62 306q-61 89 -179 89t-179 -88t-61 -304t63 -305t179 -89z"/>
    <glyph glyph-name="ocircumflex" unicode="ô" horiz-adv-x="1142" d="M967 1180h-166l-228 209l-229 -209h-166l307 350h172zM571 -25q-225 0 -352 120t-127 411q0 541 483 541q221 0 349 -119t127 -410q-1 -543 -480 -543zM574 119q116 0 178 87q61 87 61 304t-62 306q-61 89 -179 89t-179 -88t-61 -304t63 -305t179 -89z"/>
    <glyph glyph-name="otilde" unicode="õ" horiz-adv-x="1142" d="M731 1229q-92 0 -176 42q-83 42 -175 42t-210 -78v135q96 100 256 100q90 0 178 -42t174 -42t193 66v-133q-86 -90 -240 -90zM571 -25q-225 0 -352 120t-127 411q0 541 483 541q221 0 349 -119t127 -410q-1 -543 -480 -543zM574 119q116 0 178 87q61 87 61 304t-62 306 q-61 89 -179 89t-179 -88t-61 -304t63 -305t179 -89z"/>
    <glyph glyph-name="odieresis" unicode="ö" horiz-adv-x="1142" d="M758 1264q-66 0 -90 24t-25 85q0 62 25 86q24 24 90 24t90 -24t24 -86q0 -61 -24 -85t-90 -24zM395 1264q-67 0 -91 24t-24 85q0 62 25 86t91 24t90 -24t24 -86q0 -61 -24 -85t-91 -24zM571 -25q-225 0 -352 120t-127 411q0 541 483 541q221 0 349 -119t127 -410 q-1 -543 -480 -543zM574 119q116 0 178 87q61 87 61 304t-62 306q-61 89 -179 89t-179 -88t-61 -304t63 -305t179 -89z"/>
    <glyph glyph-name="divide" unicode="÷" horiz-adv-x="1187" d="M595 735q-73 0 -103 28q-30 29 -31 97t29 96t105 27q75 0 103 -28q28 -27 29 -97t-29 -96t-103 -27zM1055 440h-922v140h922v-140zM595 39q-73 0 -103 28q-30 29 -31 97t29 96t105 27q75 0 103 -28q28 -27 29 -97t-29 -96t-103 -27z"/>
    <glyph glyph-name="oslash" unicode="ø" horiz-adv-x="1144" d="M776 811l-327 -666q49 -29 120 -28q123 0 197 99t74 297t-64 298zM305 509q0 -200 66 -298l327 668q-51 29 -120 28q-123 0 -198 -99t-75 -299zM92 506q0 541 483 541q106 0 187 -29l84 176h119l-107 -215q195 -121 195 -463q0 -541 -484 -541q-106 0 -184 29l-84 -174 h-119l105 215q-195 117 -195 461z"/>
    <glyph glyph-name="ugrave" unicode="ù" horiz-adv-x="1107" d="M709 1180h-181l-303 370h230zM971 0h-191l-12 47q-139 -66 -289 -65q-268 0 -329 188q-18 61 -19 166v686h223v-684q0 -74 13 -105q31 -102 198 -102q102 0 183 27v864h223v-1022z"/>
    <glyph glyph-name="uacute" unicode="ú" horiz-adv-x="1107" d="M575 1180h-180l254 370h230zM971 0h-191l-12 47q-139 -66 -289 -65q-268 0 -329 188q-18 61 -19 166v686h223v-684q0 -74 13 -105q31 -102 198 -102q102 0 183 27v864h223v-1022z"/>
    <glyph glyph-name="ucircumflex" unicode="û" horiz-adv-x="1107" d="M946 1180h-166l-227 209l-229 -209h-166l307 350h172zM971 0h-191l-12 47q-139 -66 -289 -65q-268 0 -329 188q-18 61 -19 166v686h223v-684q0 -74 13 -105q31 -102 198 -102q102 0 183 27v864h223v-1022z"/>
    <glyph glyph-name="udieresis" unicode="ü" horiz-adv-x="1107" d="M733 1264q-67 0 -91 24t-24 85q0 62 25 86t91 24t90 -24t24 -86q0 -61 -24 -85t-91 -24zM371 1264q-67 0 -91 24t-24 85q0 62 25 86t91 24t90 -24t24 -86q0 -61 -25 -85q-24 -24 -90 -24zM971 0h-191l-12 47q-139 -66 -289 -65q-268 0 -329 188q-18 61 -19 166v686h223 v-684q0 -74 13 -105q31 -102 198 -102q102 0 183 27v864h223v-1022z"/>
    <glyph glyph-name="yacute" unicode="ý" horiz-adv-x="1050" d="M563 1180h-180l254 370h229zM551 -467h-205l152 467h-133l-322 1022h225l260 -885h19l233 885h226z"/>
    <glyph glyph-name="thorn" unicode="þ" horiz-adv-x="1130" d="M360 133h84q352 0 353 399q0 362 -293 363q-78 0 -144 -14v-748zM360 -467h-223v1720h203l8 -266q111 47 266 47q193 0 309 -124t115 -367q0 -344 -239 -480q-121 -68 -303 -67q-43 0 -136 6v-469z"/>
    <glyph glyph-name="ydieresis" unicode="ÿ" horiz-adv-x="1050" d="M705 1264q-66 0 -91 24q-24 24 -24 85q0 62 24 86q25 24 91 24q67 0 91 -24t24 -86q0 -61 -25 -85q-24 -24 -90 -24zM342 1264q-66 0 -90 24t-25 85q0 62 25 86q24 24 90 24t90 -24t25 -86q-1 -61 -25 -85t-90 -24zM551 -467h-205l152 467h-133l-322 1022h225l260 -885 h19l233 885h226z"/>
    <glyph glyph-name="dotlessi" unicode="ı" horiz-adv-x="499" d="M360 0h-223v1022h223v-1022z"/>
    <glyph glyph-name="Lslash" unicode="Ł" horiz-adv-x="1007" d="M1010 0h-783v530l-172 -84v148l172 84v702h224v-592l315 158v-149l-315 -156v-504h559v-137z"/>
    <glyph glyph-name="lslash" unicode="ł" horiz-adv-x="667" d="M444 0h-223v535l-172 -89v148l172 88v803h223v-688l174 90v-150l-174 -90v-647z"/>
    <glyph glyph-name="OE" unicode="Œ" horiz-adv-x="2064" d="M1921 0h-840v166q-125 -190 -393 -190t-428 167q-160 168 -160 538t165 547t428 177t388 -191v166h836v-139h-627v-453h590v-139h-590v-512h631v-137zM707 123q344 0 344 569q0 281 -90 423t-256 142q-167 0 -261 -141t-94 -425t94 -426t263 -142z"/>
    <glyph glyph-name="oe" unicode="œ" horiz-adv-x="1775" d="M1464 602v64q0 115 -53 175t-152 60q-99 1 -164 -73t-67 -226h436zM567 119q115 0 177 89t62 303t-60 304q-62 90 -178 90t-178 -89t-62 -303t62 -304t177 -90zM1647 133v-119q-160 -39 -323 -39t-258 42t-153 139q-45 -86 -139 -133t-217 -48q-465 0 -465 531 q0 287 130 415t362 128t340 -183q96 176 346 176q188 0 300 -103t111 -331q0 -94 -8 -143h-645v-39q0 -170 90 -231t248 -62h281z"/>
    <glyph glyph-name="Scaron" unicode="Š" horiz-adv-x="1124" d="M649 1526h-162l-288 370h155l215 -233l213 233h156zM117 1028q0 358 551 363q176 0 286 -17v-133h-292q-315 0 -316 -178q0 -78 51 -126t154 -101l217 -109q129 -68 190 -152t62 -208q0 -381 -567 -381q-184 0 -299 16v133h305q332 0 332 197q1 134 -153 214 q-62 32 -136 68q-74 35 -107 52q-152 74 -215 156t-63 206z"/>
    <glyph glyph-name="scaron" unicode="š" horiz-adv-x="948" d="M555 1178h-162l-289 370h156l215 -233l213 233h156zM129 137h281q223 0 223 113q0 43 -34 75t-114 74q-88 39 -159 78q-119 59 -169 119t-51 156q0 285 443 284q129 0 250 -16v-131h-264q-209 0 -209 -105q0 -42 32 -72t109 -69q139 -66 162 -78q119 -59 171 -125 t52 -164q0 -293 -455 -292q-188 -1 -268 22v131z"/>
    <glyph glyph-name="Ydieresis" unicode="Ÿ" horiz-adv-x="1136" d="M760 1632q-66 0 -90 24t-25 86q0 62 25 86q24 24 90 24t90 -24t24 -86t-24 -86t-90 -24zM397 1632q-67 0 -91 24t-24 86t25 86t91 24t90 -24t24 -86t-24 -86t-91 -24zM692 0h-237v547l-426 833h256l252 -536l45 -113h12l41 113l248 536h221l-412 -833v-547z"/>
    <glyph glyph-name="Zcaron" unicode="Ž" horiz-adv-x="1114" d="M653 1546h-161l-289 371h155l215 -234l213 234h156zM1026 0h-946v109l682 1132h-647v139h901v-110l-682 -1133h692v-137z"/>
    <glyph glyph-name="zcaron" unicode="ž" horiz-adv-x="944" d="M567 1178h-161l-289 370h155l215 -233l213 233h156zM874 0h-800v127l518 762h-494v133h762v-125l-520 -760h534v-137z"/>
    <glyph glyph-name="florin" unicode="ƒ" horiz-adv-x="997" d="M10 -344q180 0 242 135q16 31 27 109l110 815h-248l21 135h244l36 283q8 76 31 137q84 229 401 229q78 0 144 -10l-21 -131h-65q-195 0 -244 -125q-20 -43 -26 -98l-37 -285h307l-19 -135h-305l-108 -821q-10 -80 -29 -136q-82 -236 -408 -235q-68 0 -88 2l21 131h14z "/>
    <glyph glyph-name="circumflex" unicode="ˆ" horiz-adv-x="980" d="M885 1180h-166l-227 209l-230 -209h-166l307 350h172z"/>
    <glyph glyph-name="caron" unicode="ˇ" horiz-adv-x="980" d="M571 1178h-161l-289 370h155l216 -233l213 233h155z"/>
    <glyph glyph-name="breve" unicode="˘" horiz-adv-x="974" d="M866 1540q0 -138 -73 -237q-86 -117 -301 -117q-214 0 -300 103t-86 251h136q14 -215 244 -215t247 215h133z"/>
    <glyph glyph-name="dotaccent" unicode="˙" horiz-adv-x="499" d="M250 1268q-72 0 -100 26t-29 90q0 66 27 92q28 26 102 26t102 -26t27 -92t-29 -90q-28 -26 -100 -26z"/>
    <glyph glyph-name="ring" unicode="˚" horiz-adv-x="567" d="M512 1358q0 -98 -66 -160t-162 -63q-96 0 -162 62q-67 63 -67 161t67 160t163 61q95 1 161 -61t66 -160zM403 1358q0 51 -33 86q-34 35 -85 35t-86 -35t-35 -86t35 -86t86 -35t85 35q33 35 33 86z"/>
    <glyph glyph-name="ogonek" unicode="˛" horiz-adv-x="559" d="M477 -393v-76q-57 -16 -135 -16q-264 0 -264 202q0 88 60 162t151 121h133q-193 -129 -193 -261t189 -132h59z"/>
    <glyph glyph-name="tilde" unicode="˜" horiz-adv-x="978" d="M649 1229q-92 0 -176 42q-83 42 -175 42t-210 -78v135q96 100 256 100q90 0 178 -42t174 -42t193 66v-133q-86 -90 -240 -90z"/>
    <glyph glyph-name="hungarumlaut" unicode="˝" horiz-adv-x="1024" d="M639 1180h-160l254 370h209zM242 1180h-160l254 370h209z"/>
    <glyph glyph-name="pi" unicode="π" horiz-adv-x="1298" d="M1098 -16q-156 0 -226 70t-69 243v592h-354v-889h-224v889h-170v133h1168v-133h-197v-567q0 -113 39 -151t123 -38h35v-139q-66 -10 -125 -10z"/>
    <glyph glyph-name="endash" unicode="–" horiz-adv-x="1044" d="M1044 451h-1044v139h1044v-139z"/>
    <glyph glyph-name="emdash" unicode="—" horiz-adv-x="1658" d="M1659 451h-1659v139h1659v-139z"/>
    <glyph glyph-name="quoteleft" unicode="‘" horiz-adv-x="520" d="M115 1001q0 113 60 246t140 238h91l-119 -385q61 -4 89 -32t28 -98t-36 -102q-34 -31 -110 -30q-143 0 -143 163z"/>
    <glyph glyph-name="quoteright" unicode="’" horiz-adv-x="520" d="M262 1499q143 0 144 -164q0 -113 -60 -245t-141 -236h-90l118 383q-61 4 -89 33q-28 28 -28 98t36 100q35 30 110 31z"/>
    <glyph glyph-name="quotesinglbase" unicode="‚" horiz-adv-x="520" d="M262 254q143 0 144 -164q0 -114 -62 -258t-139 -244h-90l118 402q-61 4 -89 33t-28 99t36 102q35 30 110 30z"/>
    <glyph glyph-name="quotedblleft" unicode="“" horiz-adv-x="921" d="M115 1001q0 113 60 246t140 238h91l-119 -385q61 -4 89 -32t28 -98t-36 -102q-34 -31 -110 -30q-143 0 -143 163zM805 970q0 -70 -35 -102q-35 -31 -111 -30q-143 0 -143 163q0 113 61 246q60 133 140 238h90l-119 -385q61 -4 89 -32t28 -98z"/>
    <glyph glyph-name="quotedblright" unicode="”" horiz-adv-x="921" d="M518 1368q0 70 35 100t111 31q143 0 143 -164q1 -113 -59 -245t-142 -236h-90l119 383q-61 4 -89 33q-28 28 -28 98zM262 1499q143 0 144 -164q0 -113 -60 -245t-141 -236h-90l118 383q-61 4 -89 33q-28 28 -28 98t36 100q35 30 110 31z"/>
    <glyph glyph-name="quotedblbase" unicode="„" horiz-adv-x="921" d="M518 122q0 70 35 102q35 30 111 30q143 0 143 -164q1 -114 -61 -258t-140 -244h-90l119 402q-61 4 -89 33t-28 99zM262 254q143 0 144 -164q0 -114 -62 -258t-139 -244h-90l118 402q-61 4 -89 33t-28 99t36 102q35 30 110 30z"/>
    <glyph glyph-name="dagger" unicode="†" horiz-adv-x="1026" d="M559 -342h-92l-61 913l55 410l-369 -51v198l369 -51l-51 408h206l-51 -408l369 51v-198l-369 51l53 -410z"/>
    <glyph glyph-name="daggerdbl" unicode="‡" horiz-adv-x="1026" d="M616 -342h-206l51 408l-369 -54v201l369 -51l-55 409l55 410l-369 -51v198l369 -51l-51 408h206l-51 -408l369 51v-198l-369 51l53 -410l-53 -409l369 51v-199l-369 52z"/>
    <glyph glyph-name="bullet" unicode="•" horiz-adv-x="700" d="M567 502q0 -100 -56 -156q-55 -56 -159 -57q-104 0 -162 56q-57 55 -57 157t56 156q57 54 161 54t160 -54q56 -56 57 -156z"/>
    <glyph glyph-name="ellipsis" unicode="…" horiz-adv-x="1519" d="M1122 121q0 75 31 103t108 28t105 -28t29 -104q-1 -76 -29 -104t-105 -28t-108 28t-31 105zM761 252q77 0 105 -28t29 -104q-1 -76 -29 -104t-105 -28t-108 28t-30 105q1 75 31 103t107 28zM261 -12q-77 0 -107 28t-31 105q0 75 31 103q32 28 108 28t105 -28t29 -104 t-29 -104t-106 -28z"/>
    <glyph glyph-name="perthousand" unicode="‰" horiz-adv-x="2539" d="M2130 -8q-148 0 -250 99q-100 99 -100 292t100 292t249 99t249 -99t100 -292t-100 -292t-248 -99zM2128 100q80 0 132 71t52 212t-52 212t-132 71t-132 -71t-52 -212t52 -212t132 -71zM410 606q-148 0 -248 100t-100 292t100 291t248 99t247 -98q101 -100 101 -293 t-100 -292t-248 -99zM411 713q81 1 132 71t51 212t-52 213t-132 71t-132 -71t-52 -212t52 -213t133 -71zM1372 -8q-148 0 -250 99q-100 99 -100 292t100 292t249 99t249 -99t100 -292t-100 -292t-248 -99zM1370 100q80 0 132 71t52 212t-52 212t-132 71t-132 -71t-52 -212 t52 -212t132 -71zM459 0h-166l1028 1380h168z"/>
    <glyph glyph-name="guilsinglleft" unicode="‹" horiz-adv-x="710" d="M598 0h-145l-340 510l340 512h145l-276 -512z"/>
    <glyph glyph-name="guilsinglright" unicode="›" horiz-adv-x="710" d="M256 0h-143l274 510l-274 512h143l342 -512z"/>
    <glyph glyph-name="fraction" unicode="⁄" horiz-adv-x="1181" d="M195 0h-185l975 1380h186z"/>
    <glyph glyph-name="Euro" unicode="€" d="M1049 133v-135q-104 -14 -217 -14q-224 0 -405 96q-95 51 -162 153t-91 246h-154v113h144q-4 49 -4 86t4 90h-144v113h160q96 510 735 510q121 0 191 -15l-41 -133h-115q-461 0 -538 -362h563l-29 -113h-547q-4 -49 -4 -88t4 -88h506l-28 -113h-463q68 -346 514 -346h121 z"/>
    <glyph glyph-name="trademark" unicode="™" horiz-adv-x="1527" d="M1464 690h-135v582h-20l-166 -582h-191l-170 582h-18v-582h-121v690h231l175 -585h16l166 585h233v-690zM377 690h-144v592h-202v98h544v-98h-198v-592z"/>
    <glyph glyph-name="Omega" unicode="Ω" horiz-adv-x="1439" d="M719 1401q266 0 443 -175t177 -493q0 -203 -88 -363t-219 -231h307v-139h-522v139q125 57 210 205t85 392q0 243 -108 382q-109 139 -285 139t-285 -139q-108 -140 -108 -382t85 -390t210 -207v-139h-521v139h306q-131 72 -219 232q-87 160 -87 362q0 317 176 493 q177 175 443 175z"/>
    <glyph glyph-name="partialdiff" unicode="∂" horiz-adv-x="1163" d="M627 799q-127 0 -223 -88q-96 -89 -97 -261q0 -172 73 -248t181 -77q135 0 214 115t79 311q0 117 -18 199q-82 49 -209 49zM276 1241h-155v131q70 16 207 17q735 0 735 -762q0 -179 -43 -309t-120 -200q-148 -136 -346 -135q-197 1 -328 108q-130 108 -130 345 q0 130 44 232t118 158q151 114 328 114q119 0 231 -41q-47 182 -201 262t-340 80z"/>
    <glyph glyph-name="Delta" unicode="∆" horiz-adv-x="1277" d="M293 137h672l-324 1104h-25zM817 1380l424 -1380h-1204l422 1380h358z"/>
    <glyph glyph-name="product" unicode="∏" horiz-adv-x="1447" d="M1210 -467h-221v1708h-528v-1708h-221v1708h-189v139h1346v-139h-187v-1708z"/>
    <glyph glyph-name="summation" unicode="∑" horiz-adv-x="1101" d="M1030 -467h-958v111l538 829l-532 797v110h952v-139h-694l487 -725l-547 -846h754v-137z"/>
    <glyph glyph-name="minus" unicode="−" horiz-adv-x="1187" d="M1055 442h-922v138h922v-138z"/>
    <glyph glyph-name="radical" unicode="√" horiz-adv-x="1073" d="M1278 1708v-129h-250l-289 -1579h-303l-403 1022h239l328 -887h21l284 1573h373z"/>
    <glyph glyph-name="infinity" unicode="∞" horiz-adv-x="1665" d="M1421 512q0 86 -61 133t-134 47q-121 0 -231 -95q-35 -32 -82 -83q57 -57 91 -88t93 -64q59 -32 131 -32t133 48q60 48 60 134zM422 197q-135 0 -233 85q-97 85 -97 231t100 231t242 85q217 0 400 -217q90 98 181 156t226 59q135 0 233 -85q98 -84 99 -232t-99 -232 t-235 -82q-135 1 -229 59t-181 157q-90 -100 -181 -158t-226 -57zM438 694q-72 0 -134 -48q-60 -48 -60 -135t60 -133t149 -46q137 0 297 178q-55 57 -86 87q-30 29 -92 63t-134 34z"/>
    <glyph glyph-name="integral" unicode="∫" horiz-adv-x="718" d="M-150 -477q178 0 240 135q18 35 29 109l209 1568q12 86 30 138q86 229 402 229q78 0 143 -10l-20 -131h-66q-195 0 -248 -123q-14 -31 -22 -101l-207 -1577q-10 -80 -29 -135q-82 -236 -407 -235q-70 0 -90 2l20 131h16z"/>
    <glyph glyph-name="approxequal" unicode="≈" horiz-adv-x="1187" d="M801 213q-74 0 -206 39t-204 39q-147 0 -258 -66v152q113 59 248 59q74 0 208 -39t206 -39q133 0 260 66v-152q-119 -59 -254 -59zM801 588q-74 0 -206 39t-204 39q-147 0 -258 -66v152q113 59 248 59q74 0 208 -39t206 -39q133 0 260 66v-152q-119 -59 -254 -59z"/>
    <glyph glyph-name="notequal" unicode="≠" horiz-adv-x="1187" d="M1069 248h-506l-254 -602h-157l251 602h-286v139h346l102 248h-448v141h508l249 596h162l-252 -596h285v-141h-344l-104 -248h448v-139z"/>
    <glyph glyph-name="lessequal" unicode="≤" d="M981 0h-813v135h813v-135zM915 244h-208l-512 499l512 498h208l-509 -498z"/>
    <glyph glyph-name="greaterequal" unicode="≥" d="M979 0h-813v135h813v-135zM952 743l-514 -499h-207l510 499l-510 498h207z"/>
    <glyph glyph-name="lozenge" unicode="◊" horiz-adv-x="1015" d="M520 178l252 512l-252 512h-22l-254 -512l254 -512h22zM600 1380l344 -690l-346 -690h-180l-346 690l348 690h180z"/>
    <glyph glyph-name="uniF8FF" unicode="" horiz-adv-x="2205" d="M1563 526h92q74 22 74 86t-99 64h-67v-150zM1836 377q146 0 220 76q47 47 47 115t-38 112t-94 43q-118 0 -118 -94q1 -31 19 -49t42 -18t40 11q14 12 14 31h31q0 -31 -23 -51q-22 -21 -60 -21t-65 26t-27 77t40 83t106 32t115 -50t49 -125q0 -115 -90 -171t-225 -56 q-41 0 -84 6l-88 146h-84v-144h-33v346h86q110 0 133 -37q12 -19 12 -53q0 -69 -82 -106l80 -127q20 -2 77 -2zM698 676v-320h-34v320h-115v26h309l113 -317l110 317h35l-121 -346h-51l-113 320h-133zM1407 -78q113 0 199 47t86 156q0 72 -43 110q-43 37 -95 37t-83 -24 q-29 -24 -29 -61q1 -76 63 -76q47 0 51 43h29q0 -31 -23 -51q-24 -19 -62 -19t-64 27t-25 75q0 48 39 80q40 33 106 33t115 -45t49 -129q0 -119 -92 -174t-223 -55q-51 0 -111 8l-90 323l-82 -321h-47l-82 321q-12 -49 -92 -317q-20 -76 -20 -131q0 -109 62 -177 q61 -68 149 -69q88 0 144 43q56 42 56 102t-26 93q-27 33 -74 32q-86 0 -86 -69q0 -20 14 -34t33 -15v-29q-31 0 -53 22t-23 61q0 41 31 67t85 26t91 -40t37 -112q-1 -72 -63 -122q-62 -52 -164 -52t-172 76t-70 197q0 72 20 139l95 322q-83 20 -183 20t-195 -55t-95 -170 q0 -68 41 -120t98 -52q57 -1 94 29t37 70t-20 65t-46 25q-60 -1 -59 -48h-29q0 33 24 53q24 21 62 21t68 -32q29 -32 29 -83t-44 -89t-114 -38t-122 58t-52 139q0 125 102 189t222 65q120 0 233 -33l82 -322l82 322h47l94 -328q53 -4 84 -4zM1567 1059h30q1 -37 -25 -60 t-68 -23t-72 33t-29 85q0 52 44 88q45 36 115 37t124 -57t53 -144q0 -170 -211 -236q-29 -8 -124 -33t-144 -59q-72 -51 -72 -164q0 -152 112 -151q113 0 113 151q0 121 -96 136v26q38 0 69 -22q60 -41 60 -149q0 -109 -54 -139t-92 -30q-147 0 -147 178q0 76 28 119 q27 43 71 71t81 40t99 27t88 24q188 57 188 209q0 74 -43 126t-101 52t-94 -29q-34 -29 -34 -69t19 -66q19 -25 52 -24q60 0 60 53zM1317 1280q-1 110 -63 178t-149 68t-142 -42t-55 -102t26 -94q27 -33 72 -33q86 0 86 72q0 19 -14 33t-34 14v27q31 -1 54 -21 q22 -20 22 -60t-30 -67t-85 -27q-54 0 -92 41q-37 39 -37 111t63 124q61 52 163 52t174 -76t72 -198q0 -59 -25 -139l-98 -336h-45l-82 321l-82 -321h-47l-95 328q-53 4 -81 4q-115 0 -201 -47t-86 -156q0 -68 43 -108t95 -40t82 25t30 61q0 76 -64 76q-45 0 -51 -43h-29 q0 31 25 50t61 19t63 -27q25 -27 25 -73t-38 -80t-105 -34q-66 0 -116 45t-50 129q0 121 93 175t225 54q49 0 108 -8q79 -279 84 -303l6 -21q16 80 82 322h49l80 -322q6 47 88 314q25 78 25 135zM494 356h-35v324q-25 2 -64 2q-117 0 -205 -45t-88 -154q0 -61 37 -104 t91 -43q116 0 116 92q0 29 -16 49q-16 21 -54 21t-43 -43h-28q0 29 24 49q25 20 60 20t61 -26t27 -75q0 -50 -39 -82q-40 -32 -106 -32t-113 49t-47 125q0 113 91 168t234 56q63 0 97 -5v-346z"/>
    <glyph glyph-name="fi" unicode="ﬁ" horiz-adv-x="1107" d="M971 0h-223v887h-351v-887h-221v887h-151v135h151v88q0 253 180 343q119 58 320 58q98 0 174 -14q133 -29 133 -121q0 -112 -124 -112t-124 118q-37 4 -100 4t-135 -36t-92 -119q-12 -43 -13 -109v-100h576v-1022z"/>
    <glyph glyph-name="fl" unicode="ﬂ" horiz-adv-x="1103" d="M975 0h-221v1370h-97q-219 0 -254 -145q-10 -39 -10 -101v-102h236v-135h-234v-887h-219v887h-151v135h151v100q0 251 175 327q120 52 286 52t338 -14v-1487z"/>
    <glyph glyph-name="one.tl" d="M1063 0h-922v137h363v1086l-363 -131v143l404 145h182v-1243h336v-137z"/>
    <glyph glyph-name="two.tl" d="M1022 0h-870v133q49 51 227 256t211 248q166 203 166 356q0 250 -316 250h-272v121q176 31 358 31q471 0 471 -369q0 -125 -54 -226t-133 -192t-240 -268q-162 -176 -191 -203h643v-137z"/>
    <glyph glyph-name="three.tl" d="M160 137h200q168 1 281 63t113 203q0 236 -400 248v133q147 18 256 94t109 179q0 78 -48 122q-47 44 -105 54t-142 10h-250v127q186 27 326 27q457 0 456 -301q0 -121 -85 -203t-203 -129q328 -84 327 -352q0 -111 -49 -195t-133 -132q-173 -99 -393 -97q-166 -1 -260 22 v127z"/>
    <glyph glyph-name="four.tl" d="M913 0h-215v289h-610v184l506 907h319v-954h148v-137h-148v-289zM698 426v590l9 227h-27l-88 -207l-344 -610h450z"/>
    <glyph glyph-name="five.tl" d="M162 137h182q178 0 292 70t114 221q0 178 -140 240t-409 53l63 659h674v-137h-504l-37 -371q588 -4 588 -423q0 -225 -165 -345t-410 -120q-144 -1 -248 22v131z"/>
    <glyph glyph-name="six.tl" d="M973 1243h-152q-193 0 -329 -105t-158 -321q117 82 295 82t292 -104q113 -104 113 -340t-127 -354q-127 -117 -331 -117t-336 141q-131 141 -131 467q0 219 62 381q63 162 167 249t219 127t240 40t176 -13v-133zM324 553q0 -199 66 -313t187 -115q250 0 248 313 q0 166 -70 240q-71 74 -182 74q-70 0 -139 -22t-106 -56q-4 -57 -4 -121z"/>
    <glyph glyph-name="seven.tl" d="M119 1243v137h907v-125l-514 -1255h-236l519 1243h-676z"/>
    <glyph glyph-name="eight.tl" d="M324 340q0 -115 72 -173t178 -58q105 0 175 52q69 53 69 161t-78 184t-193 123q-223 -117 -223 -289zM100 336q0 244 291 377q-256 133 -256 344q0 172 126 259t312 87q185 0 311 -85t126 -255q0 -215 -256 -330q291 -156 290 -383q0 -188 -135 -281t-342 -93t-337 85 q-130 86 -130 275zM795 1073q0 103 -66 155t-160 52t-155 -46q-62 -46 -62 -142t72 -164q72 -70 172 -113q199 100 199 258z"/>
    <glyph glyph-name="nine.tl" d="M180 137h176q201 0 316 97t137 329q-109 -80 -288 -80q-179 1 -295 105t-116 340t131 352q130 116 324 115q469 0 469 -609q0 -799 -645 -798q-127 0 -209 14v135zM821 829q0 197 -64 313q-65 116 -196 115q-106 -1 -173 -77q-66 -76 -66 -240t70 -237t181 -72 q164 0 242 74q6 43 6 124z"/>
    <glyph glyph-name="zero.tl" d="M572 1399q212 0 346 -174q134 -175 133 -537t-135 -536t-345 -175q-211 1 -344 173t-133 538t133 539q133 172 345 172zM315 688q1 -293 73 -431t184 -138t185 138t72 431q0 293 -72 432q-73 140 -185 140t-184 -140t-73 -432z"/>
    <glyph glyph-name="one.to" d="M1036 0h-921v137h362v725l-362 -121v144l403 137h182v-885h336v-137z"/>
    <glyph glyph-name="two.to" d="M1022 0h-883v135q295 238 429 361t134 229q0 162 -249 162h-273v119q174 33 344 32q416 0 416 -284q0 -162 -182 -328q-125 -119 -357 -289h621v-137z"/>
    <glyph glyph-name="three.to" d="M156 -221h196q168 0 280 62t111 204q0 236 -395 248v133q145 18 253 94t108 178q0 188 -291 189h-252v123q168 29 326 28q459 0 458 -301q0 -121 -85 -203t-201 -128q326 -80 325 -355q0 -211 -167 -317t-402 -107q-160 0 -264 23v129z"/>
    <glyph glyph-name="four.to" d="M881 -358h-217v399h-578v182l481 799h314v-844h176v-137h-176v-399zM664 178v484l8 223h-17l-94 -183l-321 -524h424z"/>
    <glyph glyph-name="five.to" d="M162 -221h186q178 1 291 69t113 230t-161 224q-137 52 -382 52l53 668h680v-137h-504l-28 -373q582 -8 581 -422q0 -225 -166 -346t-413 -121q-123 0 -250 23v133z"/>
    <glyph glyph-name="six.to" d="M977 1243h-152q-193 0 -329 -105t-158 -321q117 82 295 82t292 -104q113 -104 113 -340t-127 -354q-127 -117 -331 -117t-336 141q-131 141 -131 467q0 219 62 381q63 162 167 249t219 127t240 40t176 -13v-133zM328 553q0 -199 66 -313t187 -115q250 0 248 313 q0 166 -70 240q-71 74 -181 74q-70 0 -140 -22t-106 -56q-4 -57 -4 -121z"/>
    <glyph glyph-name="seven.to" d="M113 885v137h931v-127l-591 -1253h-234l592 1243h-698z"/>
    <glyph glyph-name="eight.to" d="M100 334q0 141 79 228t212 149q-256 137 -256 346q0 170 126 258t312 88q185 0 311 -85t126 -257q0 -209 -256 -328q291 -152 290 -383q0 -188 -135 -282t-342 -94t-337 86q-130 87 -130 274zM326 338q0 -117 72 -175q72 -59 175 -59q104 0 173 54t69 162q-1 110 -79 186 t-191 123q-219 -121 -219 -291zM793 1073q0 107 -65 157t-158 50t-155 -46q-63 -46 -63 -142t72 -164q72 -70 174 -113q195 102 195 258z"/>
    <glyph glyph-name="nine.to" d="M170 -221h152q196 0 328 106t155 320q-125 -88 -296 -88q-171 1 -288 109t-117 342t128 353q128 117 332 117t335 -145t131 -473q0 -219 -60 -380t-162 -248q-197 -167 -454 -167q-123 1 -184 15v139zM813 471q1 199 -65 313t-184 115q-118 0 -184 -77q-65 -78 -65 -242 t72 -237t180 -73q71 0 139 22t103 56q4 29 4 123z"/>
    <glyph glyph-name="zero.to" d="M1067 512q-1 -262 -149 -400t-346 -139q-198 1 -346 139t-148 400t148 399t346 137t346 -136q148 -138 149 -400zM572 905q-118 0 -194 -96t-77 -296q1 -200 77 -298t194 -98t195 97t77 298t-77 297t-195 96z"/>
    <glyph glyph-name="one.pl" horiz-adv-x="862" d="M653 0h-219v1223l-379 -136v144l416 149h182v-1380z"/>
    <glyph glyph-name="two.pl" horiz-adv-x="1103" d="M1001 0h-870v133q49 51 227 256t211 248q166 203 166 356q0 250 -315 250h-273v121q176 31 359 31q471 0 471 -369q0 -125 -54 -226t-151 -210q-84 -100 -234 -263q-151 -163 -180 -190h643v-137z"/>
    <glyph glyph-name="three.pl" horiz-adv-x="1073" d="M131 137h201q168 1 280 63t113 203q0 236 -399 248v133q147 18 256 94t108 179q0 78 -48 122t-105 54t-142 10h-250v127q186 27 326 27q457 0 457 -301q0 -121 -85 -203t-204 -129q328 -84 328 -352q0 -111 -49 -195q-50 -84 -134 -132q-174 -99 -393 -97 q-166 -1 -260 22v127z"/>
    <glyph glyph-name="four.pl" horiz-adv-x="1181" d="M930 0h-215v289h-623v184l520 907h318v-954h157v-137h-157v-289zM715 426v590l8 227h-23l-94 -207l-358 -610h467z"/>
    <glyph glyph-name="five.pl" horiz-adv-x="1069" d="M137 137h182q178 0 292 70t114 221q0 178 -140 240t-409 53l64 659h673v-137h-503l-37 -371q588 -4 588 -423q0 -225 -165 -345t-411 -120q-144 -1 -248 22v131z"/>
    <glyph glyph-name="six.pl" d="M977 1243h-152q-193 0 -329 -105t-158 -321q117 82 295 82t292 -104q113 -104 113 -340t-127 -354q-127 -117 -331 -117t-336 141q-131 141 -131 467q0 219 62 381q63 162 167 249t219 127t240 40t176 -13v-133zM328 553q0 -199 66 -313t187 -115q250 0 248 313 q0 166 -70 240q-71 74 -181 74q-70 0 -140 -22t-106 -56q-4 -57 -4 -121z"/>
    <glyph glyph-name="seven.pl" horiz-adv-x="1060" d="M84 1243v137h907v-125l-514 -1255h-235l518 1243h-676z"/>
    <glyph glyph-name="eight.pl" horiz-adv-x="1181" d="M344 340q0 -115 72 -173t177 -58t174 52q69 53 69 161t-78 184t-191 123q-223 -115 -223 -289zM1063 350q0 -188 -134 -281t-341 -93t-338 86q-131 87 -131 274q0 244 291 377q-254 135 -254 344q0 172 125 259t311 87t311 -85t125 -255q0 -213 -254 -330 q289 -154 289 -383zM813 1073q0 104 -64 156q-65 51 -159 51t-156 -46t-63 -142t71 -164q72 -70 174 -113q197 102 197 258z"/>
    <glyph glyph-name="nine.pl" d="M180 137h176q201 0 316 97t137 329q-109 -80 -288 -80q-179 1 -295 105t-116 340t131 352q130 116 324 115q469 0 469 -609q0 -799 -645 -798q-127 0 -209 14v135zM821 829q0 197 -64 313q-65 116 -196 115q-106 -1 -173 -77q-66 -76 -66 -240t70 -237t181 -72 q164 0 242 74q6 43 6 124z"/>
    <glyph glyph-name="zero.pl" horiz-adv-x="1167" d="M1055 688q0 -362 -134 -536t-345 -175q-210 1 -344 173t-134 538t133 539q133 172 345 172t346 -174q133 -175 133 -537zM577 119q113 0 185 138t72 431t-73 432q-73 140 -185 140t-184 -140q-73 -140 -73 -432q0 -293 73 -431t185 -138z"/>
    <glyph glyph-name="one.po" horiz-adv-x="884" d="M680 0h-225v860l-361 -119v144l408 137h178v-1022z"/>
    <glyph glyph-name="two.po" horiz-adv-x="1114" d="M1016 0h-883v135q279 225 420 355t141 235q0 162 -250 162h-270v119q174 33 344 32q418 0 418 -284q0 -160 -184 -328q-125 -119 -357 -289h621v-137z"/>
    <glyph glyph-name="three.po" horiz-adv-x="1081" d="M139 -221h197q168 0 280 62t111 204q0 236 -395 248v133q145 18 253 94t107 178q0 188 -291 189h-251v123q168 29 325 28q459 0 459 -301q0 -121 -85 -203t-202 -128q326 -80 326 -355q0 -211 -167 -317t-403 -107q-160 0 -264 23v129z"/>
    <glyph glyph-name="four.po" horiz-adv-x="1179" d="M891 -358h-209v399h-608v184l512 797h305v-844h256v-137h-256v-399zM682 178v484l10 223h-10l-102 -183l-349 -524h451z"/>
    <glyph glyph-name="five.po" horiz-adv-x="1081" d="M131 -221h186q180 1 292 69t112 220q0 177 -160 235q-141 51 -381 51l51 668h682v-137h-503l-29 -375q580 -8 580 -422q0 -225 -167 -345t-413 -120q-123 0 -250 23v133z"/>
    <glyph glyph-name="six.po" d="M973 1243h-152q-197 0 -327 -104t-154 -322q117 82 292 82t291 -104q115 -104 115 -340t-127 -354t-317 -117q-479 0 -479 608q0 217 60 379q59 162 161 250q196 170 455 170q100 0 182 -15v-133zM330 551q0 -199 66 -313t186 -115q118 0 183 77q65 76 65 240t-72 238 t-180 74q-70 0 -138 -22t-106 -56q-4 -53 -4 -123z"/>
    <glyph glyph-name="seven.po" horiz-adv-x="1046" d="M78 885v137h911v-127l-571 -1253h-225l567 1243h-682z"/>
    <glyph glyph-name="eight.po" horiz-adv-x="1171" d="M1055 350q0 -188 -135 -282t-341 -94t-335 86q-129 87 -129 274q0 141 79 228t212 149q-256 139 -256 344q0 172 124 259t310 87t310 -85t124 -257q0 -205 -254 -326q291 -152 291 -383zM334 338q0 -117 73 -175q73 -59 179 -59t177 54t71 162q0 110 -81 186t-196 123 q-223 -123 -223 -291zM809 1071q0 103 -66 155q-67 52 -161 52t-158 -47t-64 -141t74 -164t176 -111q199 104 199 256z"/>
    <glyph glyph-name="zero.po.004" horiz-adv-x="1191" d="M596 -31q-209 -1 -356 143q-148 144 -148 397t148 395t356 142q209 0 356 -142q148 -142 148 -395t-148 -397t-356 -143zM256 509q0 -197 100 -303t241 -106q143 0 241 106t98 303q0 196 -98 302q-98 107 -240 107t-242 -106t-100 -303z"/>
    <glyph glyph-name="zero.po" horiz-adv-x="1171" d="M1079 512q0 -262 -147 -400t-345 -139q-198 1 -346 139t-149 400q0 262 148 399t347 137q198 0 345 -136q147 -138 147 -400zM586 117q118 0 194 98t76 298t-76 296t-194 96t-195 -96q-76 -96 -76 -296t77 -298t194 -98z"/>
    <glyph glyph-name="nine.po" horiz-adv-x="1148" d="M176 -221h150q196 0 328 106t155 320q-125 -88 -296 -88q-171 1 -287 109t-116 342t128 353q127 118 317 117q479 0 479 -608q0 -176 -41 -317t-107 -231q-193 -257 -528 -257q-121 1 -182 15v139zM819 471q1 199 -65 313t-199 115q-106 0 -171 -77q-65 -78 -65 -242 t72 -237t180 -73q162 0 244 78q4 57 4 123z"/>
    <glyph glyph-name="fraction.001" horiz-adv-x="772" d="M115 -344h-164l813 1829h166z"/>
    <glyph glyph-name="hairline" horiz-adv-x="20" d="M20 -467h-20v1952h20v-1952z"/>
    </font>
</defs>
</svg>
