<?xml version="1.0" encoding="UTF-8" standalone="no"?>
<!DOCTYPE svg PUBLIC "-//W3C//DTD SVG 1.1//EN" "http://www.w3.org/Graphics/SVG/1.1/DTD/svg11.dtd">
<svg xmlns="http://www.w3.org/2000/svg">
<metadata>
Created by FontPrep 20130207 at Thu Dec 19 21:10:08 2013
 By Marcel Villerius
Copyright (c) 2012 by Aad van Dommelen. All rights reserved.
</metadata>
<defs>
<font id="1dc28fd7e65419d4ffa13119590c81ec" horiz-adv-x="1024">
  <font-face font-family="Vestula" font-weight="400" font-stretch="normal" units-per-em="2048" panose-1="2 11 5 3 5 3 2 2 2 4" ascent="1485" descent="-563" x-height="1022" cap-height="1380" bbox="-195 -610.004 2480 1942" underline-thickness="104" underline-position="-436" unicode-range="U+0020-FB04"/>
<missing-glyph horiz-adv-x="618" d="M2 -467v2044h614v-2044h-614z"/>
    <glyph glyph-name="f_f" unicode="ff" horiz-adv-x="1247" d="M754 1022v121q0 150 63 231q-71 27 -177 27t-188 -50t-102 -157q-8 -43 -8 -109v-63h412zM905 0h-151v920h-412v-920h-152v920h-155v102h155v57q0 84 13 140q63 287 430 286q147 0 270 -51q84 39 177 39t151 -8v-92h-72q-209 0 -244 -162q-10 -37 -10 -90v-119h305v-100 h-305v-922z"/>
    <glyph glyph-name="f_f_i" unicode="ffi" horiz-adv-x="1611" d="M752 1106q0 192 82 272q-82 31 -188 31t-190 -49t-106 -154q-8 -43 -8 -108v-76h410v84zM1206 1505q277 0 277 -106q0 -88 -99 -88q-51 1 -71 23t-21 69q-38 6 -120 6t-161 -44t-98 -144q-8 -41 -8 -103v-96h563v-1022h-153v920h-410v-920h-153v920h-410v-920h-152v920 h-155v102h155v61q0 429 459 428q150 0 287 -55q104 49 270 49z"/>
    <glyph glyph-name="f_f_l" unicode="ffl" horiz-adv-x="1636" d="M754 1022v100q0 168 69 250q-81 29 -185 29t-188 -50t-100 -153q-8 -43 -8 -106v-70h412zM1481 0h-154v1399h-127q-256 0 -289 -176q-8 -41 -8 -97v-104h285v-102h-283v-920h-151v920h-412v-920h-152v920h-155v102h155v57q0 84 13 140q59 287 430 286q154 0 287 -57 q109 51 290 51q102 0 271 -14v-1485z"/>
    <glyph glyph-name="f_i" unicode="fi" horiz-adv-x="1050" d="M643 1505q277 0 277 -106q0 -88 -99 -88q-51 1 -71 23t-21 69q-41 6 -121 6t-160 -43t-98 -141q-8 -41 -8 -103v-100h563v-1022h-155v920h-406v-920h-156v920h-155v102h155v88q0 78 13 131q61 264 442 264z"/>
    <glyph glyph-name="f_l" unicode="fl" horiz-adv-x="1073" d="M915 0h-153v1399h-127q-119 0 -194 -37t-93 -137q-6 -33 -6 -99v-104h279v-102h-279v-920h-154v920h-155v102h155v96q0 244 157 325q112 56 300 56q102 0 270 -14v-1485z"/>
    <glyph glyph-name="f_j" unicode="fj" horiz-adv-x="1050" d="M643 1505q279 0 279 -106q0 -88 -99 -88q-51 1 -71 23t-21 69q-43 6 -123 6t-157 -44q-78 -44 -99 -140q-8 -41 -8 -103v-100h561v-963q0 -239 -63 -526h-90v1387h-406v-920h-156v920h-155v102h155v88q0 78 13 131q63 264 440 264z"/>
    <glyph glyph-name="f_f_j" unicode="ffj" horiz-adv-x="1611" d="M752 1106q0 188 84 274q-78 29 -188 29t-194 -49t-104 -154q-8 -43 -8 -108v-76h410v84zM1206 1505q277 0 277 -106q0 -88 -99 -88q-51 1 -71 23t-21 69q-38 6 -120 6t-160 -44t-99 -144q-8 -41 -8 -103v-96h563v-963q1 -231 -65 -526h-88v1387h-410v-920h-153v920h-410 v-920h-152v920h-155v102h155v61q0 429 459 428q150 0 287 -55q104 49 270 49z"/>
    <glyph glyph-name=".notdef" horiz-adv-x="618" d="M2 -467v2044h614v-2044h-614z"/>
    <glyph glyph-name=".null" horiz-adv-x="0"/>
    <glyph glyph-name="nonmarkingreturn" horiz-adv-x="681"/>
    <glyph glyph-name="space" unicode=" " horiz-adv-x="512"/>
    <glyph glyph-name="exclam" unicode="!" horiz-adv-x="589" d="M296 -16q-60 0 -84 22t-24 81q0 58 24 81q24 22 84 22t84 -22t24 -81q0 -58 -24 -81q-24 -22 -84 -22zM356 446h-118l-35 1039h188z"/>
    <glyph glyph-name="quotedbl" unicode="&quot;" horiz-adv-x="770" d="M598 899h-102l-33 586h168zM272 899h-102l-33 586h168z"/>
    <glyph glyph-name="numbersign" unicode="#" horiz-adv-x="1271" d="M758 549l63 319h-307l-63 -319h307zM1206 868h-264l-63 -319h243v-109h-264l-84 -440h-123l86 440h-307l-86 -440h-121l86 440h-246v109h267l61 319h-244v107h267l78 405h120l-77 -405h307l78 405h122l-79 -405h243v-107z"/>
    <glyph glyph-name="dollar" unicode="$" horiz-adv-x="1083" d="M819 328q-1 94 -67 158t-179 120l-88 -506q334 14 334 228zM264 1065q0 -93 62 -151t184 -117l84 479q-330 -14 -330 -211zM150 100h237l94 543q-73 35 -105 51t-92 58q-171 118 -170 278q2 202 148 277q146 76 350 82l27 147h98l-24 -150q117 0 188 -10v-100h-211 l-90 -516q195 -96 283 -186t88 -224q0 -184 -138 -270t-366 -92l-29 -152h-98l27 152q-131 0 -217 12v100z"/>
    <glyph glyph-name="percent" unicode="%" horiz-adv-x="1783" d="M410 606q-144 0 -246 102t-103 289t101 289t248 102t246 -100q102 -102 102 -290t-102 -290t-246 -102zM410 690q96 0 160 78t65 227q0 149 -65 227q-66 78 -160 78t-161 -78t-67 -226q0 -150 66 -228t162 -78zM1370 -8q-145 0 -247 101q-101 101 -101 289t101 290 t247 102t246 -101q102 -101 102 -289t-101 -291q-102 -101 -247 -101zM1370 78q96 0 161 78t65 226t-65 226t-160 78t-162 -78t-67 -226t66 -226t162 -78zM442 0h-135l1028 1380h138z"/>
    <glyph glyph-name="ampersand" unicode="&amp;" horiz-adv-x="1269" d="M844 291v381h-191q-138 0 -239 -55q-121 -67 -121 -223t95 -227q96 -71 240 -71t240 39q-24 68 -24 156zM1245 98v-92q-49 -14 -159 -14t-171 55q-119 -61 -307 -61t-324 83q-153 91 -153 319q0 120 81 213t208 122q-100 33 -166 111t-66 208t81 214t181 108t208 24 q110 0 161 -10v-96h-147q-82 0 -150 -18t-123 -76t-55 -152q0 -136 93 -200t225 -64h182v174q80 37 147 55v-229h244v-100h-244v-367q0 -125 46 -166t157 -41h51z"/>
    <glyph glyph-name="quotesingle" unicode="'" horiz-adv-x="442" d="M272 899h-102l-33 586h168z"/>
    <glyph glyph-name="parenleft" unicode="(" horiz-adv-x="819" d="M143 511q0 437 162 700t455 278v-98q-238 -21 -352 -253t-113 -626q0 -530 200 -751q105 -116 265 -128v-98q-293 15 -455 277t-162 699z"/>
    <glyph glyph-name="parenright" unicode=")" horiz-adv-x="819" d="M674 511q0 -437 -162 -699t-455 -277v98q238 19 352 251q113 232 113 628t-113 627q-114 231 -352 252v98q293 -13 455 -277t162 -701z"/>
    <glyph glyph-name="asterisk" unicode="*" horiz-adv-x="1032" d="M868 831l-309 265l-14 -4l-94 -396l-138 45l156 375l-8 12l-406 -32v143l406 -33l8 15l-156 374l138 45l94 -397l14 -4l309 264l84 -117l-348 -210v-15l348 -213z"/>
    <glyph glyph-name="plus" unicode="+" horiz-adv-x="1187" d="M647 37h-110v422h-418v106h418v418h110v-418h420v-106h-420v-422z"/>
    <glyph glyph-name="comma" unicode="," horiz-adv-x="493" d="M131 97q0 108 117 108t117 -129q-1 -92 -59 -232t-128 -247h-80l131 395q-51 4 -75 26t-23 79z"/>
    <glyph glyph-name="hyphen" unicode="-" horiz-adv-x="720" d="M629 465h-537v123h537v-123z"/>
    <glyph glyph-name="period" unicode="." horiz-adv-x="493" d="M247 -10q-60 0 -85 24t-25 83q0 60 25 83t85 23t84 -23q23 -23 23 -83t-23 -84q-24 -23 -84 -23z"/>
    <glyph glyph-name="slash" unicode="/" horiz-adv-x="624" d="M135 -344h-125l498 1845h125z"/>
    <glyph glyph-name="zero" unicode="0" d="M571 -20q-203 0 -333 172t-132 536q0 364 132 536q132 171 334 171t333 -174q131 -173 131 -533t-131 -534t-334 -174zM573 84q135 0 225 147q89 147 89 457t-89 456q-88 148 -224 148t-226 -147t-90 -457t90 -456q90 -148 225 -148z"/>
    <glyph glyph-name="one" unicode="1" d="M1051 0h-895v102h389v1162l-389 -140v107l415 149h127v-1278h353v-102z"/>
    <glyph glyph-name="two" unicode="2" d="M1008 0h-836v96q25 27 238 277t229 272q178 215 178 371q0 262 -334 262h-290v90q160 25 337 25q453 0 453 -361q0 -86 -35 -172t-80 -146t-276 -326q-232 -267 -252 -286h668v-102z"/>
    <glyph glyph-name="three" unicode="3" d="M180 102h201q247 0 362 120q66 69 66 173q0 264 -424 283v96q139 20 263 106t124 208q0 121 -106 159q-88 31 -217 31h-250v96q168 20 299 21q210 0 324 -67t114 -226q0 -119 -92 -206t-217 -136q116 -24 225 -97q127 -89 127 -272q0 -96 -49 -179q-84 -143 -312 -199 q-96 -23 -224 -23t-214 18v94z"/>
    <glyph glyph-name="four" unicode="4" d="M891 0h-150v317h-643v138l559 925h234v-960h162v-103h-162v-317zM741 420v655l4 203h-26l-94 -182l-412 -676h528z"/>
    <glyph glyph-name="five" unicode="5" d="M178 102h178q190 0 315 78q124 78 124 257q1 179 -147 250t-429 56l66 637h641v-102h-518l-46 -422q596 8 596 -418q0 -221 -162 -336t-401 -114q-119 0 -217 16v98z"/>
    <glyph glyph-name="six" unicode="6" d="M967 1278h-138q-217 0 -369 -127t-177 -365q133 100 319 100t302 -107q116 -108 116 -336t-123 -344q-123 -115 -321 -115t-325 142q-128 142 -128 452q0 212 58 372q57 160 157 252q197 182 475 182q106 0 154 -8v-98zM270 555q0 -223 84 -344t224 -121t217 86t77 261 t-82 258q-83 83 -212 83q-86 0 -172 -30t-130 -74q-6 -86 -6 -119z"/>
    <glyph glyph-name="seven" unicode="7" d="M131 1278v102h881v-92l-535 -1288h-166l541 1278h-721z"/>
    <glyph glyph-name="eight" unicode="8" d="M268 330q0 -130 88 -192t216 -62t213 59t85 181t-93 206q-93 86 -226 137q-283 -135 -283 -329zM1024 344q0 -186 -130 -276t-327 -90t-323 83q-126 84 -125 267q0 143 87 233t234 156q-122 57 -202 147t-80 203q0 166 118 249q119 83 296 83t295 -83t118 -245 q1 -217 -280 -340q319 -154 319 -387zM840 1077q0 117 -78 172t-192 55t-190 -52t-75 -156q0 -104 83 -184q83 -79 202 -126q250 123 250 291z"/>
    <glyph glyph-name="nine" unicode="9" d="M195 102h163q227 0 350 113q122 113 152 379q-125 -98 -312 -98t-305 108t-118 334q0 227 128 342q127 115 325 115q198 1 320 -143t122 -451q0 -525 -261 -707q-151 -104 -374 -102q-120 0 -190 12v98zM870 827q0 219 -78 342t-218 123t-221 -87t-81 -262t83 -257 t212 -82q86 0 171 28t128 70q4 57 4 125z"/>
    <glyph glyph-name="colon" unicode=":" horiz-adv-x="493" d="M247 817q-60 0 -85 24t-25 85t25 84q25 22 85 22t84 -22q23 -22 23 -84q0 -61 -24 -85t-83 -24zM247 -10q-60 0 -85 24t-25 83q0 60 25 83t85 23t84 -23q23 -23 23 -83t-23 -84q-24 -23 -84 -23z"/>
    <glyph glyph-name="semicolon" unicode=";" horiz-adv-x="493" d="M131 97q0 108 117 108t117 -129q-1 -92 -59 -232t-128 -247h-80l131 395q-51 4 -75 26t-23 79zM247 817q-60 0 -85 24t-25 85t25 84q25 22 85 22t84 -22q23 -22 23 -84q0 -61 -24 -85t-83 -24z"/>
    <glyph glyph-name="less" unicode="&lt;" horiz-adv-x="897" d="M786 0h-157l-516 512l514 510h157l-516 -510z"/>
    <glyph glyph-name="equal" unicode="=" horiz-adv-x="1187" d="M1061 274h-936v107h936v-107zM1061 641h-936v107h936v-107z"/>
    <glyph glyph-name="greater" unicode="&gt;" horiz-adv-x="897" d="M266 0h-157l518 512l-516 510h157l516 -510z"/>
    <glyph glyph-name="question" unicode="?" horiz-adv-x="747" d="M286 -16q-60 0 -84 22t-24 81q0 58 24 81q24 22 84 22t84 -22t24 -81q0 -58 -24 -81q-24 -22 -84 -22zM352 446h-137q-12 86 -12 180t22 147q23 55 55 97t86 103q52 61 70 86q74 88 74 169t-70 118t-161 36h-185v93q88 20 225 20q367 0 367 -254q0 -106 -111 -246 q-16 -23 -67 -84t-86 -104t-52 -81t-18 -103v-177z"/>
    <glyph glyph-name="at" unicode="@" horiz-adv-x="2269" d="M1337 924q-236 0 -381 -160t-145 -404q0 -120 56 -190t163 -70q156 0 252 109l139 711q-23 4 -84 4zM1591 -344v-94q-189 -20 -403 -20t-366 20q-347 47 -516 220q-193 197 -193 576q0 522 327 832q328 309 856 309q389 0 624 -193q234 -194 234 -548t-198 -558 q-198 -206 -516 -210h-37q-67 0 -97 20t-26 90q-123 -114 -286 -114t-250 95t-87 261q1 229 105 399t309 250q115 43 235 43t187 -12h96l-178 -922h49q264 4 412 190t147 449q0 307 -189 474t-534 167q-476 0 -758 -275t-282 -745q0 -411 254 -564q127 -76 288 -108t384 -32 h409z"/>
    <glyph glyph-name="A" unicode="A" horiz-adv-x="1218" d="M1196 0h-170l-123 371h-604l-121 -371h-155l456 1380h252zM872 475l-262 801h-22l-260 -801h544z"/>
    <glyph glyph-name="B" unicode="B" horiz-adv-x="1232" d="M365 102h208q263 0 336 144q31 60 31 164t-60 169t-142 79t-189 14h-184v-570zM817 739q283 -66 283 -350t-277 -362q-96 -27 -278 -27h-332v1380h317q195 0 277 -24q242 -70 242 -305t-232 -312zM365 774h208q322 0 322 264q0 193 -193 230q-66 10 -153 10h-184v-504z "/>
    <glyph glyph-name="C" unicode="C" horiz-adv-x="1163" d="M109 688q0 178 61 321q61 142 171 222q213 155 531 153q137 0 181 -8v-100h-160q-244 0 -418 -116q-92 -62 -145 -184t-54 -296q0 -584 580 -584q107 0 205 8v-98q-228 -45 -452 -6q-91 16 -186 63q-314 155 -314 625z"/>
    <glyph glyph-name="D" unicode="D" horiz-adv-x="1413" d="M543 0h-330v1380h309q150 0 240 -12q541 -68 541 -659q0 -709 -760 -709zM371 102h174q242 0 407 110q90 60 141 183q50 123 50 269q0 245 -79 392q-62 109 -181 165q-119 55 -351 55h-161v-1174z"/>
    <glyph glyph-name="E" unicode="E" horiz-adv-x="1171" d="M1012 0h-799v1380h795v-104h-637v-502h596v-106h-596v-566h641v-102z"/>
    <glyph glyph-name="F" unicode="F" horiz-adv-x="1081" d="M371 0h-158v1380h766v-104h-608v-502h567v-104h-567v-670z"/>
    <glyph glyph-name="G" unicode="G" horiz-adv-x="1372" d="M1049 602h-318v103h469v-697q-147 -25 -342 -24q-750 0 -749 682q0 313 161 484q162 171 443 216q111 18 253 18t216 -8v-100h-199q-711 0 -711 -596q0 -150 40 -262t98 -170q58 -59 145 -95q86 -37 158 -47t157 -10t179 8v498z"/>
    <glyph glyph-name="H" unicode="H" horiz-adv-x="1454" d="M1241 0h-154v668h-718v-668h-156v1380h156v-606h718v606h154v-1380z"/>
    <glyph glyph-name="I" unicode="I" horiz-adv-x="581" d="M369 0h-156v1380h156v-1380z"/>
    <glyph glyph-name="J" unicode="J" horiz-adv-x="583" d="M213 -467v1847h156v-1304q0 -256 -66 -543h-90z"/>
    <glyph glyph-name="K" unicode="K" horiz-adv-x="1251" d="M369 670v-670h-156v1380h156v-606h163l521 606h174l-561 -647l579 -733h-192l-521 670h-163z"/>
    <glyph glyph-name="L" unicode="L" horiz-adv-x="950" d="M946 0h-749v1380h155v-1278h594v-102z"/>
    <glyph glyph-name="M" unicode="M" horiz-adv-x="1826" d="M1667 0h-156l-96 950l-24 326h-23l-80 -326l-260 -950h-237l-283 950l-82 326h-25l-18 -326l-86 -950h-139l123 1380h274l360 -1278h11l334 1278h266z"/>
    <glyph glyph-name="N" unicode="N" horiz-adv-x="1468" d="M1255 0h-262l-461 897l-172 379h-20l8 -416v-860h-135v1380h264l461 -903l170 -377h22l-10 414v866h135v-1380z"/>
    <glyph glyph-name="O" unicode="O" horiz-adv-x="1423" d="M1311 690q0 -363 -165 -538t-437 -175t-436 171q-163 172 -163 534t169 538q168 176 434 177q266 0 432 -172t166 -535zM713 86q205 0 317 150t113 450q0 300 -116 452q-115 152 -315 152t-317 -152t-117 -451q0 -301 116 -451q114 -150 319 -150z"/>
    <glyph glyph-name="P" unicode="P" horiz-adv-x="1185" d="M371 0h-158v1380h338q190 0 285 -28q254 -78 254 -366t-271 -386q-88 -31 -272 -31h-176v-569zM371 674h209q350 0 350 317q0 225 -213 273q-51 12 -144 12h-202v-602z"/>
    <glyph glyph-name="Q" unicode="Q" horiz-adv-x="1431" d="M1389 0h-639q-147 0 -228 20q-188 46 -300 216t-111 452q0 358 168 534t435 175q267 0 433 -171t166 -521q0 -223 -82 -378t-209 -227l367 2v-102zM723 94q205 0 317 151t111 447q0 296 -119 448q-118 150 -318 150t-318 -152t-118 -448t120 -446t325 -150z"/>
    <glyph glyph-name="R" unicode="R" horiz-adv-x="1265" d="M369 598v-598h-156v1380h340q195 0 297 -32t172 -116q72 -86 72 -232t-82 -241t-226 -134l428 -625h-176l-399 598h-270zM369 696h213q350 0 350 305q0 113 -60 178t-153 85q-51 12 -146 12h-204v-580z"/>
    <glyph glyph-name="S" unicode="S" horiz-adv-x="1077" d="M141 100h281q387 0 387 226q0 90 -60 156t-268 164q-74 36 -96 48q-150 74 -213 152t-63 188q0 208 166 287q145 68 335 69q189 1 293 -14v-100h-264q-373 0 -373 -207q0 -92 56 -145t167 -111l216 -111q133 -68 199 -150t65 -204q0 -362 -551 -362q-171 0 -277 14v100z "/>
    <glyph glyph-name="T" unicode="T" horiz-adv-x="993" d="M578 0h-158v1276h-418v104h987v-104h-411v-1276z"/>
    <glyph glyph-name="U" unicode="U" horiz-adv-x="1357" d="M1032 475v905h146v-884q0 -142 -43 -246t-117 -162q-142 -111 -355 -109q-212 1 -349 117q-136 117 -136 381v903h158v-911q0 -381 344 -381q160 0 256 91t96 296z"/>
    <glyph glyph-name="V" unicode="V" horiz-adv-x="1181" d="M725 0h-254l-455 1380h170l408 -1280h20l394 1280h155z"/>
    <glyph glyph-name="W" unicode="W" horiz-adv-x="1923" d="M1528 0h-232l-268 1042l-55 234h-17l-51 -234l-260 -1042h-237l-367 1380h170l266 -1042l53 -238h21l49 238l258 1042h227l265 -1042l55 -238h18l50 238l260 1042h155z"/>
    <glyph glyph-name="X" unicode="X" horiz-adv-x="1157" d="M1135 0h-181l-379 596l-376 -596h-176l464 700l-454 680h180l369 -571l362 571h174l-450 -673z"/>
    <glyph glyph-name="Y" unicode="Y" horiz-adv-x="999" d="M590 0h-164v567l-438 813h180l297 -579l47 -101h8l43 101l293 579h158l-424 -813v-567z"/>
    <glyph glyph-name="Z" unicode="Z" horiz-adv-x="1021" d="M971 0h-920v88l729 1188h-690v104h868v-90l-729 -1188h742v-102z"/>
    <glyph glyph-name="bracketleft" unicode="[" horiz-adv-x="718" d="M629 -467h-434v1952h434v-105h-287v-1742h287v-105z"/>
    <glyph glyph-name="backslash" unicode="\" horiz-adv-x="624" d="M627 -344h-125l-498 1845h125z"/>
    <glyph glyph-name="bracketright" unicode="]" horiz-adv-x="718" d="M524 -467h-436v105h287v1742h-287v105h436v-1952z"/>
    <glyph glyph-name="asciicircum" unicode="^" horiz-adv-x="1173" d="M1055 1042h-129l-336 353l-340 -353h-131l391 471h158z"/>
    <glyph glyph-name="underscore" unicode="_" horiz-adv-x="1249" d="M1247 -467h-1247v105h1247v-105z"/>
    <glyph glyph-name="grave" unicode="`" horiz-adv-x="608" d="M516 1180h-133l-291 370h170z"/>
    <glyph glyph-name="a" unicode="a" horiz-adv-x="1019" d="M872 0h-139l-8 39q-156 -53 -305 -53q-314 0 -314 297q0 129 62 219q213 63 547 112v93q0 131 -68 173t-194 42h-281v88q473 82 620 -57q82 -77 80 -234v-719zM264 287q0 -193 228 -193q96 0 223 25v399q-309 -55 -422 -92q-29 -51 -29 -139z"/>
    <glyph glyph-name="b" unicode="b" horiz-adv-x="1116" d="M158 1485h153v-488q111 37 254 37q199 0 321 -119t122 -370q0 -319 -215 -455q-150 -92 -365 -92t-270 6v1481zM311 100h117q414 0 414 432q0 395 -338 396q-106 0 -193 -21v-807z"/>
    <glyph glyph-name="c" unicode="c" horiz-adv-x="937" d="M846 102v-90q-82 -20 -200 -20q-221 0 -367 100q-78 52 -123 156t-45 250q0 311 211 448q133 84 356 84q76 0 145 -8v-100h-131q-420 0 -420 -420q0 -399 439 -400h135z"/>
    <glyph glyph-name="d" unicode="d" horiz-adv-x="1118" d="M961 0h-132l-8 41q-125 -57 -268 -57q-193 0 -320 128t-127 380q0 319 224 456q133 84 342 84q61 0 135 -6v459h154v-1485zM807 926h-113q-420 0 -420 -422q0 -220 94 -316t238 -96q95 0 201 27v807z"/>
    <glyph glyph-name="e" unicode="e" horiz-adv-x="1050" d="M911 102v-88q-150 -31 -305 -30q-244 0 -373 118t-129 392q0 549 451 548q177 0 283 -97t106 -320q0 -72 -4 -133h-674v-43q0 -214 119 -285q98 -60 262 -62h264zM793 594v70q1 136 -63 206t-179 70q-276 0 -285 -346h527z"/>
    <glyph glyph-name="f" unicode="f" horiz-adv-x="684" d="M346 0h-156v922h-155v100h155v117q0 68 11 123q45 231 350 231q61 0 119 -8v-92h-72q-209 0 -244 -158q-8 -33 -8 -98v-115h303v-100h-303v-922z"/>
    <glyph glyph-name="g" unicode="g" horiz-adv-x="1095" d="M537 -494q-449 0 -449 281q0 160 154 250q-94 49 -94 155t108 179q-131 97 -131 289t119 289t305 98q104 0 174 -25h360v-100h-217q100 -90 100 -267t-115 -273q-116 -96 -306 -95q-117 0 -199 41q-51 -45 -51 -119t74 -98h401q112 -12 186 -82t74 -191q0 -162 -138 -247 t-355 -85zM545 -389q145 0 242 52q97 53 97 145t-47 138q-48 46 -120 54h-375q-106 -82 -106 -197q0 -192 309 -192zM547 385q125 0 199 69t73 214q0 145 -74 213q-73 67 -197 67t-200 -70t-76 -213q0 -144 75 -212t200 -68z"/>
    <glyph glyph-name="h" unicode="h" horiz-adv-x="1095" d="M948 0h-157v715q0 70 -9 94q-35 119 -241 119q-125 0 -232 -17v-911h-153v1485h153v-484q147 37 297 37q262 0 324 -172q18 -49 18 -141v-725z"/>
    <glyph glyph-name="i" unicode="i" horiz-adv-x="466" d="M233 1313q-55 0 -77 20q-22 19 -21 71q0 52 22 72q23 20 77 21q54 0 76 -20q22 -19 22 -71t-22 -72t-77 -21zM311 0h-155v1022h155v-1022z"/>
    <glyph glyph-name="j" unicode="j" horiz-adv-x="468" d="M332 1406q0 -52 -22 -72t-76 -21q-54 0 -76 20q-22 19 -23 71q0 52 22 72q23 20 77 21q54 0 76 -20q22 -19 22 -71zM158 -467v1489h153v-963q0 -215 -63 -526h-90z"/>
    <glyph glyph-name="k" unicode="k" horiz-adv-x="1019" d="M311 492v-492h-155v1485h155v-891h117l387 428h176l-428 -469l463 -553h-190l-408 492h-117z"/>
    <glyph glyph-name="l" unicode="l" horiz-adv-x="464" d="M309 0h-153v1485h153v-1485z"/>
    <glyph glyph-name="m" unicode="m" horiz-adv-x="1626" d="M1477 0h-152v698q0 76 -10 105q-39 125 -213 125q-119 0 -230 -49q23 -57 23 -166v-713h-152v709q0 66 -10 98q-31 123 -205 123q-117 0 -219 -31v-899h-153v1022h133l6 -41q137 57 294 57t240 -77q160 76 318 75q254 0 313 -180q16 -47 17 -151v-705z"/>
    <glyph glyph-name="n" unicode="n" horiz-adv-x="1097" d="M948 0h-155v715q0 63 -11 94q-35 119 -231 119q-137 0 -240 -29v-899h-155v1022h133l8 -39q150 55 315 55q260 0 320 -172q16 -51 16 -141v-725z"/>
    <glyph glyph-name="o" unicode="o" horiz-adv-x="1136" d="M567 -25q-461 0 -461 533q0 283 126 411t337 128q459 0 459 -533q0 -283 -124 -411t-337 -128zM569 82q141 0 218 97t77 331q0 430 -295 430q-143 0 -220 -97t-77 -333q0 -428 297 -428z"/>
    <glyph glyph-name="p" unicode="p" horiz-adv-x="1116" d="M309 -467h-153v1489h131l10 -39q131 53 304 53t290 -124t117 -371q0 -324 -217 -463q-127 -82 -322 -82q-98 0 -160 8v-471zM309 100h119q412 0 412 432q0 395 -332 396q-88 0 -199 -25v-803z"/>
    <glyph glyph-name="q" unicode="q" horiz-adv-x="1116" d="M958 -467h-153v483q-96 -35 -244 -34q-197 0 -325 124t-130 375q0 315 218 453q150 94 399 94q119 0 235 -6v-1489zM805 926h-117q-414 0 -414 -434q0 -311 213 -381q55 -18 145 -18t173 20v813z"/>
    <glyph glyph-name="r" unicode="r" horiz-adv-x="686" d="M313 0h-157v1022h125l10 -115q168 133 334 133h63v-118h-39q-92 0 -165 -25t-171 -96v-801z"/>
    <glyph glyph-name="s" unicode="s" horiz-adv-x="886" d="M104 102h252q210 0 262 62q27 31 27 81t-39 89t-135 92l-160 80q-119 60 -170 118t-51 146q0 264 420 264q147 0 238 -14v-98h-236q-270 0 -270 -131q0 -49 36 -85t154 -96t137 -69q123 -63 174 -125t51 -152q0 -88 -35 -145q-84 -133 -403 -133q-180 0 -252 18v98z"/>
    <glyph glyph-name="t" unicode="t" horiz-adv-x="731" d="M707 96v-86q-81 -22 -229 -22t-220 70t-72 251v613h-151v100h151v166l156 53v-219h354v-100h-354v-598q0 -140 49 -184t160 -44h156z"/>
    <glyph glyph-name="u" unicode="u" horiz-adv-x="1095" d="M940 0h-129l-12 47q-150 -65 -293 -65t-224 41t-116 141q-18 55 -19 164v694h154v-692q0 -80 14 -115q37 -121 238 -121q123 0 231 35v893h156v-1022z"/>
    <glyph glyph-name="v" unicode="v" horiz-adv-x="972" d="M618 0h-249l-342 1022h166l299 -920h18l285 920h151z"/>
    <glyph glyph-name="w" unicode="w" horiz-adv-x="1619" d="M1294 0h-231l-248 922h-16l-238 -922h-235l-281 1022h160l237 -920h19l239 920h226l248 -920h18l235 920h148z"/>
    <glyph glyph-name="x" unicode="x" horiz-adv-x="946" d="M936 0h-178l-293 440l-293 -440h-162l365 530l-340 492h176l268 -410l266 410h164l-340 -492z"/>
    <glyph glyph-name="y" unicode="y" horiz-adv-x="970" d="M459 -467h-144l158 467h-98l-350 1022h159l305 -920h19l285 920h155z"/>
    <glyph glyph-name="z" unicode="z" horiz-adv-x="927" d="M854 0h-780v94l581 828h-555v100h742v-94l-584 -826h596v-102z"/>
    <glyph glyph-name="braceleft" unicode="{" horiz-adv-x="761" d="M68 446v134q104 0 156 72t52 196v258q0 111 9 151q29 127 118 179q90 51 254 51q35 0 50 -2v-105q-147 0 -215 -50t-68 -189v-281q0 -283 -209 -338v-12q101 -16 155 -96t54 -201v-338q0 -137 69 -188t214 -52v-102q-14 -2 -50 -2q-164 0 -254 51t-118 178q-8 39 -9 150 v313q0 117 -50 170t-158 53z"/>
    <glyph glyph-name="bar" unicode="|" horiz-adv-x="548" d="M334 -467h-119v1952h119v-1952z"/>
    <glyph glyph-name="braceright" unicode="}" horiz-adv-x="761" d="M694 446q-104 0 -156 -72t-53 -196v-268q0 -111 -8 -150q-29 -127 -119 -178t-254 -51q-37 0 -49 2v102q145 -1 214 51t69 189v291q0 283 207 338v12q-102 16 -155 96q-52 80 -52 201v328q0 139 -68 189t-215 50v105q12 2 49 2q162 0 253 -51t120 -179q8 -41 8 -151v-303 q1 -117 51 -170t158 -53v-134z"/>
    <glyph glyph-name="asciitilde" unicode="~" horiz-adv-x="1296" d="M868 389q-104 1 -220 59t-214 58q-141 -2 -272 -90v125q109 100 287 100q105 -1 223 -59t232 -58t229 70v-123q-102 -82 -265 -82z"/>
    <glyph glyph-name="uni00A0" unicode=" " horiz-adv-x="512"/>
    <glyph glyph-name="exclamdown" unicode="¡" horiz-adv-x="464" d="M340 931q0 -58 -24 -81t-84 -23t-84 23t-24 81t24 81q24 22 84 22t84 -22t24 -81zM326 -467h-189l35 1038h119z"/>
    <glyph glyph-name="cent" unicode="¢" horiz-adv-x="937" d="M256 500q0 -330 301 -389v802q-301 -55 -301 -413zM653 -170h-96v164q-180 16 -306 121q-144 118 -142 381q0 307 210 448q102 66 238 82v168h96v-164q113 0 168 -8v-102h-168v-818h193v-90q-76 -14 -193 -18v-164z"/>
    <glyph glyph-name="sterling" unicode="£" d="M1044 0h-917v102q186 18 186 277v256h-180v104h180v217q0 55 9 125q59 315 444 316q125 0 229 -15v-92h-217q-311 0 -311 -313v-238h416v-104h-416v-242q0 -213 -121 -291h698v-102z"/>
    <glyph glyph-name="currency" unicode="¤" horiz-adv-x="1138" d="M569 219q121 0 206 86t85 206t-85 205t-206 85t-207 -85t-86 -205t86 -206t207 -86zM971 509q0 -130 -82 -239l170 -172l-78 -78l-170 173q-107 -84 -243 -84t-240 81l-174 -172l-76 78l172 172q-84 106 -84 240t84 246l-172 170l76 77l174 -172q104 82 239 82t244 -82 l170 170l78 -77l-170 -170q82 -113 82 -243z"/>
    <glyph glyph-name="yen" unicode="¥" d="M659 0h-157v283h-381v94h381v135l-19 45h-362v92h317l-370 731h168l299 -622l45 -109h12l43 109l293 622h149l-358 -731h307v-92h-350l-17 -45v-135h367v-94h-367v-283z"/>
    <glyph glyph-name="brokenbar" unicode="¦" horiz-adv-x="548" d="M334 836h-119v649h119v-649zM334 -467h-119v651h119v-651z"/>
    <glyph glyph-name="section" unicode="§" horiz-adv-x="1116" d="M268 594q0 -66 35 -117t75 -79t109 -62l183 -92q176 49 176 205q0 90 -56 151t-247 157q-60 30 -74 36q-201 -43 -201 -199zM162 -369h268q389 0 389 219q0 88 -51 144t-143 105q-92 48 -226 112q-150 78 -213 155t-63 195q0 209 219 297q-106 61 -156 132 q-49 71 -49 171q0 197 163 275q144 69 337 69q194 0 281 -12v-98h-254q-373 0 -373 -203q0 -92 58 -148t163 -106l213 -107q133 -67 201 -149t67 -201q0 -207 -205 -301q190 -121 191 -303q0 -129 -78 -212q-79 -83 -195 -115t-274 -32t-270 13v100z"/>
    <glyph glyph-name="dieresis" unicode="¨" horiz-adv-x="933" d="M629 1303q-51 0 -71 18q-19 19 -19 69t19 68q18 18 70 18t71 -18t19 -68t-18 -68q-20 -18 -71 -19zM301 1303q-51 0 -71 18q-19 19 -19 69t19 68q20 18 72 18t72 -18t19 -68q0 -50 -20 -69q-21 -18 -72 -18z"/>
    <glyph glyph-name="copyright" unicode="©" horiz-adv-x="1740" d="M1065 397v-80q-57 -16 -149 -16q-287 0 -378 200q-36 79 -36 185q0 193 113 297q114 104 319 104q72 0 113 -6v-90h-97q-307 0 -307 -303q0 -291 320 -291h102zM870 29q287 0 473 183t187 478q0 295 -186 478q-186 184 -474 184q-287 0 -474 -184t-187 -478 q0 -295 187 -478t474 -183zM870 -82q-338 0 -560 213t-222 558t222 558t560 213t560 -213t221 -558q1 -345 -221 -558t-560 -213z"/>
    <glyph glyph-name="ordfeminine" unicode="ª" horiz-adv-x="851" d="M705 616h-113l-6 33q-116 -43 -224 -43t-172 56t-63 159q0 104 45 176q160 49 403 82v64q0 94 -48 125t-138 30h-207v68q123 25 244 25q121 1 200 -49t79 -191v-535zM433 692q52 0 142 23v289q-201 -33 -296 -64q-20 -39 -21 -104q0 -104 94 -136q29 -8 81 -8z"/>
    <glyph glyph-name="guillemotleft" unicode="«" horiz-adv-x="1056" d="M954 0h-116l-346 510l346 512h116l-297 -512zM575 0h-116l-346 510l346 512h116l-296 -512z"/>
    <glyph glyph-name="logicalnot" unicode="¬" horiz-adv-x="1204" d="M82 578h1010v-449h-129v344h-881v105z"/>
    <glyph glyph-name="uni00AD" unicode="­" horiz-adv-x="720" d="M629 465h-537v123h537v-123z"/>
    <glyph glyph-name="registered" unicode="®" horiz-adv-x="897" d="M389 1104v-148h-74v365h113q158 0 158 -104q0 -74 -72 -101l100 -160h-82l-88 148h-55zM389 1145h41q78 0 78 69q0 63 -88 64h-31v-133zM160 1139q0 -133 80 -215t207 -82q128 0 208 81t80 215t-80 213t-208 79q-127 0 -207 -79t-80 -212zM447 772q-159 0 -263 101 t-104 263t104 263q104 100 263 100t263 -99t103 -262q0 -163 -103 -265q-104 -101 -263 -101z"/>
    <glyph glyph-name="macron" unicode="¯" horiz-adv-x="978" d="M874 1298h-774v105h774v-105z"/>
    <glyph glyph-name="degree" unicode="°" horiz-adv-x="811" d="M406 1413q-80 0 -132 -51t-53 -130t53 -129t133 -50t131 50t52 129t-52 130t-132 51zM688 1231q0 -123 -80 -201t-203 -78q-122 0 -203 79t-81 202t82 200t205 77q124 0 202 -78t78 -201z"/>
    <glyph glyph-name="plusminus" unicode="±" horiz-adv-x="1187" d="M649 248h-114v416h-408v108h408v410h114v-410h410v-108h-410v-416zM1057 0h-928v102h928v-102z"/>
    <glyph glyph-name="twosuperior" unicode="²" horiz-adv-x="761" d="M639 616h-510v70q84 80 272 291q102 115 103 192q0 129 -176 129h-189v74q293 52 417 -33q77 -51 77 -157q0 -48 -22 -96q-23 -48 -45 -76t-134 -153q-112 -124 -151 -155h358v-86z"/>
    <glyph glyph-name="threesuperior" unicode="³" horiz-adv-x="761" d="M137 700h125q96 0 163 33t67 107q0 129 -242 137v80q84 8 152 49t67 99q0 57 -47 75t-125 18h-152v74q86 16 191 17q264 0 264 -166q0 -117 -166 -185q188 -45 189 -194q1 -119 -97 -176t-216 -57t-173 12v77z"/>
    <glyph glyph-name="acute" unicode="´" horiz-adv-x="608" d="M225 1180h-133l254 370h170z"/>
    <glyph glyph-name="mu" unicode="µ" horiz-adv-x="1099" d="M295 -467h-148v1489h154v-692q0 -76 12 -115q41 -119 242 -119q131 0 233 33v893h154v-1022h-123l-10 45q-135 -61 -294 -61t-220 69v-520z"/>
    <glyph glyph-name="paragraph" unicode="¶" horiz-adv-x="1173" d="M999 -467h-108v1874h-219v-1874h-107v1096q-145 4 -229 28q-285 86 -285 402t303 422q92 33 291 32h354v-1980z"/>
    <glyph glyph-name="periodcentered" unicode="·" horiz-adv-x="573" d="M288 403q-64 0 -90 25t-26 89t25 88t90 24t89 -24q24 -25 24 -89t-24 -88t-88 -25z"/>
    <glyph glyph-name="cedilla" unicode="¸" horiz-adv-x="552" d="M100 -408h76q164 0 164 97q0 63 -56 83t-163 19l45 252h102l-30 -176q225 -12 225 -170q0 -92 -72 -138t-158 -46t-133 10v69z"/>
    <glyph glyph-name="onesuperior" unicode="¹" horiz-adv-x="761" d="M664 616h-533v86h213v582l-213 -74v88l244 82h98v-678h191v-86z"/>
    <glyph glyph-name="ordmasculine" unicode="º" horiz-adv-x="911" d="M788 1004q0 -200 -92 -300t-242 -100t-240 96q-91 96 -91 296t92 299t242 99q151 0 241 -94q90 -96 90 -296zM457 690q201 0 200 309q0 160 -55 236t-145 76q-201 0 -201 -312q0 -157 56 -233t145 -76z"/>
    <glyph glyph-name="guillemotright" unicode="»" horiz-adv-x="1056" d="M225 0h-116l297 510l-297 512h116l346 -512zM604 0h-117l297 510l-297 512h117l346 -512z"/>
    <glyph glyph-name="onequarter" unicode="¼" horiz-adv-x="1792" d="M1556 0h-122v160h-392v102l330 502h184v-518h138v-86h-138v-160zM1434 244v331l6 113h-17l-53 -104l-229 -340h293zM678 616h-535v86h215v582l-213 -74v88l244 82h98v-678h191v-86zM487 0h-133l1000 1380h137z"/>
    <glyph glyph-name="onehalf" unicode="½" horiz-adv-x="1792" d="M678 616h-535v86h215v582l-213 -74v88l242 82h100v-678h191v-86zM1686 0h-529v70q66 59 273 290q100 109 100 193q0 129 -172 129h-170v74q106 18 214 18t186 -51t77 -157q0 -106 -127 -242q-31 -35 -121 -130t-106 -108h375v-86zM479 0h-133l1002 1380h135z"/>
    <glyph glyph-name="threequarters" unicode="¾" horiz-adv-x="1792" d="M240 700h122q96 0 163 33t67 107q0 129 -240 137v80q84 8 152 49t67 100q0 92 -172 92h-153v74q96 18 190 19q264 0 264 -168q0 -117 -163 -185q188 -45 188 -194q0 -117 -98 -174t-214 -57t-173 10v77zM1569 0h-123v160h-391v102l331 502h183v-518h135v-86h-135v-160z M1446 244v331l6 113h-16l-54 -104l-229 -340h293zM500 0h-133l999 1380h137z"/>
    <glyph glyph-name="questiondown" unicode="¿" horiz-adv-x="737" d="M461 827q-59 0 -83 22t-24 80t24 81q24 22 84 22t84 -22t24 -81q0 -58 -26 -80q-24 -22 -83 -22zM653 -367v-90q-88 -23 -225 -22q-369 0 -369 256q0 102 111 246q10 12 82 97t94 121q48 74 49 154v176h137q12 -90 13 -214t-135 -280q-27 -32 -57 -68t-42 -50 q-73 -88 -73 -170t70 -119t161 -37h184z"/>
    <glyph glyph-name="Agrave" unicode="À" horiz-adv-x="1218" d="M680 1548h-133l-291 371h170zM1196 0h-170l-123 371h-604l-121 -371h-155l456 1380h252zM872 475l-262 801h-22l-260 -801h544z"/>
    <glyph glyph-name="Aacute" unicode="Á" horiz-adv-x="1218" d="M651 1548h-133l254 371h170zM1196 0h-170l-123 371h-604l-121 -371h-155l456 1380h252zM872 475l-262 801h-22l-260 -801h544z"/>
    <glyph glyph-name="Acircumflex" unicode="Â" horiz-adv-x="1218" d="M971 1548h-129l-242 232l-244 -232h-129l299 340h144zM1196 0h-170l-123 371h-604l-121 -371h-155l456 1380h252zM872 475l-262 801h-22l-260 -801h544z"/>
    <glyph glyph-name="Atilde" unicode="Ã" horiz-adv-x="1218" d="M762 1620q-88 0 -171 40t-155 40q-109 0 -227 -82v108q96 92 246 93q86 0 174 -40t147 -40q109 0 207 63v-106q-80 -76 -221 -76zM1196 0h-170l-123 371h-604l-121 -371h-155l456 1380h252zM872 475l-262 801h-22l-260 -801h544z"/>
    <glyph glyph-name="Adieresis" unicode="Ä" horiz-adv-x="1218" d="M760 1671q-50 1 -70 19t-20 68t19 68t71 19q52 0 70 -18q20 -19 20 -69t-20 -68t-70 -19zM432 1671q-50 1 -70 19t-20 68t19 68t71 19q52 0 72 -18q20 -19 20 -69t-20 -68t-72 -19zM1196 0h-170l-123 371h-604l-121 -371h-155l456 1380h252zM872 475l-262 801h-22 l-260 -801h544z"/>
    <glyph glyph-name="Aring" unicode="Å" horiz-adv-x="1218" d="M823 1726q0 -94 -63 -155q-62 -61 -156 -61t-158 60q-64 62 -63 156q0 94 63 154q62 60 156 62q94 0 158 -61t63 -155zM731 1726q0 54 -37 92t-91 38t-91 -38q-37 -36 -37 -92t37 -92q37 -37 91 -37t91 37t37 92zM1196 0h-170l-123 371h-604l-121 -371h-155l456 1380h252 zM872 475l-262 801h-22l-260 -801h544z"/>
    <glyph glyph-name="AE" unicode="Æ" horiz-adv-x="1832" d="M897 475l-66 801h-20l-446 -801h532zM1698 0h-762l-31 373h-592l-207 -373h-163l774 1380h944v-104h-678l47 -504h606v-104h-598l52 -566h608v-102z"/>
    <glyph glyph-name="Ccedilla" unicode="Ç" horiz-adv-x="1161" d="M479 -408h76q164 0 164 97q0 63 -56 83t-163 19l39 221q-453 115 -453 660q0 195 61 337t171 222q213 155 532 153q137 0 180 -8v-100h-160q-245 0 -417 -116q-91 -62 -145 -184t-54 -296q0 -584 580 -584q106 0 204 8v-98q-191 -38 -401 -12l-21 -127q225 -12 226 -170 q0 -92 -72 -138t-158 -46t-133 10v69z"/>
    <glyph glyph-name="Egrave" unicode="È" horiz-adv-x="1171" d="M727 1548h-133l-291 371h170zM1012 0h-799v1380h795v-104h-637v-502h596v-106h-596v-566h641v-102z"/>
    <glyph glyph-name="Eacute" unicode="É" horiz-adv-x="1171" d="M623 1548h-134l254 371h170zM1012 0h-799v1380h795v-104h-637v-502h596v-106h-596v-566h641v-102z"/>
    <glyph glyph-name="Ecircumflex" unicode="Ê" horiz-adv-x="1171" d="M983 1548h-129l-242 232l-243 -232h-129l299 340h143zM1012 0h-799v1380h795v-104h-637v-502h596v-106h-596v-566h641v-102z"/>
    <glyph glyph-name="Edieresis" unicode="Ë" horiz-adv-x="1171" d="M778 1671q-51 1 -70 19q-20 18 -20 68t20 68t70 19q50 0 70 -18q20 -19 20 -69t-20 -68t-70 -19zM451 1671q-51 1 -71 19t-20 68t20 68t72 19q52 0 71 -18q19 -19 19 -69t-20 -68t-71 -19zM1012 0h-799v1380h795v-104h-637v-502h596v-106h-596v-566h641v-102z"/>
    <glyph glyph-name="Igrave" unicode="Ì" horiz-adv-x="581" d="M373 1548h-133l-291 371h170zM369 0h-156v1380h156v-1380z"/>
    <glyph glyph-name="Iacute" unicode="Í" horiz-adv-x="581" d="M340 1548h-133l254 371h170zM369 0h-156v1380h156v-1380z"/>
    <glyph glyph-name="Icircumflex" unicode="Î" horiz-adv-x="581" d="M666 1548h-129l-242 232l-244 -232h-129l299 340h144zM369 0h-156v1380h156v-1380z"/>
    <glyph glyph-name="Idieresis" unicode="Ï" horiz-adv-x="581" d="M455 1671q-51 1 -71 19t-19 68q0 50 19 68q18 18 70 19q52 0 71 -18q19 -19 19 -69t-18 -68q-20 -18 -71 -19zM127 1671q-51 1 -71 19t-19 68q0 50 19 68q20 18 72 19q52 0 72 -18q20 -19 19 -69t-21 -68t-71 -19zM369 0h-156v1380h156v-1380z"/>
    <glyph glyph-name="Eth" unicode="Ð" horiz-adv-x="1460" d="M416 102h176q326 0 472 170q54 63 89 171t35 238q0 229 -79 375q-61 107 -179 164q-118 56 -350 56h-164v-502h237v-104h-237v-568zM588 0h-330v670h-221v104h221v606h309q147 0 242 -12q539 -70 539 -659q0 -709 -760 -709z"/>
    <glyph glyph-name="Ntilde" unicode="Ñ" horiz-adv-x="1458" d="M893 1620q-88 0 -171 40t-155 40q-109 0 -227 -82v108q96 92 246 93q86 0 174 -40t147 -40q109 0 207 63v-106q-80 -76 -221 -76zM1255 0h-262l-461 897l-172 379h-20l8 -416v-860h-135v1380h264l461 -903l170 -377h22l-10 414v866h135v-1380z"/>
    <glyph glyph-name="Ograve" unicode="Ò" horiz-adv-x="1394" d="M791 1548h-134l-290 371h170zM1294 690q0 -363 -165 -538t-437 -175t-435 171q-163 172 -163 534t168 538t434 177q266 0 432 -172t166 -535zM696 86q205 0 318 150q112 150 112 450t-115 452q-116 152 -316 152q-201 0 -317 -152t-116 -451q0 -301 114 -451t320 -150z "/>
    <glyph glyph-name="Oacute" unicode="Ó" horiz-adv-x="1394" d="M702 1548h-133l254 371h170zM1294 690q0 -363 -165 -538t-437 -175t-435 171q-163 172 -163 534t168 538t434 177q266 0 432 -172t166 -535zM696 86q205 0 318 150q112 150 112 450t-115 452q-116 152 -316 152q-201 0 -317 -152t-116 -451q0 -301 114 -451t320 -150z "/>
    <glyph glyph-name="Ocircumflex" unicode="Ô" horiz-adv-x="1394" d="M1069 1548h-129l-242 232l-243 -232h-129l299 340h143zM1294 690q0 -363 -165 -538t-437 -175t-435 171q-163 172 -163 534t168 538t434 177q266 0 432 -172t166 -535zM696 86q205 0 318 150q112 150 112 450t-115 452q-116 152 -316 152q-201 0 -317 -152t-116 -451 q0 -301 114 -451t320 -150z"/>
    <glyph glyph-name="Otilde" unicode="Õ" horiz-adv-x="1394" d="M860 1620q-88 0 -171 40t-154 40q-109 0 -228 -82v108q96 92 246 93q86 0 174 -40t147 -40q109 0 207 63v-106q-80 -76 -221 -76zM1294 690q0 -363 -165 -538t-437 -175t-435 171q-163 172 -163 534t168 538t434 177q266 0 432 -172t166 -535zM696 86q205 0 318 150 q112 150 112 450t-115 452q-116 152 -316 152q-201 0 -317 -152t-116 -451q0 -301 114 -451t320 -150z"/>
    <glyph glyph-name="Odieresis" unicode="Ö" horiz-adv-x="1394" d="M858 1671q-50 1 -70 19t-20 68t19 68t71 19q52 0 70 -18q20 -19 20 -69t-20 -68t-70 -19zM530 1671q-51 1 -70 19q-20 18 -20 68t20 68t71 19q51 0 71 -18q20 -19 20 -69t-20 -68q-21 -18 -72 -19zM1294 690q0 -363 -165 -538t-437 -175t-435 171q-163 172 -163 534 t168 538t434 177q266 0 432 -172t166 -535zM696 86q205 0 318 150q112 150 112 450t-115 452q-116 152 -316 152q-201 0 -317 -152t-116 -451q0 -301 114 -451t320 -150z"/>
    <glyph glyph-name="multiply" unicode="×" horiz-adv-x="1187" d="M911 115l-319 319l-318 -319l-77 80l317 317l-317 315l77 80l318 -319l319 319l78 -80l-319 -315l319 -317z"/>
    <glyph glyph-name="Oslash" unicode="Ø" horiz-adv-x="1423" d="M713 86q205 0 319 150t113 458q0 308 -141 463l-519 -1010q92 -61 228 -61zM713 1290q-203 0 -320 -152t-117 -459q0 -308 142 -460l518 1010q-86 61 -223 61zM713 1397q160 0 274 -58l109 207h102l-129 -254q242 -174 242 -600q0 -366 -165 -540t-435 -175 q-152 0 -281 60l-104 -207h-105l129 252q-240 176 -239 604q0 358 168 534t434 177z"/>
    <glyph glyph-name="Ugrave" unicode="Ù" horiz-adv-x="1357" d="M803 1548h-133l-291 371h170zM1032 475v905h146v-884q0 -142 -43 -246t-117 -162q-142 -111 -355 -109q-212 1 -349 117q-136 117 -136 381v903h158v-911q0 -381 344 -381q160 0 256 91t96 296z"/>
    <glyph glyph-name="Uacute" unicode="Ú" horiz-adv-x="1357" d="M684 1548h-133l254 371h170zM1032 475v905h146v-884q0 -142 -43 -246t-117 -162q-142 -111 -355 -109q-212 1 -349 117q-136 117 -136 381v903h158v-911q0 -381 344 -381q160 0 256 91t96 296z"/>
    <glyph glyph-name="Ucircumflex" unicode="Û" horiz-adv-x="1357" d="M1053 1548h-129l-242 232l-244 -232h-129l299 340h144zM1032 475v905h146v-884q0 -142 -43 -246t-117 -162q-142 -111 -355 -109q-212 1 -349 117q-136 117 -136 381v903h158v-911q0 -381 344 -381q160 0 256 91t96 296z"/>
    <glyph glyph-name="Udieresis" unicode="Ü" horiz-adv-x="1359" d="M846 1671q-50 1 -70 19t-20 68t19 68t71 19q52 0 70 -18q20 -19 20 -69t-20 -68t-70 -19zM518 1671q-50 1 -70 19t-20 68t19 68t71 19q52 0 72 -18q20 -19 20 -69t-20 -68t-72 -19zM1030 475v905h146v-884q0 -142 -43 -246t-117 -162q-142 -111 -355 -109 q-212 1 -349 117q-136 117 -136 381v903h158v-911q0 -381 344 -381q160 0 256 91t96 296z"/>
    <glyph glyph-name="Yacute" unicode="Ý" horiz-adv-x="1136" d="M557 1548h-133l254 371h170zM651 0h-164v567l-438 813h180l297 -579l47 -101h9l43 101l293 579h157l-424 -813v-567z"/>
    <glyph glyph-name="Thorn" unicode="Þ" horiz-adv-x="1185" d="M371 455h209q350 0 350 317q0 225 -213 272q-51 12 -144 13h-202v-602zM371 0h-158v1380h158v-219h180q190 0 285 -28q254 -78 254 -366t-271 -386q-88 -31 -272 -31h-176v-350z"/>
    <glyph glyph-name="germandbls" unicode="ß" horiz-adv-x="1200" d="M545 102h231q80 0 131 39t51 114t-94 151q-31 24 -83 62t-68 50q-147 113 -148 230q0 51 24 94t55 70t97 74q66 46 79 58t48 48t35 100q0 100 -88 151q-87 51 -191 51t-190 -41q-86 -42 -115 -149q-8 -35 -8 -110v-1094h-155v1073q0 98 12 150q37 143 163 211t261 68 t226 -28q91 -26 160 -97t69 -187t-117 -208q-45 -35 -105 -79q-59 -43 -84 -72t-25 -77t105 -131l150 -113q137 -106 137 -242t-89 -207t-247 -71t-227 12v100z"/>
    <glyph glyph-name="agrave" unicode="à" horiz-adv-x="1019" d="M670 1180h-133l-291 370h170zM872 0h-139l-8 39q-156 -53 -305 -53q-314 0 -314 297q0 129 62 219q213 63 547 112v93q0 131 -68 173t-194 42h-281v88q473 82 620 -57q82 -77 80 -234v-719zM264 287q0 -193 228 -193q96 0 223 25v399q-309 -55 -422 -92q-29 -51 -29 -139 z"/>
    <glyph glyph-name="aacute" unicode="á" horiz-adv-x="1019" d="M512 1180h-133l254 370h170zM872 0h-139l-8 39q-156 -53 -305 -53q-314 0 -314 297q0 129 62 219q213 63 547 112v93q0 131 -68 173t-194 42h-281v88q473 82 620 -57q82 -77 80 -234v-719zM264 287q0 -193 228 -193q96 0 223 25v399q-309 -55 -422 -92q-29 -51 -29 -139z "/>
    <glyph glyph-name="acircumflex" unicode="â" horiz-adv-x="1019" d="M885 1180h-129l-242 231l-244 -231h-129l299 340h144zM872 0h-139l-8 39q-156 -53 -305 -53q-314 0 -314 297q0 129 62 219q213 63 547 112v93q0 131 -68 173t-194 42h-281v88q473 82 620 -57q82 -77 80 -234v-719zM264 287q0 -193 228 -193q96 0 223 25v399 q-309 -55 -422 -92q-29 -51 -29 -139z"/>
    <glyph glyph-name="atilde" unicode="ã" horiz-adv-x="1019" d="M678 1251q-88 0 -171 40t-155 40q-109 0 -227 -82v109q96 92 246 92q86 0 174 -40t147 -40q109 1 207 64v-107q-80 -76 -221 -76zM872 0h-139l-8 39q-156 -53 -305 -53q-314 0 -314 297q0 129 62 219q213 63 547 112v93q0 131 -68 173t-194 42h-281v88q473 82 620 -57 q82 -77 80 -234v-719zM264 287q0 -193 228 -193q96 0 223 25v399q-309 -55 -422 -92q-29 -51 -29 -139z"/>
    <glyph glyph-name="adieresis" unicode="ä" horiz-adv-x="1019" d="M674 1303q-51 0 -71 18q-19 19 -19 69t19 68t71 18t70 -18q20 -18 20 -68t-20 -68t-70 -19zM346 1303q-51 0 -71 18q-19 19 -19 69t19 68t71 18t72 -18t20 -68t-20 -69q-21 -18 -72 -18zM872 0h-139l-8 39q-156 -53 -305 -53q-314 0 -314 297q0 129 62 219 q213 63 547 112v93q0 131 -68 173t-194 42h-281v88q473 82 620 -57q82 -77 80 -234v-719zM264 287q0 -193 228 -193q96 0 223 25v399q-309 -55 -422 -92q-29 -51 -29 -139z"/>
    <glyph glyph-name="aring" unicode="å" horiz-adv-x="1019" d="M733 1378q0 -94 -63 -155q-62 -61 -156 -61t-158 60q-64 62 -63 156q0 94 63 154q62 60 156 61q94 0 158 -60q63 -61 63 -155zM641 1378q0 55 -37 92t-91 37t-91 -37t-37 -92t37 -92t91 -37t91 37t37 92zM872 0h-139l-8 39q-156 -53 -305 -53q-314 0 -314 297 q0 129 62 219q213 63 547 112v93q0 131 -68 173t-194 42h-281v88q473 82 620 -57q82 -77 80 -234v-719zM264 287q0 -193 228 -193q96 0 223 25v399q-309 -55 -422 -92q-29 -51 -29 -139z"/>
    <glyph glyph-name="ae" unicode="æ" horiz-adv-x="1642" d="M260 293q0 -89 70 -145t196 -56t250 53q-55 100 -55 349q-307 -23 -438 -68q-23 -43 -23 -133zM1495 102v-88q-147 -30 -355 -30t-302 86q-160 -86 -346 -86q-385 0 -386 307q0 141 54 217q174 61 559 86v115q0 136 -79 173t-198 38h-268v90q197 29 299 28 q285 0 352 -161q106 166 328 165q173 0 277 -99t104 -320q0 -51 -4 -129h-660v-64q0 -250 138 -301q74 -27 209 -27h278zM1382 666q0 134 -61 202t-172 68q-271 0 -279 -340h510q2 6 2 70z"/>
    <glyph glyph-name="ccedilla" unicode="ç" horiz-adv-x="925" d="M350 -408h76q164 0 164 97q0 63 -56 83t-163 19l41 227q-313 94 -314 480q0 311 211 448q133 84 357 84q76 0 145 -8v-100h-131q-420 0 -420 -420q0 -399 438 -400h136v-90q-82 -20 -178 -20t-146 6l-23 -131q225 -12 226 -170q0 -92 -72 -138t-158 -46t-133 10v69z"/>
    <glyph glyph-name="egrave" unicode="è" horiz-adv-x="1050" d="M696 1180h-133l-291 370h170zM911 102v-88q-150 -31 -305 -30q-244 0 -373 118t-129 392q0 549 451 548q177 0 283 -97t106 -320q0 -72 -4 -133h-674v-43q0 -214 119 -285q98 -60 262 -62h264zM793 594v70q1 136 -63 206t-179 70q-276 0 -285 -346h527z"/>
    <glyph glyph-name="eacute" unicode="é" horiz-adv-x="1050" d="M551 1180h-133l254 370h170zM911 102v-88q-150 -31 -305 -30q-244 0 -373 118t-129 392q0 549 451 548q177 0 283 -97t106 -320q0 -72 -4 -133h-674v-43q0 -214 119 -285q98 -60 262 -62h264zM793 594v70q1 136 -63 206t-179 70q-276 0 -285 -346h527z"/>
    <glyph glyph-name="ecircumflex" unicode="ê" horiz-adv-x="1050" d="M915 1180h-129l-241 231l-244 -231h-129l299 340h143zM911 102v-88q-150 -31 -305 -30q-244 0 -373 118t-129 392q0 549 451 548q177 0 283 -97t106 -320q0 -72 -4 -133h-674v-43q0 -214 119 -285q98 -60 262 -62h264zM793 594v70q1 136 -63 206t-179 70 q-276 0 -285 -346h527z"/>
    <glyph glyph-name="edieresis" unicode="ë" horiz-adv-x="1050" d="M709 1303q-51 0 -71 18q-20 19 -20 69t20 68t70 18q52 0 71 -18t19 -68t-18 -68q-20 -18 -71 -19zM381 1303q-51 0 -71 18q-19 19 -19 69t19 68q20 18 72 18t72 -18t19 -68q0 -50 -20 -69q-21 -18 -72 -18zM911 102v-88q-150 -31 -305 -30q-244 0 -373 118t-129 392 q0 549 451 548q177 0 283 -97t106 -320q0 -72 -4 -133h-674v-43q0 -214 119 -285q98 -60 262 -62h264zM793 594v70q1 136 -63 206t-179 70q-276 0 -285 -346h527z"/>
    <glyph glyph-name="igrave" unicode="ì" horiz-adv-x="466" d="M307 1180h-133l-291 370h170zM311 0h-155v1022h155v-1022z"/>
    <glyph glyph-name="iacute" unicode="í" horiz-adv-x="466" d="M289 1180h-133l254 370h170zM311 0h-155v1022h155v-1022z"/>
    <glyph glyph-name="icircumflex" unicode="î" horiz-adv-x="466" d="M606 1180h-129l-241 231l-244 -231h-129l299 340h143zM311 0h-155v1022h155v-1022z"/>
    <glyph glyph-name="idieresis" unicode="ï" horiz-adv-x="466" d="M397 1303q-51 0 -70 18q-19 19 -19 69t18 68q20 18 71 18t71 -18t19 -68q0 -50 -19 -69q-20 -18 -71 -18zM70 1303q-51 0 -71 18q-19 19 -19 69t19 68t71 18t72 -18t20 -68t-20 -68t-72 -19zM311 0h-155v1022h155v-1022z"/>
    <glyph glyph-name="eth" unicode="ð" horiz-adv-x="1136" d="M272 510q0 -222 80 -326t214 -104t216 110t82 332t-81 320t-214 98q-297 0 -297 -430zM1030 555q0 -289 -127 -435t-335 -146t-335 128t-127 400t126 406t318 134t277 -122q-61 205 -206 348l-240 -140l-55 76l221 129q-92 72 -197 117l86 72q121 -55 215 -127l230 133 l53 -76l-207 -121q303 -281 303 -776z"/>
    <glyph glyph-name="ntilde" unicode="ñ" horiz-adv-x="1134" d="M727 1251q-88 0 -171 40t-155 40q-109 0 -227 -82v109q96 92 246 92q86 0 174 -40t147 -40q109 1 207 64v-107q-80 -76 -221 -76zM958 0h-155v715q0 63 -10 94q-35 119 -232 119q-137 0 -239 -29v-899h-156v1022h133l8 -39q150 55 316 55q260 0 319 -172q16 -51 16 -141 v-725z"/>
    <glyph glyph-name="ograve" unicode="ò" horiz-adv-x="1136" d="M700 1180h-133l-291 370h170zM567 -25q-461 0 -461 533q0 283 126 411t337 128q459 0 459 -533q0 -283 -124 -411t-337 -128zM569 82q141 0 218 97t77 331q0 430 -295 430q-143 0 -220 -97t-77 -333q0 -428 297 -428z"/>
    <glyph glyph-name="oacute" unicode="ó" horiz-adv-x="1136" d="M575 1180h-133l254 370h170zM567 -25q-461 0 -461 533q0 283 126 411t337 128q459 0 459 -533q0 -283 -124 -411t-337 -128zM569 82q141 0 218 97t77 331q0 430 -295 430q-143 0 -220 -97t-77 -333q0 -428 297 -428z"/>
    <glyph glyph-name="ocircumflex" unicode="ô" horiz-adv-x="1136" d="M938 1180h-129l-242 231l-243 -231h-129l299 340h143zM567 -25q-461 0 -461 533q0 283 126 411t337 128q459 0 459 -533q0 -283 -124 -411t-337 -128zM569 82q141 0 218 97t77 331q0 430 -295 430q-143 0 -220 -97t-77 -333q0 -428 297 -428z"/>
    <glyph glyph-name="otilde" unicode="õ" horiz-adv-x="1136" d="M731 1251q-88 0 -171 40t-154 40q-109 0 -228 -82v109q96 92 246 92q86 0 174 -40t147 -40q109 1 207 64v-107q-80 -76 -221 -76zM567 -25q-461 0 -461 533q0 283 126 411t337 128q459 0 459 -533q0 -283 -124 -411t-337 -128zM569 82q141 0 218 97t77 331 q0 430 -295 430q-143 0 -220 -97t-77 -333q0 -428 297 -428z"/>
    <glyph glyph-name="odieresis" unicode="ö" horiz-adv-x="1136" d="M735 1303q-51 0 -70 18q-19 19 -19 69t18 68q20 18 71 18t71 -18t19 -68q0 -50 -19 -69q-20 -18 -71 -18zM408 1303q-51 0 -71 18q-19 19 -19 69t18 68q20 18 72 18t72 -18t20 -68t-20 -68t-72 -19zM567 -25q-461 0 -461 533q0 283 126 411t337 128q459 0 459 -533 q0 -283 -124 -411t-337 -128zM569 82q141 0 218 97t77 331q0 430 -295 430q-143 0 -220 -97t-77 -333q0 -428 297 -428z"/>
    <glyph glyph-name="divide" unicode="÷" horiz-adv-x="1187" d="M595 750q-58 0 -83 22t-25 80q0 57 24 80q24 22 84 22t83 -22q22 -22 22 -80q0 -57 -23 -80q-24 -22 -82 -22zM1055 457h-922v106h922v-106zM595 66q-58 0 -83 22t-25 80q0 57 24 80q24 22 84 22t83 -22q22 -22 22 -80q0 -57 -23 -80q-24 -22 -82 -22z"/>
    <glyph glyph-name="oslash" unicode="ø" horiz-adv-x="1136" d="M567 80q311 0 312 442q0 219 -86 328l-377 -733q61 -37 151 -37zM571 942q-311 0 -311 -442q0 -219 86 -328l377 735q-63 35 -152 35zM569 1047q113 0 203 -39l92 186h105l-115 -225q176 -127 176 -455q0 -283 -125 -411t-338 -128q-115 0 -198 39l-95 -184h-104l115 225 q-178 125 -179 453q0 283 126 411t337 128z"/>
    <glyph glyph-name="ugrave" unicode="ù" horiz-adv-x="1095" d="M690 1180h-133l-291 370h170zM940 0h-129l-12 47q-150 -65 -293 -65t-224 41t-116 141q-18 55 -19 164v694h154v-692q0 -80 14 -115q37 -121 238 -121q123 0 231 35v893h156v-1022z"/>
    <glyph glyph-name="uacute" unicode="ú" horiz-adv-x="1095" d="M530 1180h-133l254 370h170zM940 0h-129l-12 47q-150 -65 -293 -65t-224 41t-116 141q-18 55 -19 164v694h154v-692q0 -80 14 -115q37 -121 238 -121q123 0 231 35v893h156v-1022z"/>
    <glyph glyph-name="ucircumflex" unicode="û" horiz-adv-x="1095" d="M915 1180h-129l-241 231l-244 -231h-129l299 340h143zM940 0h-129l-12 47q-150 -65 -293 -65t-224 41t-116 141q-18 55 -19 164v694h154v-692q0 -80 14 -115q37 -121 238 -121q123 0 231 35v893h156v-1022z"/>
    <glyph glyph-name="udieresis" unicode="ü" horiz-adv-x="1095" d="M707 1303q-51 0 -71 18q-20 19 -20 69t20 68t70 18q52 0 71 -18t19 -68t-18 -68q-20 -18 -71 -19zM379 1303q-51 0 -71 18q-19 19 -19 69t19 68q20 18 72 18t72 -18t19 -68q0 -50 -20 -69q-21 -18 -72 -18zM940 0h-129l-12 47q-150 -65 -293 -65t-224 41t-116 141 q-18 55 -19 164v694h154v-692q0 -80 14 -115q37 -121 238 -121q123 0 231 35v893h156v-1022z"/>
    <glyph glyph-name="yacute" unicode="ý" horiz-adv-x="1050" d="M526 1180h-133l254 370h170zM492 -467h-144l158 467h-98l-351 1022h160l305 -920h19l284 920h156z"/>
    <glyph glyph-name="thorn" unicode="þ" horiz-adv-x="1116" d="M309 100h119q412 0 412 432q0 395 -336 396q-102 0 -195 -21v-807zM309 -467h-153v1835h143l4 -379q113 45 289 45t296 -123t120 -370q0 -324 -217 -463q-127 -82 -322 -82q-98 0 -160 8v-471z"/>
    <glyph glyph-name="ydieresis" unicode="ÿ" horiz-adv-x="1050" d="M686 1303q-51 0 -71 18q-19 19 -19 69t19 68t71 18t70 -18q20 -18 20 -68t-19 -69q-20 -18 -71 -18zM358 1303q-51 0 -70 18q-20 19 -20 69t20 68t71 18t71 -18t20 -68t-20 -68q-21 -18 -72 -19zM492 -467h-144l158 467h-98l-351 1022h160l305 -920h19l284 920h156z"/>
    <glyph glyph-name="dotlessi" unicode="ı" horiz-adv-x="466" d="M311 0h-155v1022h155v-1022z"/>
    <glyph glyph-name="Lslash" unicode="Ł" horiz-adv-x="999" d="M995 0h-749v561l-189 -92v113l189 92v706h155v-630l349 172v-113l-349 -172v-535h594v-102z"/>
    <glyph glyph-name="lslash" unicode="ł" horiz-adv-x="612" d="M381 0h-154v555l-168 -86v113l168 88v815h154v-735l170 90v-115l-170 -90v-635z"/>
    <glyph glyph-name="OE" unicode="Œ" horiz-adv-x="2113" d="M1956 0h-826v219q-131 -240 -430 -239q-266 0 -428 172t-162 532t168 538q167 178 424 177q299 0 428 -242v223h822v-104h-672v-502h629v-106h-629v-566h676v-102zM709 88q197 0 305 150t106 450q0 300 -111 452t-303 152t-309 -154t-117 -449q0 -297 116 -449t313 -152z "/>
    <glyph glyph-name="oe" unicode="œ" horiz-adv-x="1800" d="M1542 590v67q0 135 -66 206q-67 71 -187 71q-121 0 -199 -85t-82 -259h534zM561 84q291 0 291 428t-291 428t-291 -428t291 -428zM1655 96v-88q-147 -31 -307 -31q-319 0 -422 224q-92 -225 -371 -226q-449 0 -449 533q0 278 125 408t332 131q270 0 371 -226 q90 219 364 219q176 0 285 -100t109 -326q0 -78 -6 -127h-680v-45q0 -214 119 -284q99 -60 266 -62h264z"/>
    <glyph glyph-name="Scaron" unicode="Š" horiz-adv-x="1124" d="M637 1526h-137l-273 370h119l223 -264l219 264h119zM176 100h281q387 0 387 226q0 90 -60 156t-268 164q-74 36 -96 48q-150 74 -213 152t-63 188q-1 208 166 287q145 68 335 69q189 1 293 -14v-100h-264q-373 0 -373 -207q0 -92 55 -145t168 -111l215 -111 q133 -68 199 -150t66 -204q0 -362 -551 -362q-171 0 -277 14v100z"/>
    <glyph glyph-name="scaron" unicode="š" horiz-adv-x="948" d="M543 1178h-137l-273 370h119l223 -264l219 264h119zM143 102h252q210 0 262 62q27 31 27 81t-39 89t-135 92q-20 8 -50 24t-65 32q-156 76 -211 138t-55 150q0 264 420 264q147 0 237 -14v-98h-235q-270 0 -270 -131q-1 -49 35 -85t154 -96t138 -69q123 -63 174 -125 q52 -62 52 -152q0 -88 -36 -145q-84 -133 -403 -133q-182 0 -252 18v98z"/>
    <glyph glyph-name="Ydieresis" unicode="Ÿ" horiz-adv-x="1136" d="M735 1671q-51 1 -70 19t-19 68t18 68q20 18 71 19q51 0 71 -18q20 -19 19 -69q1 -50 -19 -68t-71 -19zM408 1671q-50 1 -70 19t-20 68t18 68q20 18 72 19q52 0 72 -18q20 -19 20 -69t-20 -68t-72 -19zM651 0h-164v567l-438 813h180l297 -579l47 -101h9l43 101l293 579 h157l-424 -813v-567z"/>
    <glyph glyph-name="Zcaron" unicode="Ž" horiz-adv-x="1114" d="M641 1546h-137l-273 371h119l223 -264l220 264h118zM1012 0h-920v88l729 1188h-690v104h868v-90l-729 -1188h742v-102z"/>
    <glyph glyph-name="zcaron" unicode="ž" horiz-adv-x="944" d="M555 1178h-137l-273 370h119l223 -264l220 264h118zM864 0h-780v94l582 828h-555v100h741v-94l-584 -826h596v-102z"/>
    <glyph glyph-name="florin" unicode="ƒ" horiz-adv-x="974" d="M12 -373q205 0 264 160q14 35 21 94l119 867h-242l14 102h240l39 285q12 88 27 133q74 231 380 231q51 0 121 -8l-16 -100h-72q-217 0 -266 -152q-14 -47 -20 -92l-39 -297h321l-14 -102h-320l-116 -867q-10 -76 -25 -121q-76 -236 -385 -235h-66l17 102h18z"/>
    <glyph glyph-name="circumflex" unicode="ˆ" horiz-adv-x="980" d="M862 1180h-129l-241 231l-244 -231h-129l299 340h143z"/>
    <glyph glyph-name="caron" unicode="ˇ" horiz-adv-x="980" d="M559 1178h-137l-272 370h118l224 -264l219 264h118z"/>
    <glyph glyph-name="breve" unicode="˘" horiz-adv-x="974" d="M844 1534q0 -342 -358 -342t-357 342h102q6 -236 255 -236t255 236h103z"/>
    <glyph glyph-name="dotaccent" unicode="˙" horiz-adv-x="466" d="M233 1313q-55 0 -77 20q-22 19 -21 71q0 52 22 72q23 20 77 21q54 0 76 -20q22 -19 22 -71t-22 -72t-77 -21z"/>
    <glyph glyph-name="ring" unicode="˚" horiz-adv-x="567" d="M504 1358q0 -94 -64 -156t-156 -61q-93 0 -157 61q-63 62 -63 156t62 154q64 60 158 60t156 -60q64 -60 64 -154zM412 1358q0 55 -37 92t-91 37t-91 -37t-37 -92t37 -92t91 -37t91 37t37 92z"/>
    <glyph glyph-name="ogonek" unicode="˛" horiz-adv-x="559" d="M467 -408v-63q-53 -16 -129 -16q-252 0 -252 198q0 164 207 289h115q-94 -70 -150 -134q-55 -65 -55 -142q0 -131 196 -132h68z"/>
    <glyph glyph-name="tilde" unicode="˜" horiz-adv-x="978" d="M653 1251q-88 0 -171 40t-154 40q-109 0 -228 -82v109q96 92 246 92q86 0 174 -40t148 -40q108 1 206 64v-107q-80 -76 -221 -76z"/>
    <glyph glyph-name="hungarumlaut" unicode="˝" horiz-adv-x="976" d="M594 1180h-123l254 370h160zM215 1180h-123l254 370h160z"/>
    <glyph glyph-name="pi" unicode="π" horiz-adv-x="1273" d="M1102 -12q-143 0 -207 70q-63 71 -64 229v635h-440v-922h-155v922h-179v100h1139v-100h-209v-617q0 -125 42 -167t140 -42h27v-100q-57 -8 -94 -8z"/>
    <glyph glyph-name="endash" unicode="–" horiz-adv-x="1044" d="M1044 473h-1044v105h1044v-105z"/>
    <glyph glyph-name="emdash" unicode="—" horiz-adv-x="1658" d="M1659 473h-1659v105h1659v-105z"/>
    <glyph glyph-name="quoteleft" unicode="‘" horiz-adv-x="493" d="M129 1014q0 92 56 228t128 243h80l-129 -387q51 -4 75 -27q23 -23 23 -79q-1 -109 -118 -107q-115 0 -115 129z"/>
    <glyph glyph-name="quoteright" unicode="’" horiz-adv-x="493" d="M131 1390q0 56 29 82t90 25q115 0 115 -129q1 -92 -57 -228t-128 -241h-80l129 385q-51 4 -75 27t-23 79z"/>
    <glyph glyph-name="quotesinglbase" unicode="‚" horiz-adv-x="493" d="M131 97q0 108 117 108t117 -129q1 -92 -57 -232t-128 -247h-80l129 395q-51 4 -75 26t-23 79z"/>
    <glyph glyph-name="quotedblleft" unicode="“" horiz-adv-x="847" d="M129 1014q0 92 56 228t128 243h80l-129 -387q51 -4 75 -27q23 -23 23 -79q-1 -109 -118 -107q-115 0 -115 129zM717 995q0 -111 -119 -110q-117 0 -117 129q0 92 57 228q56 136 128 243h79l-129 -387q51 -4 76 -27t25 -76z"/>
    <glyph glyph-name="quotedblright" unicode="”" horiz-adv-x="847" d="M483 1389q0 109 119 108q117 0 117 -129q0 -92 -57 -228t-127 -241h-80l129 385q-51 4 -76 27t-25 78zM131 1390q0 56 29 82t90 25q115 0 115 -129q1 -92 -57 -228t-128 -241h-80l129 385q-51 4 -75 27t-23 79z"/>
    <glyph glyph-name="quotedblbase" unicode="„" horiz-adv-x="847" d="M483 96q0 109 118 109t118 -129q0 -92 -57 -232t-127 -247h-80l129 395q-51 4 -76 26t-25 78zM131 97q0 108 117 108t117 -129q1 -92 -57 -232t-128 -247h-80l129 395q-51 4 -75 26t-23 79z"/>
    <glyph glyph-name="dagger" unicode="†" horiz-adv-x="983" d="M528 -342h-73l-45 913l41 420l-359 -35v146l359 -37l-35 420h151l-35 -420l359 37v-146l-359 35l37 -420z"/>
    <glyph glyph-name="daggerdbl" unicode="‡" horiz-adv-x="983" d="M567 -342h-151l35 418l-359 -37v147l359 -36l-41 421l41 420l-359 -35v146l359 -37l-35 420h151l-35 -420l359 37v-146l-359 35l37 -420l-37 -421l359 36v-145l-359 35z"/>
    <glyph glyph-name="bullet" unicode="•" horiz-adv-x="700" d="M532 502q0 -82 -48 -130t-133 -48t-134 47t-49 130t49 130t134 47t133 -47t48 -129z"/>
    <glyph glyph-name="ellipsis" unicode="…" horiz-adv-x="1439" d="M1193 -10q-60 0 -85 24t-25 83q0 60 25 83t85 23t84 -23q23 -23 23 -83t-23 -84q-24 -23 -84 -23zM720 -10q-60 0 -85 24t-25 83q0 60 25 83t85 23t84 -23t24 -83t-24 -84q-24 -23 -84 -23zM247 -10q-60 0 -85 24t-25 83q0 60 25 83t85 23t84 -23q23 -23 23 -83t-23 -84 q-24 -23 -84 -23z"/>
    <glyph glyph-name="perthousand" unicode="‰" horiz-adv-x="2541" d="M2132 -8q-145 0 -247 101q-101 101 -101 289t101 290t247 102t246 -101q102 -101 102 -289t-101 -291q-102 -101 -247 -101zM2132 78q96 0 161 78t65 226t-65 226t-160 78t-162 -78t-67 -226t66 -226t162 -78zM410 606q-144 0 -246 102t-103 289t101 289t248 102 t246 -100q102 -102 102 -290t-102 -290t-246 -102zM410 690q96 0 160 78t65 227q0 149 -65 227q-66 78 -160 78t-161 -78t-67 -226q0 -150 66 -228t162 -78zM1370 -8q-145 0 -247 101q-101 101 -101 289t101 290t247 102t246 -101q102 -101 102 -289t-101 -291 q-102 -101 -247 -101zM1370 78q96 0 161 78t65 226t-65 226t-160 78t-162 -78t-67 -226t66 -226t162 -78zM442 0h-135l1028 1380h138z"/>
    <glyph glyph-name="guilsinglleft" unicode="‹" horiz-adv-x="688" d="M575 0h-116l-346 510l346 512h116l-296 -512z"/>
    <glyph glyph-name="guilsinglright" unicode="›" horiz-adv-x="688" d="M227 0h-114l295 510l-295 512h114l348 -512z"/>
    <glyph glyph-name="fraction" unicode="⁄" horiz-adv-x="1138" d="M152 0h-142l975 1380h143z"/>
    <glyph glyph-name="Euro" unicode="€" d="M1034 96v-100q-111 -12 -209 -12q-217 0 -395 99q-96 53 -164 157t-92 252h-149v94h141q-4 53 -4 97t6 87h-143v92h153q33 186 141 306q199 218 561 218q158 0 212 -10l-31 -100h-123q-518 0 -600 -414h612l-24 -92h-598q-4 -53 -4 -92t4 -92h551l-25 -94h-514 q76 -395 569 -396h125z"/>
    <glyph glyph-name="trademark" unicode="™" horiz-adv-x="1497" d="M1434 690h-107v602h-20l-201 -602h-158l-205 602h-18v-602h-96v690h190l207 -606h16l201 606h191v-690zM354 690h-112v608h-211v82h530v-82h-207v-608z"/>
    <glyph glyph-name="Omega" unicode="Ω" horiz-adv-x="1435" d="M717 1397q262 0 435 -172t173 -494q0 -209 -90 -375t-240 -252h330v-104h-498v104q143 70 241 228q97 158 97 410t-124 401q-125 149 -325 149t-324 -150t-124 -400q0 -252 98 -410t242 -228v-104h-497v104h327q-147 86 -237 252t-90 375q0 319 172 493t434 173z"/>
    <glyph glyph-name="partialdiff" unicode="∂" d="M258 422q0 -168 82 -251t224 -83t235 130q94 130 94 347q0 127 -16 207q-102 64 -253 64q-150 0 -258 -102t-108 -312zM274 1276h-149v96q71 12 185 12q239 0 426 -102t261 -352q41 -135 41 -312q0 -334 -142 -484t-361 -150q-180 0 -304 107q-123 107 -123 347t146 371 q145 131 344 131q135 0 260 -51q-49 195 -210 291t-374 96z"/>
    <glyph glyph-name="Delta" unicode="∆" horiz-adv-x="1239" d="M217 102h789l-385 1174h-23zM741 1380l465 -1380h-1173l456 1380h252z"/>
    <glyph glyph-name="product" unicode="∏" horiz-adv-x="1417" d="M1176 -467h-154v1743h-627v-1743h-153v1743h-191v104h1315v-104h-190v-1743z"/>
    <glyph glyph-name="summation" unicode="∑" horiz-adv-x="1067" d="M995 -467h-923v90l553 854l-545 813v90h915v-104h-739l520 -774l-559 -867h778v-102z"/>
    <glyph glyph-name="minus" unicode="−" horiz-adv-x="1187" d="M1055 459h-922v104h922v-104z"/>
    <glyph glyph-name="radical" unicode="√" horiz-adv-x="1011" d="M1223 1702v-98h-265l-286 -1604h-228l-403 1022h168l350 -922h21l284 1602h359z"/>
    <glyph glyph-name="infinity" unicode="∞" horiz-adv-x="1628" d="M1198 315q94 1 160 53t66 144t-67 142t-159 51q-155 0 -321 -193q174 -197 321 -197zM422 215q-141 0 -236 79q-94 79 -94 218t96 218t234 79q213 0 393 -219q193 217 391 217q142 0 236 -80t94 -219t-96 -217t-234 -78q-211 2 -393 219q-193 -217 -391 -217zM416 707 q-78 -1 -145 -53t-67 -144t68 -142q66 -50 158 -51q156 0 322 193q-49 55 -88 91t-104 71q-66 35 -144 35z"/>
    <glyph glyph-name="integral" unicode="∫" horiz-adv-x="686" d="M-158 -508q201 0 262 160q14 33 23 94l217 1600q8 66 27 124q76 231 381 232q51 0 120 -8l-16 -101h-72q-217 0 -268 -151q-10 -31 -18 -92l-215 -1604q-10 -76 -25 -121q-76 -236 -385 -235h-68l17 102h20z"/>
    <glyph glyph-name="approxequal" unicode="≈" horiz-adv-x="1187" d="M805 238q-74 0 -210 41t-210 40q-143 0 -252 -65v115q109 59 246 59q74 0 210 -41t212 -41q137 0 254 66v-115q-113 -59 -250 -59zM805 596q-74 0 -210 41t-210 41q-143 0 -252 -66v115q109 59 246 59q74 0 210 -41t212 -40q137 -1 254 65v-115q-113 -59 -250 -59z"/>
    <glyph glyph-name="notequal" unicode="≠" horiz-adv-x="1187" d="M1061 274h-504l-264 -630h-125l264 630h-307v107h352l109 260h-461v107h506l260 622h127l-262 -622h305v-107h-350l-109 -260h459v-107z"/>
    <glyph glyph-name="lessequal" unicode="≤" d="M971 0h-795v100h795v-100zM891 209h-158l-514 508l514 504h158l-514 -504z"/>
    <glyph glyph-name="greaterequal" unicode="≥" d="M971 0h-797v100h797v-100zM928 717l-516 -508h-156l514 508l-514 504h156z"/>
    <glyph glyph-name="lozenge" unicode="◊" horiz-adv-x="980" d="M502 123l278 567l-278 565h-21l-280 -565l280 -567h21zM565 1380l344 -690l-346 -690h-145l-346 690l348 690h145z"/>
    <glyph glyph-name="uniF8FF" unicode="" horiz-adv-x="2205" d="M1563 526h92q74 22 74 86t-99 64h-67v-150zM1836 377q146 0 220 76q47 47 47 115t-38 112t-94 43q-118 0 -118 -94q1 -31 19 -49t42 -18t40 11q14 12 14 31h31q0 -31 -23 -51q-22 -21 -60 -21t-65 26t-27 77t40 83t106 32t115 -50t49 -125q0 -115 -90 -171t-225 -56 q-41 0 -84 6l-88 146h-84v-144h-33v346h86q110 0 133 -37q12 -19 12 -53q0 -69 -82 -106l80 -127q20 -2 77 -2zM698 676v-320h-34v320h-115v26h309l113 -317l110 317h35l-121 -346h-51l-113 320h-133zM1407 -78q113 0 199 47t86 156q0 72 -43 110q-43 37 -95 37t-83 -24 q-29 -24 -29 -61q1 -76 63 -76q47 0 51 43h29q0 -31 -23 -51q-24 -19 -62 -19t-64 27t-25 75q0 48 39 80q40 33 106 33t115 -45t49 -129q0 -119 -92 -174t-223 -55q-51 0 -111 8l-90 323l-82 -321h-47l-82 321q-12 -49 -92 -317q-20 -76 -20 -131q0 -109 62 -177 q61 -68 149 -69q88 0 144 43q56 42 56 102t-26 93q-27 33 -74 32q-86 0 -86 -69q0 -20 14 -34t33 -15v-29q-31 0 -53 22t-23 61q0 41 31 67t85 26t91 -40t37 -112q-1 -72 -63 -122q-62 -52 -164 -52t-172 76t-70 197q0 72 20 139l95 322q-83 20 -183 20t-195 -55t-95 -170 q0 -68 41 -120t98 -52q57 -1 94 29t37 70t-20 65t-46 25q-60 -1 -59 -48h-29q0 33 24 53q24 21 62 21t68 -32q29 -32 29 -83t-44 -89t-114 -38t-122 58t-52 139q0 125 102 189t222 65q120 0 233 -33l82 -322l82 322h47l94 -328q53 -4 84 -4zM1567 1059h30q1 -37 -25 -60 t-68 -23t-72 33t-29 85q0 52 44 88q45 36 115 37t124 -57t53 -144q0 -170 -211 -236q-29 -8 -124 -33t-144 -59q-72 -51 -72 -164q0 -152 112 -151q113 0 113 151q0 121 -96 136v26q38 0 69 -22q60 -41 60 -149q0 -109 -54 -139t-92 -30q-147 0 -147 178q0 76 28 119 q27 43 71 71t81 40t99 27t88 24q188 57 188 209q0 74 -43 126t-101 52t-94 -29q-34 -29 -34 -69t19 -66q19 -25 52 -24q60 0 60 53zM1317 1280q-1 110 -63 178t-149 68t-142 -42t-55 -102t26 -94q27 -33 72 -33q86 0 86 72q0 19 -14 33t-34 14v27q31 -1 54 -21 q22 -20 22 -60t-30 -67t-85 -27q-54 0 -92 41q-37 39 -37 111t63 124q61 52 163 52t174 -76t72 -198q0 -59 -25 -139l-98 -336h-45l-82 321l-82 -321h-47l-95 328q-53 4 -81 4q-115 0 -201 -47t-86 -156q0 -68 43 -108t95 -40t82 25t30 61q0 76 -64 76q-45 0 -51 -43h-29 q0 31 25 50t61 19t63 -27q25 -27 25 -73t-38 -80t-105 -34q-66 0 -116 45t-50 129q0 121 93 175t225 54q49 0 108 -8q79 -279 84 -303l6 -21q16 80 82 322h49l80 -322q6 47 88 314q25 78 25 135zM494 356h-35v324q-25 2 -64 2q-117 0 -205 -45t-88 -154q0 -61 37 -104 t91 -43q116 0 116 92q0 29 -16 49q-16 21 -54 21t-43 -43h-28q0 29 24 49q25 20 60 20t61 -26t27 -75q0 -50 -39 -82q-40 -32 -106 -32t-113 49t-47 125q0 113 91 168t234 56q63 0 97 -5v-346z"/>
    <glyph glyph-name="fi" unicode="ﬁ" horiz-adv-x="1054" d="M637 1505q278 0 276 -106q0 -88 -98 -88q-51 0 -72 22q-20 23 -20 70q-41 6 -121 6t-160 -43t-98 -141q-8 -41 -8 -103v-100h563v-1022h-156v920h-405v-920h-156v920h-155v102h155v88q0 78 13 131q61 264 442 264z"/>
    <glyph glyph-name="fl" unicode="ﬂ" horiz-adv-x="1050" d="M909 0h-153v1399h-127q-119 0 -194 -37t-93 -137q-6 -33 -6 -99v-104h278v-102h-278v-920h-154v920h-155v102h155v96q0 244 157 325q112 56 300 56q102 0 270 -14v-1485z"/>
    <glyph glyph-name="one.tl" d="M1051 0h-895v102h387v1162l-387 -140v107l415 149h127v-1278h353v-102z"/>
    <glyph glyph-name="two.tl" d="M1006 0h-834v96q25 27 237 277t228 272q180 217 180 371q0 262 -334 262h-293v90q164 25 340 25q451 0 451 -361q0 -86 -36 -172t-74 -138q-39 -52 -73 -93t-237 -275t-223 -252h668v-102z"/>
    <glyph glyph-name="three.tl" d="M180 102h201q247 0 362 120q66 69 66 173q0 264 -424 283v96q139 20 263 106t124 208q0 121 -106 159q-88 31 -217 31h-250v96q168 20 299 21q210 0 324 -67t114 -226q0 -119 -92 -206t-217 -136q116 -24 225 -97q127 -89 127 -272q0 -96 -49 -179q-84 -143 -312 -199 q-96 -23 -224 -23t-214 18v94z"/>
    <glyph glyph-name="four.tl" d="M891 0h-150v317h-643v138l557 925h236v-960h162v-103h-162v-317zM741 420v655l4 203h-26l-94 -182l-412 -676h528z"/>
    <glyph glyph-name="five.tl" d="M178 102h178q190 0 315 78q124 78 124 257q1 179 -147 250t-429 56l66 637h641v-102h-518l-46 -422q596 8 596 -418q0 -221 -162 -336t-401 -114q-119 0 -217 16v98z"/>
    <glyph glyph-name="six.tl" d="M967 1278h-138q-217 0 -369 -127t-177 -365q133 100 319 100t302 -107q116 -108 116 -336t-123 -344q-123 -115 -321 -115t-325 142q-128 142 -128 452q0 212 58 372q57 160 157 252q197 182 475 182q106 0 154 -8v-98zM270 555q0 -223 84 -344t224 -121t217 86t77 261 t-82 258q-83 83 -212 83q-86 0 -172 -30t-130 -74q-6 -86 -6 -119z"/>
    <glyph glyph-name="seven.tl" d="M131 1278v102h881v-92l-535 -1288h-166l541 1278h-721z"/>
    <glyph glyph-name="eight.tl" d="M270 322q0 -122 87 -184t215 -62t212 58t84 180t-92 208t-223 137q-129 -61 -206 -138t-77 -199zM1026 344q0 -184 -130 -275t-327 -91t-323 83q-126 84 -127 267q0 143 87 233t232 156q-120 57 -200 147t-80 203q0 166 120 249t296 83t294 -83q119 -83 119 -245 q1 -217 -280 -340q319 -154 319 -387zM838 1077q0 117 -77 172t-191 55t-188 -52t-75 -156q0 -104 83 -184q83 -79 200 -126q248 117 248 291z"/>
    <glyph glyph-name="nine.tl" d="M195 102h163q227 0 350 113q122 113 152 379q-125 -98 -312 -98t-305 108t-118 334q0 227 128 342q127 115 325 115q198 1 320 -143t122 -451q0 -525 -261 -707q-151 -104 -374 -102q-120 0 -190 12v98zM870 827q0 219 -78 342t-218 123t-221 -87t-81 -262t83 -257 t212 -82q86 0 171 28t128 70q4 57 4 125z"/>
    <glyph glyph-name="zero.tl" d="M571 -20q-203 0 -333 172t-132 536q0 364 132 536q132 171 334 171t333 -174q131 -173 131 -533t-131 -534t-334 -174zM573 84q135 0 225 147q89 147 89 457t-89 456q-88 148 -224 148t-226 -147t-90 -457t90 -456q90 -148 225 -148z"/>
    <glyph glyph-name="one.to" d="M1024 0h-895v102h387v803l-387 -129v107l416 139h127v-920h352v-102z"/>
    <glyph glyph-name="two.to" d="M1012 0h-854v98q256 209 448 381q158 143 158 256q0 186 -293 187h-266v88q143 25 315 24q408 0 408 -280q0 -158 -201 -334q-162 -145 -383 -318h668v-102z"/>
    <glyph glyph-name="three.to" d="M174 -256h195q248 0 364 120q66 69 66 173q0 266 -422 280v99q139 20 262 106t123 199q0 201 -322 201h-252v90q154 23 299 22q440 0 441 -291q0 -119 -92 -205t-215 -137q117 -24 223 -97q57 -40 92 -108t35 -155q0 -141 -85 -237q-154 -174 -470 -175q-142 1 -242 19 v96z"/>
    <glyph glyph-name="four.to" d="M840 -358h-152v419h-592v138l520 823h224v-858h204v-103h-204v-419zM688 164v555l8 201h-16l-88 -158l-383 -598h479z"/>
    <glyph glyph-name="five.to" d="M180 -256h187q190 0 311 77t121 251t-170 244q-152 63 -402 63l49 643h654v-102h-524l-33 -422q592 -14 592 -418q0 -221 -160 -337t-402 -116q-125 1 -223 17v100z"/>
    <glyph glyph-name="six.to" d="M967 1278h-138q-221 0 -367 -126t-173 -366q133 100 317 100t301 -107q117 -108 117 -336t-123 -344t-305 -115q-215 0 -341 141t-126 453q0 212 56 372q55 160 153 252q195 184 469 184q106 0 160 -12v-96zM279 553q1 -223 81 -344t220 -121t219 86q78 86 78 262 t-83 259t-212 83q-86 0 -170 -30t-129 -74q-4 -53 -4 -121z"/>
    <glyph glyph-name="seven.to" d="M129 920v102h905v-94l-620 -1286h-162l618 1278h-741z"/>
    <glyph glyph-name="eight.to" d="M1026 344q0 -186 -131 -277t-327 -91t-322 83q-126 84 -127 267q0 143 87 232t232 155q-124 61 -202 150t-78 204q0 164 120 248t296 84t294 -84q119 -84 119 -246q-1 -123 -77 -202t-203 -136q319 -150 319 -387zM272 330q0 -131 87 -196q87 -64 214 -64t210 61t83 183 t-92 208t-223 137q-279 -133 -279 -329zM836 1075q0 119 -76 175t-189 56t-187 -52q-74 -54 -75 -160q0 -106 83 -184q83 -79 200 -124q244 117 244 289z"/>
    <glyph glyph-name="nine.to" d="M176 -256h139q221 0 366 126q144 126 171 366q-130 -104 -314 -104t-302 110q-118 112 -119 338q0 226 123 342q124 116 322 114q198 0 324 -142t126 -456q0 -210 -56 -370q-100 -288 -364 -392q-117 -44 -240 -44t-176 12v100zM862 469q0 223 -81 344t-221 121t-218 -87 t-78 -262t83 -258t212 -83q86 0 171 28t128 74q4 29 4 123z"/>
    <glyph glyph-name="zero.to" d="M572 -25q-196 1 -339 141t-143 396t143 395t339 139t339 -138q143 -140 143 -396t-142 -396q-144 -140 -340 -141zM244 512q0 -210 94 -320t234 -110t235 109q94 110 94 321q0 212 -94 320q-95 108 -235 108t-234 -109t-94 -319z"/>
    <glyph glyph-name="one.pl" horiz-adv-x="862" d="M631 0h-154v1264l-416 -148v107l443 157h127v-1380z"/>
    <glyph glyph-name="two.pl" horiz-adv-x="1103" d="M985 0h-833v96q25 27 236 277q212 250 228 272q180 217 181 371q0 262 -334 262h-293v90q164 25 340 25q451 0 451 -361q0 -86 -36 -172t-74 -138t-262 -314t-272 -306h668v-102z"/>
    <glyph glyph-name="three.pl" horiz-adv-x="1073" d="M156 102h200q247 0 363 120q66 69 65 173q0 264 -424 283v96q140 20 264 106t124 208q0 121 -107 159q-88 31 -217 31h-250v96q168 20 299 21q209 0 324 -67t114 -226q0 -119 -92 -206t-217 -136q118 -24 225 -97q127 -90 127 -272q0 -96 -49 -179t-132 -129 q-171 -95 -382 -93q-149 0 -235 18v94z"/>
    <glyph glyph-name="four.pl" horiz-adv-x="1181" d="M905 0h-149v317h-650v138l566 925h233v-960h166v-103h-166v-317zM756 420v655l4 203h-25l-98 -182l-418 -676h537z"/>
    <glyph glyph-name="five.pl" horiz-adv-x="1069" d="M160 102h178q190 0 314 78t124 257t-147 250t-428 56l65 637h641v-102h-518l-45 -422q596 8 596 -418q0 -221 -162 -336t-401 -114q-119 0 -217 16v98z"/>
    <glyph glyph-name="six.pl" d="M973 1278h-137q-217 0 -369 -127t-178 -365q133 100 319 100t302 -107q116 -108 116 -336t-123 -344q-123 -115 -321 -115t-325 142q-128 142 -128 452q0 212 58 372q57 160 157 252q197 182 475 182q106 0 154 -8v-98zM584 90q140 0 217 86q78 86 78 261t-83 258 t-212 83q-86 0 -171 -30t-130 -74q-6 -86 -7 -119q0 -223 84 -344t224 -121z"/>
    <glyph glyph-name="seven.pl" horiz-adv-x="1060" d="M100 1278v102h881v-92l-535 -1288h-165l540 1278h-721z"/>
    <glyph glyph-name="eight.pl" horiz-adv-x="1181" d="M291 324q0 -120 87 -184t214 -64t212 58t85 180q-1 122 -93 208t-223 137q-129 -61 -205 -138t-77 -197zM1044 344q0 -186 -130 -276t-326 -90t-324 83q-127 84 -127 267q0 143 87 233t235 156q-121 57 -201 147t-80 203q0 166 119 249t296 83t295 -83t118 -245 q0 -217 -279 -340q317 -154 317 -387zM858 1077q0 117 -77 172t-191 55t-188 -52t-74 -158t82 -183q82 -78 200 -125q248 117 248 291z"/>
    <glyph glyph-name="nine.pl" d="M195 102h163q227 0 350 113q122 113 152 379q-125 -98 -312 -98t-305 108t-118 334q0 227 128 342q127 115 325 115q198 1 320 -143t122 -451q0 -525 -261 -707q-151 -104 -374 -102q-120 0 -190 12v98zM870 827q0 219 -78 342t-218 123t-221 -87t-81 -262t83 -257 t212 -82q86 0 171 28t128 70q4 57 4 125z"/>
    <glyph glyph-name="zero.pl" horiz-adv-x="1167" d="M578 1395q204 0 334 -174q130 -173 130 -533t-130 -534t-334 -174q-203 0 -334 172t-131 536t131 536q131 171 334 171zM580 84q135 0 224 147t89 457t-89 456q-89 148 -224 148q-136 0 -226 -147t-90 -457t90 -457q91 -147 226 -147z"/>
    <glyph glyph-name="one.po" horiz-adv-x="884" d="M659 0h-157v903l-381 -127v107l414 139h124v-1022z"/>
    <glyph glyph-name="two.po" horiz-adv-x="1114" d="M1008 0h-854v98q231 188 446 381q158 139 158 256q0 186 -291 187h-266v88q143 25 315 24q408 0 408 -280q0 -158 -201 -334q-162 -145 -383 -318h668v-102z"/>
    <glyph glyph-name="three.po" horiz-adv-x="1081" d="M162 -256h194q248 0 366 120q67 69 66 173q0 266 -423 280v99q139 20 263 106t124 199q0 201 -324 201h-250v90q150 23 299 22q440 0 441 -291q0 -119 -92 -205t-218 -137q117 -24 235 -104q117 -80 115 -256q0 -141 -85 -237q-154 -175 -470 -175q-141 1 -241 19v96z "/>
    <glyph glyph-name="four.po" horiz-adv-x="1179" d="M856 -358h-147v419h-619v138l545 823h221v-858h264v-103h-264v-419zM709 164v555l8 201h-12l-95 -158l-405 -598h504z"/>
    <glyph glyph-name="five.po" horiz-adv-x="1081" d="M152 -256h184q190 0 311 77t121 242q0 191 -169 256q-151 60 -400 60l49 643h653v-102h-524l-33 -426q590 -14 590 -416q0 -219 -160 -335t-401 -116q-123 1 -221 17v100z"/>
    <glyph glyph-name="six.po" d="M967 1278h-138q-223 0 -366 -125t-172 -367q133 100 316 100t301 -107q118 -108 118 -336t-123 -344t-305 -115q-215 0 -341 141t-126 453q0 210 55 370q56 160 152 253q192 185 465 185q94 0 164 -12v-96zM281 553q-1 -223 81 -344t222 -121t218 86q77 86 77 261 t-83 259t-212 84q-84 0 -169 -30t-130 -74q-4 -53 -4 -121z"/>
    <glyph glyph-name="seven.po" horiz-adv-x="1046" d="M90 920v102h895v-94l-610 -1286h-158l608 1278h-735z"/>
    <glyph glyph-name="eight.po" horiz-adv-x="1171" d="M1036 344q0 -186 -130 -277t-326 -91t-322 83q-127 84 -127 267q0 143 87 233t235 154q-283 141 -283 352q0 166 120 249t296 83t294 -84t117 -246q1 -123 -75 -200t-205 -136q319 -147 319 -387zM883 314q1 122 -93 208t-227 137q-281 -133 -280 -329q0 -131 87 -196 q87 -64 215 -64t213 61t85 183zM850 1075q0 119 -77 174t-189 55t-189 -52q-76 -54 -76 -158t84 -184q84 -79 201 -124q246 117 246 289z"/>
    <glyph glyph-name="zero.po.004" horiz-adv-x="1169" d="M1071 510q0 -252 -143 -394t-343 -143t-344 143t-145 394q0 250 144 393t345 143q200 0 343 -142t143 -394zM585 74q153 0 258 114t105 322q0 209 -105 323q-105 113 -258 113t-258 -114t-105 -322t104 -322q106 -114 259 -114z"/>
    <glyph glyph-name="zero.po" horiz-adv-x="1159" d="M580 -25q-195 1 -339 141t-145 396q0 256 144 395t340 139q195 0 338 -138q143 -140 143 -396t-143 -396t-338 -141zM580 82q141 0 234 110t93 320q0 212 -93 320t-234 108q-142 0 -236 -109t-94 -319t94 -321q95 -109 236 -109z"/>
    <glyph glyph-name="nine.po" horiz-adv-x="1148" d="M184 -256h138q221 0 365 126t171 366q-131 -104 -314 -104t-301 109t-118 337t123 344t305 114q215 0 340 -140t125 -454q0 -210 -55 -370q-99 -288 -365 -395q-117 -45 -241 -45t-173 12v100zM868 469q0 223 -81 344t-221 121t-218 -87t-78 -262t83 -258t212 -83 q86 0 171 28t128 74q4 29 4 123z"/>
    <glyph glyph-name="fraction.001" horiz-adv-x="788" d="M78 -344h-127l813 1829h129z"/>
    <glyph glyph-name="hairline" horiz-adv-x="20" d="M20 -467h-20v1952h20v-1952z"/>
    </font>
</defs>
</svg>
